<?xml version="1.0" standalone="no"?>
<!DOCTYPE svg PUBLIC "-//W3C//DTD SVG 1.1//EN" "http://www.w3.org/Graphics/SVG/1.1/DTD/svg11.dtd" >
<svg>
<metadata>
Created by FontForge 20090914 at Wed Jan  8 08:26:49 2020
 By www-data
a_AlternaSwollen *Arsenal Company &#194;&#169; 1997*  FAX: (095)924-3775; e-Mail: arsenal@itco.msk.su; Phone: (095)924-5811 (Design and Featuring W.Chufarofsky &#38; M.Slutsker)
</metadata>
<defs>
<font id="a_AlternaSw" horiz-adv-x="494" >
  <font-face 
    font-family="a_AlternaSw"
    font-weight="600"
    font-stretch="normal"
    units-per-em="1000"
    panose-1="2 11 7 6 2 2 7 5 2 4"
    ascent="800"
    descent="-200"
    x-height="617.996"
    cap-height="708"
    bbox="-78 -224 1063 858"
    underline-thickness="81"
    underline-position="-170"
    unicode-range="U+0020-U+2219"
  />
<missing-glyph horiz-adv-x="546" 
d="M40 0v618h466v-618h-466zM80 40h386v538h-386v-538z" />
    <glyph glyph-name=".notdef" horiz-adv-x="546" 
d="M40 0v618h466v-618h-466zM80 40h386v538h-386v-538z" />
    <glyph glyph-name="space" unicode=" " horiz-adv-x="256" 
 />
    <glyph glyph-name="exclam" unicode="!" horiz-adv-x="267" 
d="M62 0c-2 10 -3.66699 21.833 -5 35.5s-2 28.167 -2 43.5s0.666992 29.833 2 43.5s3 25.5 5 35.5c9.33301 2 20.333 3.5 33 4.5s25.334 1.5 38.001 1.5s25.334 -0.5 38.001 -1.5s23.667 -2.5 33 -4.5c2 -10 3.66699 -21.833 5 -35.5s2 -28.167 2 -43.5
s-0.666992 -29.833 -2 -43.5s-3 -25.5 -5 -35.5c-9.33301 -2 -20.333 -3.5 -33 -4.5s-25.334 -1.5 -38.001 -1.5s-25.334 0.5 -38.001 1.5s-23.667 2.5 -33 4.5zM80 187c-6 22 -11.5 47.3311 -16.5 75.998s-9.33301 59 -13 91s-6.33398 64.833 -8.00098 98.5
s-2.5 66.5 -2.5 98.5c0 28.667 0.833008 55.834 2.5 81.501s4.16699 48.834 7.5 69.501c10.667 2 23.5 3.66699 38.5 5s30.167 2 45.5 2s30.333 -0.666992 45 -2s27.334 -3 38.001 -5c3.33301 -20.667 5.83301 -44.334 7.5 -71.001s2.5 -54.667 2.5 -84
c0 -31.333 -0.833008 -63.666 -2.5 -96.999s-4.16699 -65.833 -7.5 -97.5s-7.5 -61.667 -12.5 -90s-10.5 -53.5 -16.5 -75.5c-15.333 -3.33301 -33.333 -5 -54 -5s-38.667 1.66699 -54 5z" />
    <glyph glyph-name="quotedbl" unicode="&#x22;" horiz-adv-x="336" 
d="M212 441c-4 17.333 -6.83301 38.5 -8.5 63.5s-2.5 50.5 -2.5 76.5s0.833008 51.5 2.5 76.5s4.5 46.167 8.5 63.5c5.33301 0.666992 11.5 1.5 18.5 2.5s14.5 1.5 22.5 1.5s15.5 -0.5 22.5 -1.5s13.167 -1.83301 18.5 -2.5c4 -17.333 6.83301 -38.5 8.5 -63.5
s2.5 -50.5 2.5 -76.5s-0.833008 -51.5 -2.5 -76.5s-4.5 -46.167 -8.5 -63.5c-5.33301 -0.666992 -11.5 -1.5 -18.5 -2.5s-14.5 -1.5 -22.5 -1.5s-15.5 0.5 -22.5 1.5s-13.167 1.83301 -18.5 2.5zM42 441c-4 17.333 -6.83301 38.5 -8.5 63.5s-2.5 50.5 -2.5 76.5
s0.833008 51.5 2.5 76.5s4.5 46.167 8.5 63.5c5.33301 0.666992 11.5 1.5 18.5 2.5s14.5 1.5 22.5 1.5s15.5 -0.5 22.5 -1.5s13.167 -1.83301 18.5 -2.5c4 -17.333 6.83301 -38.5 8.5 -63.5s2.5 -50.5 2.5 -76.5s-0.833008 -51.5 -2.5 -76.5s-4.5 -46.167 -8.5 -63.5
c-5.33301 -0.666992 -11.5 -1.5 -18.5 -2.5s-14.5 -1.5 -22.5 -1.5s-15.5 0.5 -22.5 1.5s-13.167 1.83301 -18.5 2.5z" />
    <glyph glyph-name="numbersign" unicode="#" 
d="M303 399c-4.66699 -0.666992 -10.8301 -1.50098 -18.4971 -2.50098s-15.5 -1.5 -23.5 -1.5s-15.833 0.5 -23.5 1.5s-13.834 1.83301 -18.501 2.5c-0.666992 -6.66699 -1.83398 -14.5 -3.50098 -23.5s-3.83398 -18.167 -6.50098 -27.5s-5.66699 -18.166 -9 -26.499
s-6.66602 -15.5 -9.99902 -21.5c5.33301 1.33301 11.666 2.33301 18.999 3s15 1 23 1s15.667 -0.333008 23 -1s13.666 -1.66699 18.999 -3c1.33301 13.333 4.83301 30.333 10.5 51s11.834 36.667 18.501 48zM169.004 479.999c0.666992 11.333 2.66699 24.6641 6 39.9971
s7.33301 30.833 12 46.5s9.83398 30.667 15.501 45s11.167 26.5 16.5 36.5c10 2 22.333 3 37 3s27 -1 37 -3c-0.666992 -11.333 -2.66699 -24.666 -6 -39.999s-7.16602 -30.833 -11.499 -46.5s-9.16602 -30.667 -14.499 -45s-10.666 -26.5 -15.999 -36.5c10 2 23.667 3 41 3
c16.667 0 30 -1 40 -3c0.666992 11.333 2.66699 24.666 6 39.999s7.33301 30.833 12 46.5s9.83398 30.667 15.501 45s11.167 26.5 16.5 36.5c9.33301 2 21.333 3 36 3c16 0 28.333 -1 37 -3c-0.666992 -11.333 -2.66699 -24.666 -6 -39.999s-7.33301 -30.833 -12 -46.5
s-9.66699 -30.667 -15 -45s-10.666 -26.5 -15.999 -36.5c6 1.33301 13.167 2.33301 21.5 3s16.833 1 25.5 1s17.167 -0.333008 25.5 -1s15.5 -1.66699 21.5 -3c-1.33301 -10.667 -4.33301 -24.5 -9 -41.5s-9.66699 -30.167 -15 -39.5l-21.5 -2.5
c-8.33301 -1 -16.833 -1.5 -25.5 -1.5s-17.167 0.5 -25.5 1.5l-21.5 2.5c-1.33301 -12.667 -4.83301 -29.334 -10.5 -50.001s-11.5 -36.667 -17.5 -48l21.5 2.5c8.33301 1 17.166 1.5 26.499 1.5s18.333 -0.5 27 -1.5l22 -2.5
c-0.666992 -11.333 -3.33398 -25.333 -8.00098 -42s-9.66699 -29.667 -15 -39c-6 -1.33301 -13.5 -2.33301 -22.5 -3s-17.833 -1 -26.5 -1s-17.5 0.333008 -26.5 1s-16.5 1.66699 -22.5 3c-0.666992 -11.333 -2.66699 -24.666 -6 -39.999s-7.33301 -31 -12 -47
s-9.83398 -31.167 -15.501 -45.5s-11.167 -26.5 -16.5 -36.5c-9.33301 -2 -21.666 -3 -36.999 -3c-16 0 -28.333 1 -37 3c0.666992 11.333 2.66699 24.666 6 39.999s7.33301 30.833 12 46.5s9.83398 30.834 15.501 45.501s11.167 27 16.5 37
c-5.33301 -1.33301 -11.5 -2.33301 -18.5 -3s-14.5 -1 -22.5 -1s-15.5 0.333008 -22.5 1s-13.167 1.66699 -18.5 3c-0.666992 -11.333 -2.66699 -24.666 -6 -39.999s-7.33301 -31 -12 -47s-9.83398 -31.167 -15.501 -45.5s-11.167 -26.5 -16.5 -36.5
c-9.33301 -2 -21.666 -3 -36.999 -3c-16 0 -28.333 1 -37 3c0.666992 11.333 2.66699 24.666 6 39.999s7.16602 30.833 11.499 46.5s9.33301 30.834 15 45.501s11.167 27 16.5 37c-6 -1.33301 -13.333 -2.33301 -22 -3s-17.667 -1 -27 -1s-18.166 0.333008 -26.499 1
s-15.5 1.66699 -21.5 3c1.33301 10.667 4.66602 24.5 9.99902 41.5s10.666 30.167 15.999 39.5l21.5 2.5c8.33301 1 17.166 1.5 26.499 1.5s18.166 -0.5 26.499 -1.5l21.5 -2.5c1.33301 12.667 4.83301 29.334 10.5 50.001s11.5 36.667 17.5 48
c-13.333 -3.33301 -30 -5 -50 -5c-20.667 0 -37.667 1.66699 -51 5c0.666992 11.333 3.66699 25.333 9 42s10.666 29.667 15.999 39c6 1.33301 13.5 2.33301 22.5 3s18.167 1 27.5 1s18.333 -0.333008 27 -1s16 -1.66699 22 -3z" />
    <glyph glyph-name="dollar" unicode="$" 
d="M444 460c-9.33301 -2 -20.3379 -3.50098 -33.0049 -4.50098s-25.667 -1.5 -39 -1.5s-26.666 0.5 -39.999 1.5s-24.333 2.5 -33 4.5c-0.666992 4.66699 -1 10.834 -1 18.501s0.333008 13.834 1 18.501c-1.33301 16.667 -6.16602 31.334 -14.499 44.001
s-21.833 19 -40.5 19c-16 0 -29 -4 -39 -12s-15.333 -15.333 -16 -22c3.33301 -6.66699 17.5 -21.334 42.5 -44.001l90.5 -83c24 -14.667 44.333 -28 61 -40s30 -24 40 -36s17.333 -25.167 22 -39.5s7 -31.5 7 -51.5c0 -6 -0.166992 -12.167 -0.5 -18.5
s-0.833008 -13.166 -1.5 -20.499c0.666992 -5.33301 1 -10.833 1 -16.5v-15.5c0 -56 -14.5 -96.833 -43.5 -122.5s-75.167 -39.167 -138.5 -40.5c2 -8 3 -18.667 3 -32s-1 -24 -3 -32c-3.33301 -1.33301 -7 -2 -11 -2h-13c-14.667 0 -22.834 2.33301 -24.501 7
s-2.5 13.667 -2.5 27c0 14 1 25 3 33c-60.667 1.33301 -105 14.5 -133 39.5s-42 65.167 -42 120.5v16.5c0 5.66699 0.333008 11.5 1 17.5c-0.666992 4.66699 -1.5 10.834 -2.5 18.501s-1.5 15.167 -1.5 22.5c0 21.333 3.83301 34.5 11.5 39.5s18.834 7.5 33.501 7.5h31
c6 0 11.833 0.166992 17.5 0.5s10.834 0.5 15.501 0.5c14 0 24.5 -2.5 31.5 -7.5s10.5 -17.5 10.5 -37.5c0 -15.333 -1 -28 -3 -38c2 -22 7.66699 -39.833 17 -53.5s24 -20.5 44 -20.5c16.667 0 29.834 5.5 39.501 16.5s15.167 22.5 16.5 34.5
c-4 20.667 -15 41.334 -33 62.001s-48.333 49 -91 85c-45.333 24 -79.833 51 -103.5 81s-35.5 61.333 -35.5 94c0 3.33301 0.166992 6.66602 0.5 9.99902s0.833008 6.66602 1.5 9.99902c-0.666992 3.33301 -1 6.66602 -1 9.99902v10c0 48 15 84.667 45 110
s73.333 38.666 130 39.999c-2 8 -3 19 -3 33s1 25 3 33c3.33301 1.33301 7 2 11 2h13c14.667 0 22.834 -2.16699 24.501 -6.5s2.5 -13.833 2.5 -28.5c0 -14 -1 -25 -3 -33c62.667 -1.33301 107.667 -13.833 135 -37.5s41 -62.834 41 -117.501v-15
c0 -5.33301 -0.333008 -10.666 -1 -15.999c1.33301 -6.66699 2 -13.667 2 -21s-0.666992 -14.333 -2 -21z" />
    <glyph glyph-name="percent" unicode="%" 
d="M339 227c2 -8.66699 3.5 -19.833 4.5 -33.5s1.5 -27.5 1.5 -41.5c0 -10.667 -1 -21.834 -3 -33.501s-3 -22.5 -3 -32.5c0 -11.333 2.66699 -20.666 8 -27.999s16 -11 32 -11c15.333 0 25.5 3.66699 30.5 11s7.5 16.666 7.5 27.999c0 10 -0.833008 20.833 -2.5 32.5
s-2.5 22.834 -2.5 33.501s1 22 3 34s3 22.667 3 32c0 10.667 -2.66699 19.667 -8 27s-16 11 -32 11c-13.333 0 -23 -2.83301 -29 -8.5s-9.33301 -12.5 -10 -20.5zM78 610.001c2 -9.33301 3.5 -20.501 4.5 -33.501s1.5 -26.5 1.5 -40.5
c0 -10.667 -0.833008 -21.834 -2.5 -33.501s-2.5 -22.167 -2.5 -31.5c0 -11.333 2.5 -20.833 7.5 -28.5s15.167 -11.5 30.5 -11.5s25.5 3.83301 30.5 11.5s7.5 17.167 7.5 28.5c0 9.33301 -0.833008 19.833 -2.5 31.5s-2.5 22.834 -2.5 33.501s1 21.834 3 33.501
s3 22.167 3 31.5c0 11.333 -2.66699 20.666 -8 27.999s-16.333 11 -33 11c-13.333 0 -22.5 -2.66699 -27.5 -8s-8.16699 -12.666 -9.5 -21.999zM470 219c2 -8.66699 3.33496 -18.834 4.00195 -30.501s1 -23.834 1 -36.501s-0.333008 -25 -1 -37s-2 -22.333 -4 -31
c2.66699 -34.667 -3.83301 -59.5 -19.5 -74.5s-39.834 -21.167 -72.501 -18.5c-32.667 -2.66699 -56.5 3.33301 -71.5 18s-21.167 39.667 -18.5 75c-2 8.66699 -3.33301 19 -4 31s-1 24.333 -1 37s0.333008 24.834 1 36.501s2 21.834 4 30.501
c-2.66699 35.333 3.66602 60.5 18.999 75.5s39 21.167 71 18.5c32 2.66699 56 -3.5 72 -18.5s22.667 -40.167 20 -75.5zM208.002 603c2 -8.66699 3.33301 -18.8369 4 -30.5039s1 -23.834 1 -36.501s-0.333008 -25 -1 -37s-2 -22.333 -4 -31
c2.66699 -35.333 -4 -60.666 -20 -75.999s-40.333 -21.666 -73 -18.999c-64.667 -5.33301 -94.667 26.334 -90 95.001c-2 8.66699 -3.33301 19 -4 31s-1 24.333 -1 37s0.333008 24.834 1 36.501s2 21.834 4 30.501c-4.66699 67.333 25.333 98.333 90 93
c32.667 2.66699 57 -3.33301 73 -18s22.667 -39.667 20 -75zM62.002 -0.00292969c-4 -1.33301 -8.66309 -1.99805 -13.9961 -1.99805h-16h-15.5c-5 0 -9.5 0.666992 -13.5 2c11.333 32.667 26.5 68.834 45.5 108.501s40.333 80.834 64 123.501s49.167 85.667 76.5 129
l83 125.5c28 40.333 55.667 77.666 83 111.999s53 63.833 77 88.5c3.33301 0.666992 7.66602 1.16699 12.999 1.5s10.666 0.5 15.999 0.5s10.666 -0.166992 15.999 -0.5s9.66602 -0.833008 12.999 -1.5c-17.333 -48.667 -42.5 -104.834 -75.5 -168.501
s-69.667 -127.834 -110 -192.501s-81.833 -125.834 -124.5 -183.501s-82 -105.167 -118 -142.5z" />
    <glyph glyph-name="ampersand" unicode="&#x26;" horiz-adv-x="496" 
d="M262 159c-6.66699 8 -13.8311 17.999 -21.498 29.999s-15 24.833 -22 38.5s-13.333 27 -19 40s-9.83398 24.5 -12.501 34.5c-21.333 -16.667 -35.833 -32.167 -43.5 -46.5s-12.834 -29.833 -15.501 -46.5c2.66699 -29.333 10.667 -54.333 24 -75s30.333 -32 51 -34
c18 1.33301 31.667 7.33301 41 18s15.333 24.334 18 41.001zM239.003 472.999c28.667 27.333 48.332 48.332 58.999 62.999s17.334 27.334 20.001 38.001c-1.33301 8 -7.16602 16.667 -17.499 26s-25.166 14 -44.499 14c-18 0 -32.5 -4.83301 -43.5 -14.5
s-16.833 -18.167 -17.5 -25.5c3.33301 -8 7.66602 -19 12.999 -33s15.666 -36.667 30.999 -68zM283.001 384.998c5.33301 -6.66699 11.1631 -15.1738 17.4961 -25.5068s12.5 -21.166 18.5 -32.499s11.5 -22.5 16.5 -33.5s8.5 -20.5 10.5 -28.5c10.667 42 22 72 34 90
s24.667 28.667 38 32c13.333 -6.66699 29 -17.167 47 -31.5s31.333 -27.166 40 -38.499c-35.333 -32.667 -61.833 -59.5 -79.5 -80.5s-28.167 -37.5 -31.5 -49.5c0.666992 -0.666992 1.5 -3.66699 2.5 -9s2.16699 -9.33301 3.5 -12c8 -9.33301 16.333 -21 25 -35
s17 -28.833 25 -44.5s15.333 -31.167 22 -46.5s11.667 -28.666 15 -39.999c-8.66699 -2 -19.834 -3.5 -33.501 -4.5s-27.5 -1.5 -41.5 -1.5s-27.5 0.5 -40.5 1.5s-24.167 2.5 -33.5 4.5c-6 6.66699 -12.5 16.334 -19.5 29.001s-11.833 23.334 -14.5 32.001
c-18 -27.333 -35.333 -46.166 -52 -56.499s-35.667 -15.5 -57 -15.5c-4 0 -8 0.166992 -12 0.5s-8.33301 0.833008 -13 1.5c-4 -0.666992 -8 -1 -12 -1h-11c-94.667 0 -142 53.333 -142 160v16c0 5.33301 0.333008 11 1 17c-2 15.333 -3 29.333 -3 42
c0 45.333 9.83301 83.333 29.5 114s49.834 56 90.501 76c-33.333 44.667 -50 87 -50 127c0 4 0.166992 8 0.5 12s0.833008 7.66699 1.5 11c-3.33301 47.333 7.83398 83.5 33.501 108.5s63.167 37.5 112.5 37.5h14c4.66699 0 9.33398 -0.333008 14.001 -1
c3.33301 0.666992 6.83301 1 10.5 1h10.5c44 0 78.833 -12.333 104.5 -37s36.834 -58.667 33.501 -102c0.666992 -3.33301 1 -6.83301 1 -10.5v-10.5c0 -36.667 -11.167 -69.667 -33.5 -99s-53.166 -51.666 -92.499 -66.999z" />
    <glyph glyph-name="quotesingle" unicode="'" horiz-adv-x="166" 
d="M42 441c-4 17.333 -6.83301 38.5 -8.5 63.5s-2.5 50.5 -2.5 76.5s0.833008 51.5 2.5 76.5s4.5 46.167 8.5 63.5c5.33301 0.666992 11.5 1.5 18.5 2.5s14.5 1.5 22.5 1.5s15.5 -0.5 22.5 -1.5s13.167 -1.83301 18.5 -2.5c4 -17.333 6.83301 -38.5 8.5 -63.5
s2.5 -50.5 2.5 -76.5s-0.833008 -51.5 -2.5 -76.5s-4.5 -46.167 -8.5 -63.5c-5.33301 -0.666992 -11.5 -1.5 -18.5 -2.5s-14.5 -1.5 -22.5 -1.5s-15.5 0.5 -22.5 1.5s-13.167 1.83301 -18.5 2.5z" />
    <glyph glyph-name="parenleft" unicode="(" horiz-adv-x="300" 
d="M272 64c2 -8 3.33301 -17.498 4 -28.498s1 -22.167 1 -33.5s-0.333008 -22.333 -1 -33s-2 -20 -4 -28c-76 -0.666992 -132.833 18.333 -170.5 57s-56.5 101.667 -56.5 189c0 8.66699 0.166992 17.667 0.5 27s0.833008 19 1.5 29c-2 10 -3.66699 22.333 -5 37
s-2 29.667 -2 45s0.666992 30.333 2 45s3 27 5 37c-0.666992 10 -1.16699 19.667 -1.5 29s-0.5 18.333 -0.5 27c0 87.333 18.833 150.666 56.5 189.999s94.5 58 170.5 56c2 -7.33301 3.33301 -16.5 4 -27.5s1 -22.167 1 -33.5s-0.333008 -22.333 -1 -33s-2 -19.667 -4 -27
c-18 -5.33301 -32 -11.666 -42 -18.999s-17.667 -16.333 -23 -27s-9 -22.834 -11 -36.501s-4 -29.167 -6 -46.5c1.33301 -8.66699 1.33301 -17.667 0 -27c2.66699 -13.333 4.83398 -29.333 6.50098 -48s2.5 -38 2.5 -58s-0.833008 -39.667 -2.5 -59
s-3.83398 -35.333 -6.50098 -48c1.33301 -9.33301 1.33301 -18.333 0 -27c2 -17.333 4 -32.833 6 -46.5s5.66699 -25.834 11 -36.501s13 -19.667 23 -27s24 -13.333 42 -18z" />
    <glyph glyph-name="parenright" unicode=")" horiz-adv-x="300" 
d="M28 588c-2 7.33301 -3.33301 16.3311 -4 26.998s-1 21.667 -1 33s0.333008 22.5 1 33.5s2 20.167 4 27.5c76 2 132.833 -16.5 170.5 -55.5s56.5 -102.167 56.5 -189.5c0 -9.33301 -0.166992 -18.666 -0.5 -27.999s-0.833008 -19 -1.5 -29c2 -10 3.66699 -22.333 5 -37
s2 -29.667 2 -45s-0.666992 -30.333 -2 -45s-3 -27 -5 -37c0.666992 -10 1.16699 -19.667 1.5 -29s0.5 -18.333 0.5 -27c0 -87.333 -18.833 -150.333 -56.5 -189s-94.5 -57.667 -170.5 -57c-2 8 -3.33301 17.333 -4 28s-1 21.667 -1 33s0.333008 22.5 1 33.5s2 20.5 4 28.5
c18 4.66699 32.167 10.667 42.5 18s18.166 16.333 23.499 27s9 22.834 11 36.501s4 29.167 6 46.5c-1.33301 8.66699 -1.33301 17.667 0 27c-3.33301 12.667 -5.66602 28.667 -6.99902 48s-2 39 -2 59s0.666992 39.333 2 58s3.66602 34.667 6.99902 48
c-1.33301 9.33301 -1.33301 18.333 0 27c-2 17.333 -4 32.833 -6 46.5s-5.66699 25.834 -11 36.501s-13.166 19.667 -23.499 27s-24.5 13.666 -42.5 18.999z" />
    <glyph glyph-name="asterisk" unicode="*" horiz-adv-x="324" 
d="M106 420c-9.33301 3.33301 -20.665 9.49805 -33.998 18.498s-23.333 16.833 -30 23.5c5.33301 10.667 14.333 24 27 40s23.667 28 33 36c-12 1.33301 -27.667 4.66602 -47 9.99902s-34.333 11 -45 17c1.33301 9.33301 4.66602 21.5 9.99902 36.5s10.333 26.5 15 34.5
c12 -1.33301 27.333 -5 46 -11s33.334 -12 44.001 -18c-3.33301 14.667 -5 32.667 -5 54c0 16 1 29 3 39c10 2 23 3 39 3c15.333 0 28 -1 38 -3c1.33301 -6 2.33301 -12.833 3 -20.5s1 -16.167 1 -25.5s-0.333008 -18 -1 -26s-1.66699 -15 -3 -21
c10.667 6 25.334 12 44.001 18s34 9.33301 46 10c5.33301 -8 10.333 -19.5 15 -34.5s7.66699 -27.167 9 -36.5c-10.667 -6 -25.5 -11.667 -44.5 -17s-34.5 -8.33301 -46.5 -9c8.66699 -7.33301 18.667 -18.666 30 -33.999s19.666 -28.333 24.999 -39
c-6.66699 -7.33301 -16.334 -15.666 -29.001 -24.999s-23.334 -16 -32.001 -20c-8.66699 7.33301 -19 18.833 -31 34.5s-20.667 28.834 -26 39.501c-4.66699 -10.667 -12.5 -23.667 -23.5 -39s-21.167 -27 -30.5 -35z" />
    <glyph glyph-name="plus" unicode="+" horiz-adv-x="720" 
d="M315 357c-3.33301 14 -5.66602 30.667 -6.99902 50s-2 39.666 -2 60.999s0.666992 41.666 2 60.999s3.66602 36 6.99902 50c6 0.666992 12.833 1.5 20.5 2.5s15.834 1.5 24.501 1.5s16.834 -0.5 24.501 -1.5s14.5 -1.83301 20.5 -2.5
c3.33301 -14 5.66602 -30.667 6.99902 -50s2 -39.666 2 -60.999s-0.666992 -41.666 -2 -60.999s-3.66602 -36 -6.99902 -50c14 3.33301 30.667 5.66602 50 6.99902s39.666 2 60.999 2s41.666 -0.666992 60.999 -2s36 -3.66602 50 -6.99902
c0.666992 -6 1.5 -12.833 2.5 -20.5s1.5 -15.834 1.5 -24.501s-0.5 -16.834 -1.5 -24.501s-1.83301 -14.5 -2.5 -20.5c-14 -3.33301 -30.667 -5.66602 -50 -6.99902s-39.666 -2 -60.999 -2s-41.666 0.666992 -60.999 2s-36 3.66602 -50 6.99902
c3.33301 -14 5.66602 -30.667 6.99902 -50s2 -39.666 2 -60.999s-0.666992 -41.833 -2 -61.5s-3.66602 -36.5 -6.99902 -50.5c-6 -1.33301 -12.833 -2.33301 -20.5 -3s-15.834 -1 -24.501 -1s-16.834 0.333008 -24.501 1s-14.5 1.66699 -20.5 3
c-3.33301 14 -5.66602 30.833 -6.99902 50.5s-2 40.167 -2 61.5s0.666992 41.666 2 60.999s3.66602 36 6.99902 50c-14 -3.33301 -30.667 -5.66602 -50 -6.99902s-39.666 -2 -60.999 -2s-41.666 0.666992 -60.999 2s-36 3.66602 -50 6.99902
c-0.666992 6 -1.5 12.833 -2.5 20.5s-1.5 15.834 -1.5 24.501s0.5 16.834 1.5 24.501s1.83301 14.5 2.5 20.5c14 3.33301 30.667 5.66602 50 6.99902s39.666 2 60.999 2s41.666 -0.666992 60.999 -2s36 -3.66602 50 -6.99902z" />
    <glyph glyph-name="comma" unicode="," horiz-adv-x="234" 
d="M46 0c-2 10 -3.66797 21.8301 -5.00098 35.4971s-2 28.167 -2 43.5s0.666992 29.833 2 43.5s3 25.5 5 35.5c9.33301 2 20.333 3.5 33 4.5s25.334 1.5 38.001 1.5s25.334 -0.5 38.001 -1.5s23.667 -2.5 33 -4.5c2 -10 3.66699 -22.167 5 -36.5s2 -29.166 2 -44.499
s-0.666992 -30.166 -2 -44.499s-3 -26.5 -5 -36.5c-10.667 -10 -26.334 -21.167 -47.001 -33.5s-38 -21.166 -52 -26.499c-12.667 8 -19 15.667 -19 23c0 8 4.33301 15.5 13 22.5s17.667 13.167 27 18.5c-8 -2 -18.667 -3 -32 -3s-24 1 -32 3z" />
    <glyph glyph-name="hyphen" unicode="-" horiz-adv-x="256" 
d="M248 248c-14.667 -2.66699 -32.667 -5 -54 -7s-43.333 -3 -66 -3s-44.667 1 -66 3s-39.333 4.33301 -54 7c-2 8 -3.33301 17.833 -4 29.5s-1 23.5 -1 35.5s0.333008 23.833 1 35.5s2 21.5 4 29.5c14.667 2.66699 32.667 5 54 7s43.333 3 66 3s44.667 -1 66 -3
s39.333 -4.33301 54 -7c2 -8 3.33301 -17.833 4 -29.5s1 -23.5 1 -35.5s-0.333008 -23.833 -1 -35.5s-2 -21.5 -4 -29.5z" />
    <glyph glyph-name="period" unicode="." horiz-adv-x="234" 
d="M46 0c-2 10 -3.66699 21.833 -5 35.5s-2 28.167 -2 43.5s0.666992 29.833 2 43.5s3 25.5 5 35.5c9.33301 2 20.333 3.5 33 4.5s25.334 1.5 38.001 1.5s25.334 -0.5 38.001 -1.5s23.667 -2.5 33 -4.5c2 -10 3.66699 -21.833 5 -35.5s2 -28.167 2 -43.5
s-0.666992 -29.833 -2 -43.5s-3 -25.5 -5 -35.5c-9.33301 -2 -20.333 -3.5 -33 -4.5s-25.334 -1.5 -38.001 -1.5s-25.334 0.5 -38.001 1.5s-23.667 2.5 -33 4.5z" />
    <glyph glyph-name="slash" unicode="/" horiz-adv-x="315" 
d="M-1 -95c-10 -2 -23 -3 -39 -3c-15.333 0 -28 1 -38 3c10.667 55.333 29 119.833 55 193.5s55.5 148.167 88.5 223.5s67.833 147.5 104.5 216.5s71.667 126.167 105 171.5c10 2 23 3 39 3c15.333 0 28 -1 38 -3c-10.667 -55.333 -29 -119.833 -55 -193.5
s-55.5 -148.167 -88.5 -223.5s-67.833 -147.5 -104.5 -216.5s-71.667 -126.167 -105 -171.5z" />
    <glyph glyph-name="zero" unicode="0" horiz-adv-x="492" 
d="M450 491c4 -18.667 7 -41.001 9 -67.001s3 -53 3 -81s-1 -55 -3 -81s-5 -48.333 -9 -67c0.666992 -5.33301 1 -10.5 1 -15.5v-15.5c0 -59.333 -14.333 -103.166 -43 -131.499s-72 -42.5 -130 -42.5h-15.5c-5 0 -10.167 0.333008 -15.5 1
c-5.33301 -0.666992 -10.5 -1 -15.5 -1h-15.5c-116.667 0 -175 58.333 -175 175v14.5c0 5 0.333008 10.167 1 15.5c-4 18.667 -7 41 -9 67s-3 53 -3 81s1 55 3 81s5 48.333 9 67c-0.666992 5.33301 -1 10.5 -1 15.5v14.5c0 60 14.5 104.333 43.5 133s72.833 43 131.5 43
h15.5c5 0 10.167 -0.333008 15.5 -1c5.33301 0.666992 10.5 1 15.5 1h15.5c58 0 101.333 -14.167 130 -42.5s43 -72.5 43 -132.5v-15.5c0 -5 -0.333008 -10.167 -1 -15.5zM193 501.999c8.66699 -43.333 13.001 -95.999 13.001 -157.999
c0 -61.333 -4.33301 -113.666 -13 -156.999c2 -24.667 7 -41.834 15 -51.501s21 -14.5 39 -14.5c16.667 0 29.167 5 37.5 15s13.5 27 15.5 51c-8.66699 43.333 -13 95.666 -13 156.999c0 62 4.33301 114.667 13 158c-2 24 -7.16699 40.667 -15.5 50s-20.833 14 -37.5 14
s-29.334 -5 -38.001 -15s-14 -26.333 -16 -49z" />
    <glyph glyph-name="one" unicode="1" 
d="M350 0c-9.33301 -2 -20.498 -3.5 -33.498 -4.5s-26.5 -1.5 -40.5 -1.5s-27.5 0.5 -40.5 1.5s-24.167 2.5 -33.5 4.5c-6.66699 32 -11.834 70.5 -15.501 115.5s-5.5 91.167 -5.5 138.5s1.83301 93.333 5.5 138s8.83398 83 15.501 115
c-18 -8.66699 -32.667 -14.834 -44 -18.501s-22.333 -5.5 -33 -5.5c-19.333 0 -30.333 4.16699 -33 12.5s-4 23.833 -4 46.5c0 22 1.66699 40.667 5 56c32.667 10.667 62 24.167 88 40.5s45.667 32.5 59 48.5c15.333 3.33301 33.666 5 54.999 5s39.666 -1.66699 54.999 -5
c9.33301 -43.333 16.333 -95.166 21 -155.499s7 -122.833 7 -187.5s-2.33301 -127.5 -7 -188.5s-11.667 -112.833 -21 -155.5z" />
    <glyph glyph-name="two" unicode="2" 
d="M194 425c-9.33301 -2 -20.6689 -3.50195 -34.002 -4.50195s-27 -1.5 -41 -1.5c-30.667 0 -55.667 2 -75 6c-2 8 -3 19 -3 33s1 25 3 33c-0.666992 5.33301 -1 10.5 -1 15.5v15.5c0 60 14.333 104.167 43 132.5s71.667 42.5 129 42.5h15
c5.33301 0 10.666 -0.333008 15.999 -1c5.33301 0.666992 10.333 1 15 1h15c57.333 0 100.833 -14.167 130.5 -42.5s44.5 -70.833 44.5 -127.5v-14c0 -4.66699 -0.333008 -9.33398 -1 -14.001c2 -12.667 3 -25.334 3 -38.001c0 -65.333 -25.667 -118.666 -77 -159.999
c-4 -8 -10 -15.167 -18 -21.5s-17.333 -15.166 -28 -26.499c-28 -28.667 -49.5 -54 -64.5 -76s-26.833 -37.667 -35.5 -47c14 2.66699 30.5 4.83398 49.5 6.50098s39.167 2.5 60.5 2.5s41.666 -0.833008 60.999 -2.5s36 -3.83398 50 -6.50098c2 -8 3.33301 -17.833 4 -29.5
s1 -23.5 1 -35.5s-0.333008 -23.833 -1 -35.5s-2 -21.5 -4 -29.5c-26 -6 -57 -10.333 -93 -13s-73.333 -4 -112 -4s-76.167 1.33301 -112.5 4s-67.5 7 -93.5 13c-1.33301 1.33301 -2.16602 4.83301 -2.49902 10.5s-0.666016 12 -0.999023 19s-0.5 14.167 -0.5 21.5v17
c0 95.333 53.667 183.333 161 264c2.66699 4.66699 8.33398 10.334 17.001 17.001c49.333 60 78.333 111.667 87 155c-1.33301 22.667 -6.16602 38.667 -14.499 48s-21.833 14 -40.5 14c-25.333 0 -39.833 -9.16699 -43.5 -27.5s-5.5 -43.166 -5.5 -74.499
c0 -16 -1 -29 -3 -39z" />
    <glyph glyph-name="three" unicode="3" 
d="M193 485c-18 -4 -41.666 -6.00391 -70.999 -6.00391s-53 2 -71 6c-1.33301 2 -2.16602 6.16699 -2.49902 12.5s-0.5 13.166 -0.5 20.499v33c0 52 12.667 89.5 38 112.5s65.666 34.5 120.999 34.5c6 0 12.333 -0.166992 19 -0.5s13.334 -0.833008 20.001 -1.5
c7.33301 0.666992 14.333 1 21 1h20c60.667 0 102 -12.167 124 -36.5s33 -65.166 33 -122.499c0 -8 -0.166992 -16.333 -0.5 -25s-0.833008 -17.334 -1.5 -26.001c0.666992 -6 1.16699 -11.667 1.5 -17s0.5 -10.666 0.5 -15.999c0 -23.333 -3 -40.333 -9 -51
s-14.333 -17.667 -25 -21c13.333 -3.33301 23.333 -10.5 30 -21.5s10 -30.5 10 -58.5c0 -6 -0.166992 -12.5 -0.5 -19.5s-0.833008 -14.5 -1.5 -22.5c2 -10 3 -23.333 3 -40s-1 -30 -3 -40c0.666992 -4 1 -8 1 -12v-12c0 -56 -14.833 -97.667 -44.5 -125
s-72.834 -41 -129.501 -41h-15c-5.33301 0 -10.666 0.333008 -15.999 1c-6 -0.666992 -12.167 -1 -18.5 -1h-17.5c-58 0 -100.667 12.833 -128 38.5s-41 67.167 -41 124.5v15.5c0 5.66699 0.333008 11.167 1 16.5c-1.33301 4.66699 -2.33301 10.834 -3 18.501
s-1 15.5 -1 23.5s0.333008 15.833 1 23.5s1.66699 13.834 3 18.501c9.33301 2 20.833 3.5 34.5 4.5s27.5 1.5 41.5 1.5c30.667 0 55.667 -2 75 -6c0.666992 -4.66699 1.5 -10.834 2.5 -18.501s1.5 -15.167 1.5 -22.5s-0.5 -14.833 -1.5 -22.5s-1.83301 -13.834 -2.5 -18.501
c2 -24.667 7.33301 -41.667 16 -51s21 -14 37 -14c21.333 0 34.833 6.83301 40.5 20.5s8.5 36.167 8.5 67.5c0 4.66699 0.166992 8.83398 0.5 12.501s0.833008 7.16699 1.5 10.5c-1.33301 16.667 -4.33301 30.334 -9 41.001s-11.834 19.167 -21.501 25.5
s-22.334 11 -38.001 14s-35.167 5.5 -58.5 7.5c-10 -2.66699 -16.167 0 -18.5 8s-3.5 17.333 -3.5 28v23c0 23.333 1.66699 42.666 5 57.999c13.333 2 26 2 38 0c28.667 2.66699 52.667 7.33398 72 14.001s30 24.334 32 53.001c-2.66699 40.667 -19.334 61 -50.001 61
c-12.667 0 -22.167 -2.16699 -28.5 -6.5s-10.666 -10.166 -12.999 -17.499s-3.83301 -15.833 -4.5 -25.5s-2 -20.167 -4 -31.5z" />
    <glyph glyph-name="four" unicode="4" 
d="M276 114c-16 -3.33301 -35.334 -5.83301 -58.001 -7.5s-46 -2.5 -70 -2.5s-47.167 0.833008 -69.5 2.5s-41.5 4.16699 -57.5 7.5c-1.33301 4 -2.5 8.33301 -3.5 13s-1.5 10.667 -1.5 18c0 4 0.166992 8.83301 0.5 14.5s0.833008 11.834 1.5 18.501
c-2.66699 18 -4.5 35.5 -5.5 52.5s-1.5 33.833 -1.5 50.5c0 168.667 58 304 174 406c15.333 3.33301 33.333 5.83301 54 7.5s42 2.5 64 2.5s43.333 -0.833008 64 -2.5s38.667 -4.16699 54 -7.5c6 -27.333 10.5 -60.333 13.5 -99s4.5 -78.667 4.5 -120
s-1.5 -81.5 -4.5 -120.5s-7.5 -72.167 -13.5 -99.5c8 1.33301 15.667 2 23 2c12 0 19.667 -3.66699 23 -11s5 -16.666 5 -27.999c0 -4.66699 -0.166992 -9.66699 -0.5 -15s-0.5 -10.333 -0.5 -15c0 -12.667 -0.333008 -24.834 -1 -36.501s-2 -21.834 -4 -30.501
c-8 -1.33301 -15.333 -2 -22 -2c-9.33301 0 -15.333 -1.16699 -18 -3.5s-4 -5.83301 -4 -10.5s0.666992 -10.5 2 -17.5s2 -14.833 2 -23.5c0 -22.667 -1.66699 -41.667 -5 -57c-8.66699 -2 -19.667 -3.5 -33 -4.5s-26.666 -1.5 -39.999 -1.5s-26.333 0.5 -39 1.5
s-23.667 2.5 -33 4.5c-1.33301 6.66699 -2.33301 15 -3 25s-1 20.667 -1 32s0.333008 22 1 32s1.66699 18.333 3 25zM168.999 269c1.33301 -8 3.33105 -13.333 5.99805 -16s6.33398 -4 11.001 -4c4 0 8.83301 0.5 14.5 1.5s12.834 1.5 21.501 1.5
c10 0 19.833 -0.333008 29.5 -1s17.834 -1.66699 24.501 -3c-5.33301 21.333 -9 47 -11 77s-3 61 -3 93s1 63 3 93s5.66699 55.333 11 76c-16.667 -31.333 -30.834 -60.833 -42.501 -88.5s-21.5 -54.167 -29.5 -79.5s-14.833 -50.333 -20.5 -75s-10.5 -49.667 -14.5 -75z
" />
    <glyph glyph-name="five" unicode="5" 
d="M61 332c-4 18.667 -6.83691 41.0049 -8.50391 67.0049s-2.5 53 -2.5 81c0 38 1.5 75.667 4.5 113s7.83301 68.666 14.5 93.999c22 4.66699 48.333 8.16699 79 10.5s62.667 3.5 96 3.5s65.333 -1.16699 96 -3.5s57 -5.83301 79 -10.5c2 -8 3.33301 -17.833 4 -29.5
s1 -23.5 1 -35.5s-0.333008 -23.833 -1 -35.5s-2 -21.5 -4 -29.5c-14 -3.33301 -31 -5.66602 -51 -6.99902s-40.333 -2 -61 -2s-41 0.666992 -61 2s-37 3.66602 -51 6.99902c0.666992 -3.33301 1.16699 -7.5 1.5 -12.5s0.5 -10.167 0.5 -15.5c0 -20 -1.66699 -37.333 -5 -52
c21.333 12.667 38.5 20.667 51.5 24s27.167 3.66602 42.5 0.999023c3.33301 0.666992 6.66602 1 9.99902 1h10c45.333 0 80.833 -13.167 106.5 -39.5s38.5 -63.833 38.5 -112.5v-12c0 -4 -0.333008 -8 -1 -12c2 -8 3.33301 -17.833 4 -29.5s1 -23.834 1 -36.501
s-0.333008 -24.834 -1 -36.501s-2 -21.5 -4 -29.5c0.666992 -5.33301 1 -10.5 1 -15.5v-14.5c0 -116.667 -58 -175 -174 -175h-15c-5.33301 0 -10.666 0.333008 -15.999 1c-5.33301 -0.666992 -10.666 -1 -15.999 -1h-15c-57.333 0 -100.666 14.167 -129.999 42.5
s-44 72.5 -44 132.5v15c0 5.33301 0.333008 10.333 1 15c-2 8 -3 19.333 -3 34s1 26 3 34c9.33301 2 20.666 3.5 33.999 4.5s27.333 1.5 42 1.5s28.834 -0.5 42.501 -1.5s25.167 -2.5 34.5 -4.5c2 -10 3 -22.667 3 -38s-1 -28 -3 -38
c2 -24.667 6.83301 -41.834 14.5 -51.501s19.834 -14.5 36.501 -14.5c21.333 0 35 6.5 41 19.5s9 29.167 9 48.5c0 10 -0.333008 20.333 -1 31s-1 21.667 -1 33s0.333008 22.333 1 33s1 20.667 1 30c0 19.333 -3 35.333 -9 48s-19.667 19 -41 19s-36.666 -5 -45.999 -15
s-15 -22 -17 -36c-8 -2 -17.333 -3.33301 -28 -4s-21.667 -1 -33 -1s-22.333 0.333008 -33 1s-20 2 -28 4z" />
    <glyph glyph-name="six" unicode="6" 
d="M303 478c-2.66699 14.667 -4.50195 27.502 -5.50195 38.502s-3 20.167 -6 27.5s-7.66699 12.833 -14 16.5s-15.833 5.5 -28.5 5.5c-20.667 0 -34 -6.33301 -40 -19s-9 -28.334 -9 -47.001c0 -9.33301 0.333008 -19 1 -29s1 -20.333 1 -31
c0 -11.333 -0.333008 -22.333 -1 -33s-2 -20 -4 -28c11.333 17.333 21.333 31.333 30 42s17.334 18.5 26.001 23.5s17.334 8 26.001 9s18.334 0.833008 29.001 -0.5c96.667 7.33301 145 -42.334 145 -149.001v-15.5c0 -5 -0.333008 -10.167 -1 -15.5c2 -10 3 -23 3 -39
s-1 -29 -3 -39c0.666992 -5.33301 1 -10.5 1 -15.5v-15.5c0 -59.333 -14.333 -103.166 -43 -131.499s-72 -42.5 -130 -42.5h-15.5c-5 0 -10.167 0.333008 -15.5 1c-5.33301 -0.666992 -10.5 -1 -15.5 -1h-15.5c-57.333 0 -100.333 14.167 -129 42.5s-43 72.166 -43 131.499
v15.5c0 5 0.333008 10.167 1 15.5c-4 18.667 -7 41 -9 67s-3 53 -3 81s1 55 3 81s5 48.333 9 67c-0.666992 5.33301 -1 10.5 -1 15.5v15.5c0 60 14.333 104.167 43 132.5s71.667 42.5 129 42.5h15.5c5 0 10.167 -0.333008 15.5 -1c5.33301 0.666992 10.5 1 15.5 1h15.5
c115.333 0 173 -55.333 173 -166c0 -27.333 -2.83301 -44 -8.5 -50s-17.5 -9 -35.5 -9h-31c-14 0 -27.833 0.5 -41.5 1.5s-24.834 2.5 -33.501 4.5zM196.998 264.002c2 -10 3.00098 -22.666 3.00098 -37.999c0 -16 -1 -29 -3 -39c2 -24.667 6.66699 -41.834 14 -51.501
s20 -14.5 38 -14.5c25.333 0 40.166 9.16699 44.499 27.5s6.5 44.166 6.5 77.499c0 15.333 1 28 3 38c-1.33301 24 -6.33301 40.5 -15 49.5s-21.667 13.5 -39 13.5c-18 0 -30.833 -4.66699 -38.5 -14s-12.167 -25.666 -13.5 -48.999z" />
    <glyph glyph-name="seven" unicode="7" 
d="M252 0c-10.667 -2 -23.6689 -3.66895 -39.002 -5.00195s-31 -2 -47 -2s-31.667 0.666992 -47 2s-28.333 3 -39 5c-2.66699 5.33301 -4.16699 15.5 -4.5 30.5s-0.5 26.833 -0.5 35.5c0 41.333 7.66699 83.333 23 126s38.333 87.667 69 135c6 26 21.333 56 46 90l38 90.5
c10 23.667 18 40.167 24 49.5c-14 -3.33301 -31 -5.66602 -51 -6.99902s-40.667 -2 -62 -2s-42.166 0.666992 -62.499 2s-37.5 3.66602 -51.5 6.99902c-2 8 -3.33301 17.833 -4 29.5s-1 23.5 -1 35.5s0.333008 23.833 1 35.5s2 21.5 4 29.5
c25.333 5.33301 55.833 9.5 91.5 12.5s72.5 4.5 110.5 4.5s74.833 -1.5 110.5 -4.5s65.834 -7.16699 90.501 -12.5c1.33301 -11.333 2.33301 -22.666 3 -33.999s1 -22.666 1 -33.999c0 -68.667 -28.667 -146 -86 -232c-2 -4.66699 -3.66699 -8 -5 -10
c-30.667 -72 -54.167 -141.167 -70.5 -207.5z" />
    <glyph glyph-name="eight" unicode="8" 
d="M43 195l-2.50293 22.001c-1 8.66699 -1.5 17.667 -1.5 27s0.5 18.5 1.5 27.5l2.5 22.5c-2.66699 24.667 -0.666992 44.667 6 60s16 25 28 29c-16 4.66699 -25.833 18.167 -29.5 40.5s-5.5 46.166 -5.5 71.499v37c0 54.667 15 95.834 45 123.501s73 41.5 129 41.5h15
c4.66699 0 9.66699 -0.333008 15 -1c5.33301 0.666992 10.333 1 15 1h15c56 0 99.333 -13.833 130 -41.5s46 -69.167 46 -124.5c0 -4.66699 0.166992 -10 0.5 -16s0.5 -12 0.5 -18c0 -4 -0.166992 -7.83301 -0.5 -11.5s-0.833008 -7.16699 -1.5 -10.5
c2.66699 -24.667 0.166992 -45.334 -7.5 -62.001s-17.5 -26.667 -29.5 -30c10 -3.33301 17.667 -9.5 23 -18.5s9.33301 -20 12 -33s4.33398 -27.167 5.00098 -42.5s1 -30.333 1 -45c0 -9.33301 -0.5 -18.333 -1.5 -27l-2.5 -22c0.666992 -4.66699 1 -9.66699 1 -15v-15
c0 -116.667 -58.333 -175 -175 -175h-15c-5.33301 0 -10.666 0.333008 -15.999 1c-5.33301 -0.666992 -10.666 -1 -15.999 -1h-15c-57.333 0 -100.5 14.167 -129.5 42.5s-43.5 72.5 -43.5 132.5v14.5c0 5 0.333008 10.167 1 15.5zM188.997 263.001c2 -10 3 -23 3 -39
s-1 -29 -3 -39c2 -24.667 7.33301 -41.834 16 -51.501s22.667 -14.5 42 -14.5c27.333 0 43.333 8.83301 48 26.5s7 43.834 7 78.501c0 16 1 29 3 39c-2 24.667 -7.33301 41.834 -16 51.501s-22.667 14.5 -42 14.5c-18.667 0 -32.5 -4.83301 -41.5 -14.5
s-14.5 -26.834 -16.5 -51.501zM246.997 568.001c-19.333 -1.33301 -33.5 -6.16699 -42.5 -14.5s-14.167 -22.5 -15.5 -42.5c2 -29.333 7.5 -49 16.5 -59s22.833 -15 41.5 -15c19.333 0 33.333 5.16699 42 15.5s14 27.833 16 52.5c-1.33301 23.333 -6.5 39.333 -15.5 48
s-23.167 13.667 -42.5 15z" />
    <glyph glyph-name="nine" unicode="9" 
d="M297 423c-2 10 -3.00098 23 -3.00098 39c0 16.667 1 30 3 40c-2 23.333 -7 39.833 -15 49.5s-20.667 14.5 -38 14.5c-12.667 0 -22.167 -2.33301 -28.5 -7s-11 -11.5 -14 -20.5s-4.66699 -20 -5 -33s-0.5 -27.5 -0.5 -43.5s-1 -29 -3 -39
c2 -24.667 6.83301 -41.5 14.5 -50.5s19.834 -13.5 36.501 -13.5c17.333 0 30 4.83301 38 14.5s13 26.167 15 49.5zM192.999 209c1.33301 -7.33301 1.33105 -14.665 -0.00195312 -21.998c2 -24.667 6.83301 -41.834 14.5 -51.501s19.834 -14.5 36.501 -14.5
c21.333 0 34.833 6.5 40.5 19.5s8.5 29.5 8.5 49.5c0 9.33301 -0.166992 18.666 -0.5 27.999s-0.5 19.333 -0.5 30c0 11.333 0.333008 22.333 1 33s2 20 4 28c-22 -35.333 -40.5 -57.333 -55.5 -66s-31.833 -11.334 -50.5 -8.00098
c-3.33301 -0.666992 -6.66602 -1 -9.99902 -1h-10c-88 0 -132 49.333 -132 148v15.5c0 5 0.333008 10.167 1 15.5c-2 10 -3 23 -3 39s1 29 3 39c-0.666992 5.33301 -1 10.5 -1 15.5v14.5c0 117.333 58 176 174 176h15c5.33301 0 10.666 -0.333008 15.999 -1
c5.33301 0.666992 10.666 1 15.999 1h15c116 0 174 -58.667 174 -176v-14.5c0 -5 -0.333008 -10.167 -1 -15.5c4 -18.667 7 -41 9 -67s3 -53 3 -81s-1 -55 -3 -81s-5 -48.333 -9 -67c0.666992 -5.33301 1 -10.5 1 -15.5v-14.5c0 -116.667 -58 -175 -174 -175h-15
c-5.33301 0 -10.666 0.333008 -15.999 1c-5.33301 -0.666992 -10.333 -1 -15 -1h-15c-116.667 0 -175 57 -175 171c0 24.667 3.33301 39.834 10 45.501s20.667 8.5 42 8.5h25c14.667 0 28.834 -0.5 42.501 -1.5s25.167 -2.5 34.5 -4.5z" />
    <glyph glyph-name="colon" unicode=":" horiz-adv-x="234" 
d="M46 451c-2 10 -3.66699 22.333 -5 37s-2 29.334 -2 44.001s0.666992 29.167 2 43.5s3 26.5 5 36.5c9.33301 2 20.333 3.5 33 4.5s25.334 1.5 38.001 1.5s25.334 -0.5 38.001 -1.5s23.667 -2.5 33 -4.5c2 -10 3.66699 -22.167 5 -36.5s2 -28.833 2 -43.5
s-0.666992 -29.334 -2 -44.001s-3 -27 -5 -37c-9.33301 -2 -20.333 -3.5 -33 -4.5s-25.334 -1.5 -38.001 -1.5s-25.334 0.5 -38.001 1.5s-23.667 2.5 -33 4.5zM46 0c-2 10 -3.66699 21.833 -5 35.5s-2 28.167 -2 43.5s0.666992 29.833 2 43.5s3 25.5 5 35.5
c9.33301 2 20.333 3.5 33 4.5s25.334 1.5 38.001 1.5s25.334 -0.5 38.001 -1.5s23.667 -2.5 33 -4.5c2 -10 3.66699 -21.833 5 -35.5s2 -28.167 2 -43.5s-0.666992 -29.833 -2 -43.5s-3 -25.5 -5 -35.5c-9.33301 -2 -20.333 -3.5 -33 -4.5s-25.334 -1.5 -38.001 -1.5
s-25.334 0.5 -38.001 1.5s-23.667 2.5 -33 4.5z" />
    <glyph glyph-name="semicolon" unicode=";" horiz-adv-x="234" 
d="M46 451c-2 10 -3.66699 22.333 -5 37s-2 29.334 -2 44.001s0.666992 29.167 2 43.5s3 26.5 5 36.5c9.33301 2 20.333 3.5 33 4.5s25.334 1.5 38.001 1.5s25.334 -0.5 38.001 -1.5s23.667 -2.5 33 -4.5c2 -10 3.66699 -22.167 5 -36.5s2 -28.833 2 -43.5
s-0.666992 -29.334 -2 -44.001s-3 -27 -5 -37c-9.33301 -2 -20.333 -3.5 -33 -4.5s-25.334 -1.5 -38.001 -1.5s-25.334 0.5 -38.001 1.5s-23.667 2.5 -33 4.5zM46 0c-2 10 -3.66797 21.8301 -5.00098 35.4971s-2 28.167 -2 43.5s0.666992 29.833 2 43.5s3 25.5 5 35.5
c9.33301 2 20.333 3.5 33 4.5s25.334 1.5 38.001 1.5s25.334 -0.5 38.001 -1.5s23.667 -2.5 33 -4.5c2 -10 3.66699 -22.167 5 -36.5s2 -29.166 2 -44.499s-0.666992 -30.166 -2 -44.499s-3 -26.5 -5 -36.5c-10.667 -10 -26.334 -21.167 -47.001 -33.5
s-38 -21.166 -52 -26.499c-12.667 8 -19 15.667 -19 23c0 8 4.33301 15.5 13 22.5s17.667 13.167 27 18.5c-8 -2 -18.667 -3 -32 -3s-24 1 -32 3z" />
    <glyph glyph-name="less" unicode="&#x3c;" horiz-adv-x="720" 
d="M63 361c32.667 22.667 74 46.1689 124 70.502s102.167 47.333 156.5 69s108 40.667 161 57s99.167 27.833 138.5 34.5c3.33301 -15.333 5 -33.333 5 -54c0 -20 -1.66699 -37.667 -5 -53c-26 -17.333 -58.333 -35.5 -97 -54.5s-79 -36.833 -121 -53.5
s-83.667 -31.334 -125 -44.001s-77.333 -21.667 -108 -27c30.667 -5.33301 66.667 -14.333 108 -27s83 -27.334 125 -44.001s82.333 -34.5 121 -53.5s71 -37.167 97 -54.5c3.33301 -15.333 5 -33 5 -53s-1.66699 -37.667 -5 -53c-39.333 6.66699 -85.5 18.167 -138.5 34.5
s-106.667 35.5 -161 57.5s-106.5 45.167 -156.5 69.5s-91.333 47.833 -124 70.5c-3.33301 15.333 -5 33.333 -5 54s1.66699 38.667 5 54z" />
    <glyph glyph-name="equal" unicode="=" horiz-adv-x="720" 
d="M120 148c-1.33301 6.66699 -2.33301 14.5 -3 23.5s-1 18.167 -1 27.5s0.333008 18.5 1 27.5s1.66699 16.833 3 23.5c30 6.66699 66.167 11.667 108.5 15s86.166 5 131.499 5s89.166 -1.66699 131.499 -5s78.5 -8.33301 108.5 -15c1.33301 -6.66699 2.33301 -14.5 3 -23.5
s1 -18.167 1 -27.5s-0.333008 -18.5 -1 -27.5s-1.66699 -16.833 -3 -23.5c-30 -6.66699 -66.167 -11.667 -108.5 -15s-86.166 -5 -131.499 -5s-89.166 1.66699 -131.499 5s-78.5 8.33301 -108.5 15zM120 369c-1.33301 6 -2.33301 13.667 -3 23s-1 18.666 -1 27.999
s0.333008 18.666 1 27.999s1.66699 17 3 23c30 6.66699 66.167 11.5 108.5 14.5s86.166 4.5 131.499 4.5s89.166 -1.5 131.499 -4.5s78.5 -7.83301 108.5 -14.5c1.33301 -6 2.33301 -13.667 3 -23s1 -18.666 1 -27.999s-0.333008 -18.666 -1 -27.999s-1.66699 -17 -3 -23
c-30 -6.66699 -66.167 -11.5 -108.5 -14.5s-86.166 -4.5 -131.499 -4.5s-89.166 1.5 -131.499 4.5s-78.5 7.83301 -108.5 14.5z" />
    <glyph glyph-name="greater" unicode="&#x3e;" horiz-adv-x="720" 
d="M77 485c-3.33301 15.333 -5 32.998 -5 52.998c0 20.667 1.66699 38.667 5 54c39.333 -6.66699 85.5 -18.167 138.5 -34.5s106.667 -35.333 161 -57s106.5 -44.667 156.5 -69s91.333 -47.833 124 -70.5c3.33301 -15.333 5 -33.333 5 -54s-1.66699 -38.667 -5 -54
c-32.667 -22.667 -74 -46.167 -124 -70.5s-102.167 -47.5 -156.5 -69.5s-108 -41.167 -161 -57.5s-99.167 -27.833 -138.5 -34.5c-3.33301 14.667 -5 32.334 -5 53.001c0 20 1.66699 37.333 5 52c26 17.333 58.333 35.5 97 54.5s79.334 37 122.001 54
s84.667 31.833 126 44.5s77.333 21.667 108 27c-30.667 5.33301 -66.667 14.333 -108 27s-83.333 27.334 -126 44.001s-83.334 34.5 -122.001 53.5s-71 37.167 -97 54.5z" />
    <glyph glyph-name="question" unicode="?" horiz-adv-x="411" 
d="M111 0c-2 10 -3.66699 21.833 -5 35.5s-2 28.167 -2 43.5s0.666992 29.833 2 43.5s3 25.5 5 35.5c18 4 41.667 6 71 6s53 -2 71 -6c2 -10 3.66699 -21.833 5 -35.5s2 -28.167 2 -43.5s-0.666992 -29.833 -2 -43.5s-3 -25.5 -5 -35.5c-18 -4 -41.667 -6 -71 -6
s-53 2 -71 6zM143 464c-8.66699 -2 -18.998 -3.33496 -30.998 -4.00195s-24.333 -1 -37 -1s-25 0.333008 -37 1s-22.333 2 -31 4c-0.666992 2.66699 -1.16699 6.33398 -1.5 11.001s-0.5 9.66699 -0.5 15s0.166992 10.333 0.5 15s0.833008 8.66699 1.5 12
c-0.666992 7.33301 -1 14.166 -1 20.499v18.5c0 57.333 11.833 97.5 35.5 120.5s62.5 34.5 116.5 34.5h17c6 0 12.333 -0.333008 19 -1c6 0.666992 11.667 1 17 1h16c55.333 0 97.166 -12.667 125.499 -38s42.5 -64.666 42.5 -117.999v-12c0 -4 -0.333008 -8.33301 -1 -13
c0.666992 -4.66699 1.16699 -9.16699 1.5 -13.5s0.5 -8.83301 0.5 -13.5c0 -30 -7.66699 -57.833 -23 -83.5s-36.333 -53.167 -63 -82.5c-22 -38 -38 -67.5 -48 -88.5s-17 -39.5 -21 -55.5c0 -2.66699 -2.16699 -4.5 -6.5 -5.5s-9.66602 -1.83301 -15.999 -2.5
s-12.833 -1 -19.5 -1h-17c-10.667 0 -21.5 0.333008 -32.5 1s-20.167 2 -27.5 4c-1.33301 4.66699 -2 10 -2 16v17v21c0 53.333 21.667 104 65 152c15.333 34 29.166 60.167 41.499 78.5s20.166 35.833 23.499 52.5c-1.33301 20.667 -5.83301 36.334 -13.5 47.001
s-21.167 16 -40.5 16c-26 0 -41 -8 -45 -24s-6 -39.333 -6 -70c0 -6 -0.166992 -11.667 -0.5 -17s-0.833008 -10 -1.5 -14z" />
    <glyph glyph-name="at" unicode="@" horiz-adv-x="1024" 
d="M584 136c-27.333 -55.333 -68.9971 -83.002 -124.997 -83.002h-12c-4 0 -8 0.333008 -12 1c-4 -0.666992 -7.83301 -1 -11.5 -1h-10.5c-93.333 0 -140 49 -140 147v12c0 4 0.333008 8 1 12c-0.666992 6 -1.16699 12 -1.5 18s-0.5 11.667 -0.5 17c0 34 5 66 15 96
s24.5 56.167 43.5 78.5s42.333 40.166 70 53.499s58.834 20 93.501 20h10.5c3.66699 0 7.16699 -0.333008 10.5 -1c57.333 6 96.666 -16 117.999 -66c2 6.66699 5.66699 15.334 11 26.001s10.666 18.667 15.999 24c5.33301 1.33301 12 2.33301 20 3s16 1 24 1
s16 -0.333008 24 -1s14.667 -1.66699 20 -3c-0.666992 -20 -3.16699 -43.5 -7.5 -70.5s-9.83301 -54.5 -16.5 -82.5s-14.334 -55 -23.001 -81s-17.334 -48 -26.001 -66c-0.666992 -3.33301 -1.16699 -6.83301 -1.5 -10.5s-0.833008 -6.83398 -1.5 -9.50098
c1.33301 -12 5.5 -20.5 12.5 -25.5s15.5 -7.5 25.5 -7.5c14 0 29.333 3.66699 46 11s31.334 15.666 44.001 24.999c46 58.667 75 129 87 211c-4 40 -16.167 76 -36.5 108s-45.833 59.5 -76.5 82.5s-65 41.5 -103 55.5s-76.667 23.333 -116 28
c-92 -13.333 -172.333 -35.666 -241 -66.999c-48 -43.333 -87.333 -93.333 -118 -150s-50.334 -116.667 -59.001 -180c4.66699 -49.333 18 -93.666 40 -132.999s50.167 -73.333 84.5 -102s73.333 -51.5 117 -68.5s89.834 -28.167 138.501 -33.5
c51.333 8.66699 102.666 21.167 153.999 37.5s100.666 35.833 147.999 58.5c6.66699 -6 14.334 -15.167 23.001 -27.5s14.667 -22.833 18 -31.5c-80 -80 -172.333 -120 -277 -120c-10.667 0 -21.167 0.5 -31.5 1.5s-21.166 2.16699 -32.499 3.5
c-12 -1.33301 -23.833 -2.5 -35.5 -3.5s-22.834 -1.5 -33.501 -1.5c-102.667 0 -186 33.667 -250 101c-105.333 61.333 -158 150.333 -158 267c0 16 1 33 3 51c-1.33301 9.33301 -2.33301 18.333 -3 27s-1 17.667 -1 27c0 96.667 35.667 177.667 107 243
c78 125.333 191 188 339 188c11.333 0 23 -0.5 35 -1.5s24 -2.16699 36 -3.5c10 1.33301 20 2.33301 30 3s19.667 1 29 1c46.667 0 89.667 -7.66699 129 -23s72.666 -37.666 99.999 -66.999c91.333 -53.333 137 -129.333 137 -228c0 -14 -1 -28.667 -3 -44
c2 -14.667 3 -29 3 -43c0 -99.333 -43.333 -175.666 -130 -228.999c-37.333 -39.333 -81.666 -59 -132.999 -59c-4.66699 0 -9.5 0.166992 -14.5 0.5s-9.83301 0.833008 -14.5 1.5c-75.333 -6 -111 21.667 -107 83zM582.003 241.998
c0.666992 14 3.66797 32.168 9.00098 54.501s11 40.166 17 53.499c-13.333 50 -42.333 77.667 -87 83c-20.667 -2 -39.167 -10.5 -55.5 -25.5s-30.333 -33 -42 -54s-21.167 -43.333 -28.5 -67s-12.333 -45.167 -15 -64.5c5.33301 -58.667 31.666 -90 78.999 -94
c24.667 3.33301 48.5 15.5 71.5 36.5s40.167 46.833 51.5 77.5z" />
    <glyph glyph-name="A" unicode="A" horiz-adv-x="498" 
d="M189 252c7.33301 2 16.333 3.33301 27 4s21.667 1 33 1s22.333 -0.333008 33 -1s19.667 -2 27 -4c-9.33301 63.333 -18.833 121.5 -28.5 174.5l-31.5 167.5l-31.5 -167.5c-9.66699 -53 -19.167 -111.167 -28.5 -174.5zM189 0
c-8.66699 -2 -19.8311 -3.49902 -33.498 -4.49902s-27.5 -1.5 -41.5 -1.5s-27.833 0.5 -41.5 1.5s-24.834 2.5 -33.501 4.5c-4 17.333 -6 40 -6 68c0 28.667 2 51.667 6 69c-6 55.333 -9 107 -9 155c0 94 12.333 174.333 37 241s62.334 123 113.001 169c17.333 4 40 6 68 6
c28.667 0 51.667 -2 69 -6c50.667 -46.667 88.5 -103.667 113.5 -171s37.5 -148.333 37.5 -243c0 -46.667 -3 -97 -9 -151c2 -8.66699 3.5 -19 4.5 -31s1.5 -24.667 1.5 -38s-0.5 -25.833 -1.5 -37.5s-2.5 -21.834 -4.5 -30.501c-8.66699 -2 -19.834 -3.5 -33.501 -4.5
s-27.5 -1.5 -41.5 -1.5s-27.833 0.5 -41.5 1.5s-24.834 2.5 -33.501 4.5c-2 8 -3.33301 17.5 -4 28.5s-1 22.5 -1 34.5s0.333008 23.5 1 34.5s2 20.5 4 28.5c-7.33301 -2 -16.333 -3.33301 -27 -4s-21.667 -1 -33 -1s-22.333 0.333008 -33 1s-19.667 2 -27 4
c2 -8 3.33301 -17.5 4 -28.5s1 -22.5 1 -34.5s-0.333008 -23.5 -1 -34.5s-2 -20.5 -4 -28.5z" />
    <glyph glyph-name="B" unicode="B" horiz-adv-x="527" 
d="M204 574c2 -8.66699 3.33398 -18.8301 4.00098 -30.4971s1 -23.834 1 -36.501s-0.333008 -24.834 -1 -36.501s-2 -21.834 -4 -30.501c11.333 2.66699 22.666 2.66699 33.999 0c32.667 2.66699 54.167 11 64.5 25s16.5 30.333 18.5 49c-2 29.333 -10.5 46.333 -25.5 51
s-35.5 7 -61.5 7h-16.5c-5 0 -9.5 0.666992 -13.5 2zM204.001 323.004c2.66699 -12 4.66992 -26.333 6.00293 -43s2 -34 2 -52s-0.666992 -35.5 -2 -52.5s-3.33301 -31.5 -6 -43.5c13.333 2.66699 26.333 2.66699 39 0c32.667 2.66699 54.667 9.66699 66 21
s18.333 32.333 21 63c-2.66699 27.333 -9.66699 51.5 -21 72.5s-29.666 32.5 -54.999 34.5c-2.66699 -0.666992 -6.33398 -1.16699 -11.001 -1.5s-9.33398 -0.5 -14.001 -0.5s-9.33398 0.166992 -14.001 0.5s-8.33398 0.833008 -11.001 1.5zM57.0039 0.00390625
c-10 44 -17.332 97 -21.999 159s-7 126 -7 192s2.33301 130 7 192s12 115 22 159c13.333 2.66699 29.5 4.83398 48.5 6.50098s38.5 2.5 58.5 2.5s39.667 -0.833008 59 -2.5s35.666 -3.83398 48.999 -6.50098c9.33301 0.666992 18.166 1.16699 26.499 1.5
s16.166 0.5 23.499 0.5c56.667 0 96.167 -10.167 118.5 -30.5s33.5 -56.833 33.5 -109.5v-17c0 -6 -0.333008 -12.333 -1 -19c4 -34.667 -1.33301 -63.667 -16 -87s-33.334 -40.333 -56.001 -51c29.333 -15.333 50.5 -33.5 63.5 -54.5s19.5 -50.167 19.5 -87.5v-21
c0 -7.33301 -0.666992 -15 -2 -23c0.666992 -8 1.16699 -15.667 1.5 -23s0.5 -14.333 0.5 -21c0 -57.333 -12 -98.5 -36 -123.5s-67.333 -37.5 -130 -37.5h-18.5c-6.33301 0 -13.166 0.333008 -20.499 1c-14 -2.66699 -30.667 -4.83398 -50 -6.50098
s-39.666 -2.5 -60.999 -2.5s-41.666 0.833008 -60.999 2.5s-36 3.83398 -50 6.50098z" />
    <glyph glyph-name="C" unicode="C" horiz-adv-x="511" 
d="M472 425c-9.33301 -2 -20.834 -3.50195 -34.501 -4.50195s-27.834 -1.5 -42.501 -1.5s-28.834 0.5 -42.501 1.5s-25.167 2.5 -34.5 4.5c-1.33301 5.33301 -2.33301 11.833 -3 19.5s-1 15.5 -1 23.5s0.333008 16 1 24s1.66699 14.667 3 20c-2 24 -7.33301 41 -16 51
s-23 15 -43 15s-34.667 -4.66699 -44 -14s-14.666 -25 -15.999 -47c4.66699 -20.667 8 -45.667 10 -75s3 -59.666 3 -90.999s-1 -61.666 -3 -90.999s-5.33301 -54.333 -10 -75c1.33301 -22.667 6.83301 -38.667 16.5 -48s24.167 -14 43.5 -14c24 0 39.333 6.16699 46 18.5
s10 28.5 10 48.5c0 9.33301 -0.333008 19 -1 29s-1 20.667 -1 32s0.333008 22.333 1 33s2 19.667 4 27c9.33301 2 20.833 3.5 34.5 4.5s27.834 1.5 42.501 1.5s28.834 -0.5 42.501 -1.5s25.167 -2.5 34.5 -4.5c1.33301 -4.66699 2.33301 -10.834 3 -18.501s1 -15.5 1 -23.5
s-0.333008 -15.833 -1 -23.5s-1.66699 -13.834 -3 -18.501c0.666992 -8.66699 1.16699 -16.834 1.5 -24.501s0.5 -15.167 0.5 -22.5c0 -69.333 -13.833 -118.5 -41.5 -147.5s-72.5 -43.5 -134.5 -43.5c-6 0 -12.167 0.166992 -18.5 0.5s-13.166 0.833008 -20.499 1.5
c-7.33301 -0.666992 -14.166 -1.16699 -20.499 -1.5s-12.5 -0.5 -18.5 -0.5c-61.333 0 -105.833 14.5 -133.5 43.5s-41.5 78.167 -41.5 147.5c0 7.33301 0.166992 14.833 0.5 22.5s0.833008 15.834 1.5 24.501c-3.33301 15.333 -6 34 -8 56s-3 44.667 -3 68s1 46 3 68
s4.66699 40.667 8 56c-0.666992 8.66699 -1.16699 17 -1.5 25s-0.5 15.667 -0.5 23c0 68.667 13.667 117.334 41 146.001s71.666 43 132.999 43c6 0 12.333 -0.166992 19 -0.5s13.667 -0.833008 21 -1.5c7.33301 0.666992 14.166 1.16699 20.499 1.5s12.833 0.5 19.5 0.5
c62 0 106.667 -14.333 134 -43s41 -77.334 41 -146.001c0 -7.33301 -0.166992 -15 -0.5 -23s-0.833008 -16.333 -1.5 -25c1.33301 -3.33301 2 -7.16602 2 -11.499v-13.5v-13.5c0 -4.33301 -0.666992 -8.16602 -2 -11.499z" />
    <glyph glyph-name="D" unicode="D" horiz-adv-x="525" 
d="M55 0c-10 44 -17.333 97.0029 -22 159.003s-7 126 -7 192s2.33301 130 7 192s12 115 22 159c14 2.66699 31 4.83398 51 6.50098s40.667 2.5 62 2.5s42.166 -0.833008 62.499 -2.5s37.5 -3.83398 51.5 -6.50098c6 0.666992 12.167 1 18.5 1h17.5
c56 0 96.833 -12.333 122.5 -37s38.5 -65.334 38.5 -122.001c0 -26 2.16699 -54.833 6.5 -86.5s6.5 -67.167 6.5 -106.5c0 -30.667 -1.16699 -60.334 -3.5 -89.001s-5.83301 -53 -10.5 -73c0.666992 -5.33301 1 -10.5 1 -15.5v-15.5
c0 -56.667 -12.833 -97.334 -38.5 -122.001s-66.5 -37 -122.5 -37h-17c-6 0 -12.333 0.333008 -19 1c-14 -2.66699 -31.167 -4.83398 -51.5 -6.50098s-41.166 -2.5 -62.499 -2.5s-42 0.833008 -62 2.5s-37 3.83398 -51 6.50098zM252 568.003
c-2.66699 -1.33301 -6.16699 -1.99609 -10.5 -1.99609h-12.5h-12.5c-4.33301 0 -7.83301 0.666992 -10.5 2c6 -26.667 10.5 -59.334 13.5 -98.001s4.5 -78.667 4.5 -120s-1.5 -81 -4.5 -119s-7.5 -70.667 -13.5 -98c2.66699 0.666992 6.16699 1.16699 10.5 1.5
s8.5 0.5 12.5 0.5s8.16699 -0.166992 12.5 -0.5s7.83301 -0.833008 10.5 -1.5c23.333 2 40.833 7.16699 52.5 15.5s18.5 25.166 20.5 50.499c-8.66699 41.333 -13 91.666 -13 150.999c0 60 4.33301 110.667 13 152c-2 25.333 -8.83301 42.166 -20.5 50.499
s-29.167 13.5 -52.5 15.5z" />
    <glyph glyph-name="E" unicode="E" horiz-adv-x="426" 
d="M390 0c-21.333 -4.66699 -46.6699 -8.16406 -76.0029 -10.4971s-59.333 -3.5 -90 -3.5s-61 1.16699 -91 3.5s-55.333 5.83301 -76 10.5c-10 44 -17.333 97 -22 159s-7 126 -7 192s2.33301 130 7 192s12 115 22 159c20 4.66699 44.333 8.16699 73 10.5
s58.334 3.5 89.001 3.5s60.334 -1.16699 89.001 -3.5s53 -5.83301 73 -10.5c2 -8 3.33301 -17.833 4 -29.5s1 -23.834 1 -36.501s-0.333008 -24.834 -1 -36.501s-2 -21.5 -4 -29.5c-23.333 -5.33301 -53 -8 -89 -8c-35.333 0 -64.666 2.66699 -87.999 8
c2 -8 3.33301 -17.5 4 -28.5s1 -22.167 1 -33.5s-0.333008 -22.333 -1 -33s-2 -20 -4 -28c11.333 2.66699 25.333 4.5 42 5.5s33.667 1.5 51 1.5s34.333 -0.5 51 -1.5s30.667 -2.83301 42 -5.5c2 -8 3.33301 -17.5 4 -28.5s1 -22.5 1 -34.5s-0.333008 -23.5 -1 -34.5
s-2 -20.5 -4 -28.5c-11.333 -2.66699 -25.333 -4.5 -42 -5.5s-33.667 -1.5 -51 -1.5s-34.333 0.5 -51 1.5s-30.667 2.83301 -42 5.5c5.33301 -25.333 8 -57 8 -95c0 -37.333 -2.66699 -68.666 -8 -93.999c24.667 5.33301 55.667 8 93 8s68.333 -2.66699 93 -8
c2 -8 3.33301 -17.833 4 -29.5s1 -23.834 1 -36.501s-0.333008 -24.834 -1 -36.501s-2 -21.5 -4 -29.5z" />
    <glyph glyph-name="F" unicode="F" horiz-adv-x="426" 
d="M212 172c0 -15.333 -0.503906 -31.666 -1.50391 -48.999s-2.16699 -34 -3.5 -50s-3.16602 -30.5 -5.49902 -43.5s-4.5 -22.833 -6.5 -29.5c-22 -6.66699 -44.667 -10 -68 -10c-11.333 0 -23.833 1 -37.5 3s-24.5 4.33301 -32.5 7c-10 44 -17.333 97 -22 159
s-7 126 -7 192s2.33301 130 7 192s12 115 22 159c20 4.66699 44.333 8.16699 73 10.5s58.334 3.5 89.001 3.5s60.334 -1.16699 89.001 -3.5s53 -5.83301 73 -10.5c2 -8 3.33301 -17.833 4 -29.5s1 -23.834 1 -36.501s-0.333008 -24.834 -1 -36.501s-2 -21.5 -4 -29.5
c-23.333 -5.33301 -53 -8 -89 -8c-35.333 0 -64.666 2.66699 -87.999 8c2 -8 3.33301 -17.5 4 -28.5s1 -22.167 1 -33.5s-0.333008 -22.333 -1 -33s-2 -20 -4 -28c11.333 2.66699 21.666 4.5 30.999 5.5s22.666 1.5 39.999 1.5s33.333 -0.5 48 -1.5
s22.334 -2.83301 23.001 -5.5c2 -8 3.33301 -17.5 4 -28.5s1 -22.5 1 -34.5s-0.333008 -23.5 -1 -34.5s-2 -20.5 -4 -28.5c-0.666992 -2.66699 -8.33398 -4.5 -23.001 -5.5s-30.667 -1.5 -48 -1.5s-30.666 0.5 -39.999 1.5s-19.666 2.83301 -30.999 5.5
c1.33301 -6 2.5 -15.5 3.5 -28.5s1.83301 -26.833 2.5 -41.5s1.16699 -29.167 1.5 -43.5s0.5 -26.166 0.5 -35.499z" />
    <glyph glyph-name="G" unicode="G" horiz-adv-x="523" 
d="M47 227c-3.33301 15.333 -5.99902 33.9951 -7.99902 55.9951s-3 44.667 -3 68s1 46 3 68s4.66699 40.667 8 56c-0.666992 8.66699 -1.16699 17 -1.5 25s-0.5 15.667 -0.5 23c0 68.667 13.667 117.334 41 146.001s71.666 43 132.999 43c6 0 12.333 -0.166992 19 -0.5
s13.667 -0.833008 21 -1.5c6.66699 0.666992 13.167 1 19.5 1h18.5c61.333 0 106 -14 134 -42s42 -74.667 42 -140v-19c0 -6.66699 -0.333008 -13.667 -1 -21c4.66699 -15.333 1.83398 -25 -8.49902 -29s-22.5 -6 -36.5 -6c-5.33301 0 -10.833 0.166992 -16.5 0.5
s-10.834 0.5 -15.501 0.5c-14.667 0 -28.834 0.5 -42.501 1.5s-25.167 2.5 -34.5 4.5c-1.33301 3.33301 -2 7 -2 11v14v15c0 4.66699 0.666992 8.33398 2 11.001c-2 24 -7.33301 41 -16 51s-23 15 -43 15s-34.667 -4.66699 -44 -14s-14.666 -25 -15.999 -47
c4 -19.333 7.16699 -42.666 9.5 -69.999s3.5 -55.666 3.5 -84.999c0 -61.333 -4.33301 -112.666 -13 -153.999c2.66699 -32.667 9 -54.334 19 -65.001s26 -17 48 -19c22.667 2 39.167 8.83301 49.5 20.5s16.833 34.834 19.5 69.501c-0.666992 6 -1.5 12.833 -2.5 20.5
s-1.5 16.167 -1.5 25.5c0 8.66699 0.5 15.667 1.5 21s1.5 9.66602 1.5 12.999c0 4 -1.5 6.83301 -4.5 8.5s-9.5 2.5 -19.5 2.5c-13.333 0 -21.666 3.16699 -24.999 9.5s-5 14.833 -5 25.5v24c0 23.333 1.66699 42.666 5 57.999c25.333 5.33301 56.333 8 93 8
c37.333 0 68.666 -2.66699 93.999 -8c6 -26.667 10.333 -58.667 13 -96s4 -75.666 4 -114.999s-1.33301 -77.666 -4 -114.999s-7 -69.333 -13 -96c-2.66699 -1.33301 -6.16699 -2 -10.5 -2h-13.5c-14.667 0 -26.167 3.66699 -34.5 11s-15.833 17.333 -22.5 30
c-20.667 -18.667 -39.334 -31.667 -56.001 -39s-35 -11 -55 -11c-5.33301 0 -10.666 0.166992 -15.999 0.5s-11 0.833008 -17 1.5c-5.33301 -0.666992 -10.833 -1 -16.5 -1h-15.5c-58.667 0 -101.667 14.5 -129 43.5s-41 77.833 -41 146.5c0 7.33301 0.166992 15 0.5 23
s0.833008 16 1.5 24z" />
    <glyph glyph-name="H" unicode="H" horiz-adv-x="531" 
d="M57 0c-10 44 -17.333 97 -22 159s-7 126 -7 192s2.33301 130 7 192s12 115 22 159c8.66699 2 19.834 3.5 33.501 4.5s27.5 1.5 41.5 1.5s27.833 -0.5 41.5 -1.5s24.834 -2.5 33.501 -4.5c3.33301 -16 6 -35.333 8 -58s3 -46 3 -70s-1 -47.167 -3 -69.5
s-4.66699 -41.5 -8 -57.5c15.333 3.33301 35 5 59 5c23.333 0 42.666 -1.66699 57.999 -5c-3.33301 16 -5.83301 35.167 -7.5 57.5s-2.5 45.5 -2.5 69.5s0.833008 47.333 2.5 70s4.16699 42 7.5 58c9.33301 2 20.666 3.5 33.999 4.5s27 1.5 41 1.5c30.667 0 55.667 -2 75 -6
c10 -44 17.333 -97 22 -159s7 -126 7 -192s-2.33301 -130 -7 -192s-12 -115 -22 -159c-9.33301 -2 -20.666 -3.5 -33.999 -4.5s-27 -1.5 -41 -1.5c-30.667 0 -55.667 2 -75 6c-4.66699 20 -8.16699 44.167 -10.5 72.5s-3.5 57.5 -3.5 87.5s1.16699 59.333 3.5 88
s5.83301 53 10.5 73c-15.333 -3.33301 -34.666 -5 -57.999 -5c-24 0 -43.667 1.66699 -59 5c4.66699 -20 8 -44.333 10 -73s3 -58 3 -88s-1 -59.167 -3 -87.5s-5.33301 -52.5 -10 -72.5c-8.66699 -2 -19.834 -3.5 -33.501 -4.5s-27.5 -1.5 -41.5 -1.5s-27.833 0.5 -41.5 1.5
s-24.834 2.5 -33.501 4.5z" />
    <glyph glyph-name="I" unicode="I" horiz-adv-x="270" 
d="M60 0c-10 44 -17.333 97 -22 159s-7 126 -7 192s2.33301 130 7 192s12 115 22 159c9.33301 2 20.666 3.5 33.999 4.5s27 1.5 41 1.5c30.667 0 55.667 -2 75 -6c10 -44 17.333 -97 22 -159s7 -126 7 -192s-2.33301 -130 -7 -192s-12 -115 -22 -159
c-9.33301 -2 -20.666 -3.5 -33.999 -4.5s-27 -1.5 -41 -1.5c-30.667 0 -55.667 2 -75 6z" />
    <glyph glyph-name="J" unicode="J" horiz-adv-x="480" 
d="M157 323c4 -18 5.99902 -41.002 5.99902 -69.002s-2 -51 -6 -69c1.33301 -22.667 6.66602 -38.667 15.999 -48s24 -14 44 -14s34.333 5.16699 43 15.5s14 27.833 16 52.5c-6.66699 32 -11.834 70.5 -15.501 115.5s-5.5 91.5 -5.5 139.5s1.83301 94.667 5.5 140
s8.83398 84 15.501 116c9.33301 2 20.666 3.5 33.999 4.5s27.333 1.5 42 1.5s28.834 -0.5 42.501 -1.5s25.167 -2.5 34.5 -4.5c6.66699 -30 11.5 -66 14.5 -108s4.5 -85.333 4.5 -130s-1.5 -87.834 -4.5 -129.501s-7.83301 -77.5 -14.5 -107.5
c0.666992 -8.66699 1.16699 -17 1.5 -25s0.5 -15.667 0.5 -23c0 -68.667 -13.667 -117.5 -41 -146.5s-72 -43.5 -134 -43.5c-6 0 -12.167 0.166992 -18.5 0.5s-13.166 0.833008 -20.499 1.5c-7.33301 -0.666992 -14.166 -1.16699 -20.499 -1.5s-12.5 -0.5 -18.5 -0.5
c-62 0 -106.833 14.5 -134.5 43.5s-41.5 78.167 -41.5 147.5c0 7.33301 0.166992 14.833 0.5 22.5s0.833008 15.834 1.5 24.501c-1.33301 6 -2.33301 13.333 -3 22s-1 17.334 -1 26.001s0.333008 17.334 1 26.001s1.66699 16 3 22c9.33301 2 20.666 3.5 33.999 4.5
s27.333 1.5 42 1.5s28.834 -0.5 42.501 -1.5s25.167 -2.5 34.5 -4.5z" />
    <glyph glyph-name="K" unicode="K" horiz-adv-x="516" 
d="M474 0c-9.33301 -2 -20.832 -3.49707 -34.499 -4.49707s-27.5 -1.5 -41.5 -1.5c-30.667 0 -55.667 2 -75 6c-1.33301 9.33301 -2.33301 18.666 -3 27.999s-1 18.333 -1 27c0 24 2 47 6 69c-6 39.333 -12.5 77 -19.5 113s-20.167 70.333 -39.5 103
c-9.33301 -10.667 -19.833 -20.834 -31.5 -30.501s-22.5 -15.834 -32.5 -18.501c4 -18 7 -40 9 -66s3 -52.333 3 -79s-1 -53.167 -3 -79.5s-5 -48.5 -9 -66.5c-9.33301 -2 -20.5 -3.5 -33.5 -4.5s-26.5 -1.5 -40.5 -1.5c-30.667 0 -55 2 -73 6c-10 44 -17.333 97 -22 159
s-7 126 -7 192s2.33301 130 7 192s12 115 22 159c18 4 42.333 6 73 6c14 0 27.5 -0.5 40.5 -1.5s24.167 -2.5 33.5 -4.5c4 -18.667 7 -41.167 9 -67.5s3 -53.5 3 -81.5s-1 -55.167 -3 -81.5s-5 -48.833 -9 -67.5c33.333 40.667 59.166 86.167 77.499 136.5
s32.833 104.166 43.5 161.499c19.333 4 44.333 6 75 6c14 0 27.833 -0.5 41.5 -1.5s25.167 -2.5 34.5 -4.5c2 -12.667 3.16699 -24.667 3.5 -36s0.5 -23 0.5 -35c0 -42 -6.83301 -80.667 -20.5 -116s-33.5 -65 -59.5 -89c16 -13.333 29.5 -29.666 40.5 -48.999
s19.833 -40.5 26.5 -63.5s11.5 -47.333 14.5 -73s4.5 -51.167 4.5 -76.5c0 -21.333 -1 -41.833 -3 -61.5s-4.33301 -38.167 -7 -55.5c1.33301 -3.33301 2 -6.83301 2 -10.5v-12.5v-13.5c0 -4.33301 -0.666992 -7.83301 -2 -10.5z" />
    <glyph glyph-name="L" unicode="L" horiz-adv-x="394" 
d="M55 0c-10 44 -17.333 96.999 -22 158.999s-7 126 -7 192s2.33301 130 7 192s12 115 22 159c19.333 4 44.333 6 75 6c14 0 27.833 -0.5 41.5 -1.5s25.167 -2.5 34.5 -4.5c8 -35.333 13.833 -78.166 17.5 -128.499s5.5 -102.166 5.5 -155.499s-1.83301 -105.333 -5.5 -156
s-9.5 -93.667 -17.5 -129c12 2.66699 26.333 4.5 43 5.5s33.667 1.5 51 1.5s34.333 -0.5 51 -1.5s31 -2.83301 43 -5.5c2 -8 3.33301 -18 4 -30s1 -24.333 1 -37s-0.333008 -24.834 -1 -36.501s-2 -21.5 -4 -29.5c-21.333 -5.33301 -47 -9 -77 -11s-61 -3 -93 -3
s-63 1 -93 3s-55.333 5.66699 -76 11z" />
    <glyph glyph-name="M" unicode="M" horiz-adv-x="798" 
d="M745 0c-9.33301 -2 -20.8271 -3.5 -34.4941 -4.5s-27.5 -1.5 -41.5 -1.5s-27.833 0.5 -41.5 1.5s-25.167 2.5 -34.5 4.5c-8 34.667 -13.833 76.834 -17.5 126.501s-5.5 100.834 -5.5 153.501s1.83301 103.834 5.5 153.501s9.5 92.167 17.5 127.5
c-23.333 -30 -41.833 -56.5 -55.5 -79.5s-24.667 -45 -33 -66s-14.5 -42 -18.5 -63s-8 -44.167 -12 -69.5c4 -18 7 -39.333 9 -64s3 -50.334 3 -77.001s-1 -52.5 -3 -77.5s-5 -46.5 -9 -64.5c-9.33301 -2 -20.5 -3.5 -33.5 -4.5s-26.5 -1.5 -40.5 -1.5
s-27.833 0.5 -41.5 1.5s-24.834 2.5 -33.501 4.5c-4 18 -7 39.5 -9 64.5s-3 50.833 -3 77.5s1 52.334 3 77.001s5 46 9 64c-4 26 -8 49.5 -12 70.5s-10.167 41.833 -18.5 62.5s-19.5 42.5 -33.5 65.5s-32.333 49.5 -55 79.5c8 -35.333 13.833 -77.833 17.5 -127.5
s5.5 -100.834 5.5 -153.501s-1.83301 -103.834 -5.5 -153.501s-9.5 -91.834 -17.5 -126.501c-9.33301 -2 -20.833 -3.5 -34.5 -4.5s-27.5 -1.5 -41.5 -1.5c-30.667 0 -55.667 2 -75 6c-10 44 -17.333 97 -22 159s-7 126 -7 192s2.33301 130 7 192s12 115 22 159
c13.333 2.66699 29.666 4.83398 48.999 6.50098s39 2.5 59 2.5s39.667 -0.833008 59 -2.5s35.666 -3.83398 48.999 -6.50098c28 -17.333 52.333 -43.333 73 -78s39 -83.667 55 -147c15.333 62 33.666 110.5 54.999 145.5s46.333 61.5 75 79.5
c13.333 2.66699 29.666 4.83398 48.999 6.50098s39 2.5 59 2.5s39.667 -0.833008 59 -2.5s35.666 -3.83398 48.999 -6.50098c10 -44 17.333 -97 22 -159s7 -126 7 -192s-2.33301 -130 -7 -192s-12 -115 -22 -159z" />
    <glyph glyph-name="N" unicode="N" horiz-adv-x="530" 
d="M55 0c-10 44 -17.332 97.002 -21.999 159.002s-7 126 -7 192s2.33301 130 7 192s12 115 22 159c18 4 41.333 6 70 6s52 -2 70 -6c11.333 -8.66699 22.166 -19.5 32.499 -32.5s20.666 -29.333 30.999 -49s20.833 -43.334 31.5 -71.001s22.334 -60.5 35.001 -98.5
c-7.33301 33.333 -11 75 -11 125c0 23.333 1 46.166 3 68.499s4.66699 41.5 8 57.5c8.66699 2 19.834 3.5 33.501 4.5s27.5 1.5 41.5 1.5s27.5 -0.5 40.5 -1.5s24.167 -2.5 33.5 -4.5c10 -44 17.333 -97 22 -159s7 -126 7 -192s-2.33301 -130 -7 -192s-12 -115 -22 -159
c-9.33301 -2 -20.5 -3.5 -33.5 -4.5s-26.5 -1.5 -40.5 -1.5s-27.833 0.5 -41.5 1.5s-24.834 2.5 -33.501 4.5c-4 17.333 -6 40 -6 68c0 28.667 2 51.667 6 69c-5.33301 28 -11.333 55.833 -18 83.5s-14.5 56.5 -23.5 86.5s-19.833 61.833 -32.5 95.5s-27.667 70.5 -45 110.5
c6.66699 -32 11.834 -70.833 15.501 -116.5s5.5 -92.5 5.5 -140.5s-1.83301 -94.667 -5.5 -140s-8.83398 -84 -15.501 -116c-9.33301 -2 -20.833 -3.5 -34.5 -4.5s-27.5 -1.5 -41.5 -1.5c-30.667 0 -55.667 2 -75 6z" />
    <glyph glyph-name="O" unicode="O" horiz-adv-x="519" 
d="M199 517c4.66699 -20.667 7.99902 -45.6689 9.99902 -75.002s3 -59.666 3 -90.999s-1 -61.666 -3 -90.999s-5.33301 -54.333 -10 -75c1.33301 -22.667 6.83301 -38.667 16.5 -48s24.167 -14 43.5 -14c20.667 0 35.167 5.16699 43.5 15.5s13.5 27.833 15.5 52.5
c-4.66699 20 -8.16699 44.333 -10.5 73s-3.5 58 -3.5 88s1.16699 59.167 3.5 87.5s5.83301 52.5 10.5 72.5c-2 24 -7.33301 41.167 -16 51.5s-23 15.5 -43 15.5s-34.667 -4.83301 -44 -14.5s-14.666 -25.5 -15.999 -47.5zM46.999 226.998c-3.33301 15.333 -6 34 -8 56
s-3 44.667 -3 68s1 46 3 68s4.66699 40.667 8 56c-0.666992 8.66699 -1.16699 17 -1.5 25s-0.5 15.667 -0.5 23c0 68.667 13.667 117.5 41 146.5s72 43.5 134 43.5c6 0 12.167 -0.166992 18.5 -0.5s13.166 -0.833008 20.499 -1.5
c7.33301 0.666992 14.166 1.16699 20.499 1.5s12.5 0.5 18.5 0.5c62 0 106.833 -14.5 134.5 -43.5s41.5 -77.833 41.5 -146.5c0 -7.33301 -0.166992 -15 -0.5 -23s-0.833008 -16.333 -1.5 -25c3.33301 -15.333 5.83301 -34 7.5 -56s2.5 -44.667 2.5 -68
s-0.833008 -46 -2.5 -68s-4.16699 -40.667 -7.5 -56c0.666992 -8.66699 1.16699 -16.834 1.5 -24.501s0.5 -15.167 0.5 -22.5c0 -69.333 -13.833 -118.5 -41.5 -147.5s-72.5 -43.5 -134.5 -43.5c-6 0 -12.167 0.166992 -18.5 0.5s-13.166 0.833008 -20.499 1.5
c-7.33301 -0.666992 -14.166 -1.16699 -20.499 -1.5s-12.5 -0.5 -18.5 -0.5c-61.333 0 -105.833 14.5 -133.5 43.5s-41.5 78.167 -41.5 147.5c0 7.33301 0.166992 14.833 0.5 22.5s0.833008 15.834 1.5 24.501z" />
    <glyph glyph-name="P" unicode="P" horiz-adv-x="516" 
d="M204 321c9.33301 0 19 -0.501953 29 -1.50195s20.333 -2.16699 31 -3.5c22.667 2 39 12.667 49 32s16.667 52.333 20 99c-3.33301 42.667 -11.333 73.167 -24 91.5s-34.667 28.833 -66 31.5c-13.333 -2.66699 -26.333 -2.66699 -39 0
c3.33301 -15.333 5.83301 -34 7.5 -56s2.5 -44.667 2.5 -68s-0.833008 -46.166 -2.5 -68.499s-4.16699 -41.166 -7.5 -56.499zM57 -0.00195312c-10 44 -17.333 97.002 -22 159.002s-7 126 -7 192s2.33301 130 7 192s12 115 22 159c12 2.66699 26.667 4.66699 44 6
s35.333 2 54 2s36.667 -0.666992 54 -2s32 -3.33301 44 -6c7.33301 0.666992 14.166 1.16699 20.499 1.5s12.833 0.5 19.5 0.5c66.667 0 115.334 -16 146.001 -48s46 -85.333 46 -160c0 -7.33301 -0.166992 -14.833 -0.5 -22.5s-0.833008 -15.834 -1.5 -24.501
c0.666992 -8 1.16699 -15.833 1.5 -23.5s0.5 -14.834 0.5 -21.501c0 -70 -14.833 -123.333 -44.5 -160s-74.5 -55 -134.5 -55h-11.5c-3.66699 0 -7.5 0.333008 -11.5 1c-4.66699 -0.666992 -9 -1.16699 -13 -1.5s-8.33301 -0.5 -13 -0.5c-17.333 0 -35 2.66699 -53 8
c2.66699 -12 4.66699 -26.667 6 -44s2 -35.333 2 -54s-0.666992 -36.667 -2 -54s-3.33301 -32 -6 -44c-9.33301 -2 -20.5 -3.5 -33.5 -4.5s-26.5 -1.5 -40.5 -1.5c-30.667 0 -55 2 -73 6z" />
    <glyph glyph-name="Q" unicode="Q" horiz-adv-x="519" 
d="M199 517c4.66699 -20.667 7.99902 -45.6689 9.99902 -75.002s3 -59.666 3 -90.999s-1 -61.666 -3 -90.999s-5.33301 -54.333 -10 -75c1.33301 -22.667 6.83301 -38.667 16.5 -48s24.167 -14 43.5 -14c20.667 0 35.167 5.16699 43.5 15.5s13.5 27.833 15.5 52.5
c-4.66699 20 -8.16699 44.333 -10.5 73s-3.5 58 -3.5 88s1.16699 59.167 3.5 87.5s5.83301 52.5 10.5 72.5c-2 24 -7.33301 41 -16 51s-23 15 -43 15s-34.667 -4.66699 -44 -14s-14.666 -25 -15.999 -47zM46.999 226.998c-3.33301 15.333 -5.99805 34 -7.99805 56
s-3 44.667 -3 68s1 46 3 68s4.66699 40.667 8 56c-0.666992 8.66699 -1.16699 17 -1.5 25s-0.5 15.667 -0.5 23c0 68.667 13.667 117.334 41 146.001s71.666 43 132.999 43c6 0 12.333 -0.166992 19 -0.5s13.667 -0.833008 21 -1.5
c7.33301 0.666992 14.166 1.16699 20.499 1.5s12.833 0.5 19.5 0.5c62 0 106.667 -14.333 134 -43s41 -77.334 41 -146.001c0 -7.33301 -0.166992 -15 -0.5 -23s-0.833008 -16.333 -1.5 -25c3.33301 -15.333 5.83301 -34 7.5 -56s2.5 -44.667 2.5 -68
s-0.833008 -46 -2.5 -68s-4.16699 -40.667 -7.5 -56c2 -22 3 -42 3 -60c0 -32.667 -3.33301 -58 -10 -76s-16.334 -30.333 -29.001 -37c8 -1.33301 18.333 -4.66602 31 -9.99902s22.334 -10.666 29.001 -15.999c-5.33301 -12.667 -14.333 -27.834 -27 -45.501
s-24 -30.834 -34 -39.501c-15.333 3.33301 -34.333 10.5 -57 21.5s-40.334 21.167 -53.001 30.5c-14 -4 -26.667 -6 -38 -6c-4 0 -8.33301 0.166992 -13 0.5s-9.66699 0.833008 -15 1.5c-7.33301 -0.666992 -14.333 -1.16699 -21 -1.5s-13 -0.5 -19 -0.5
c-61.333 0 -105.666 14.333 -132.999 43s-41 77.667 -41 147c0 7.33301 0.166992 15 0.5 23s0.833008 16.333 1.5 25z" />
    <glyph glyph-name="R" unicode="R" horiz-adv-x="533" 
d="M204 444c9.33301 -1.33301 19.001 -2.8291 29.001 -4.49609s19.667 -3.16699 29 -4.5c25.333 2 43.333 8.66699 54 20s17 29.666 19 54.999c-2.66699 26.667 -12.5 44.334 -29.5 53.001s-42.167 13 -75.5 13h-15c-4.66699 0 -8.33398 0.666992 -11.001 2
c2 -8.66699 3.33301 -18.834 4 -30.501s1 -23.834 1 -36.501s-0.333008 -24.834 -1 -36.501s-2 -21.834 -4 -30.501zM60.001 0.00390625c-10 44 -17.3379 96.998 -22.0049 158.998s-7 126 -7 192s2.33301 130 7 192s12 115 22 159c12.667 2.66699 27.834 4.66699 45.501 6
s36.167 2 55.5 2s37.833 -0.666992 55.5 -2s32.834 -3.33301 45.501 -6c6.66699 0.666992 12.834 1 18.501 1h17.5c62 0 108.833 -14.167 140.5 -42.5s47.5 -71.833 47.5 -130.5v-13.5c0 -4.33301 -0.333008 -8.83301 -1 -13.5c0.666992 -4 1.16699 -8 1.5 -12
s0.5 -8 0.5 -12c0 -26 -6.83301 -51 -20.5 -75s-34.5 -43.333 -62.5 -58c36.667 -47.333 63.667 -99.166 81 -155.499s26 -108.833 26 -157.5v-16.5c0 -5.66699 -0.333008 -11.167 -1 -16.5c-10 -2 -21.833 -3.66699 -35.5 -5s-28.167 -2 -43.5 -2s-29.833 0.666992 -43.5 2
s-25.5 3 -35.5 5c-11.333 52 -23.166 102 -35.499 150s-27.833 103.333 -46.5 166c-20.667 -3.33301 -40.667 -1.66602 -60 5.00098c4.66699 -20 8.16699 -44.333 10.5 -73s3.5 -58 3.5 -88s-1.16699 -59.167 -3.5 -87.5s-5.83301 -52.5 -10.5 -72.5
c-9.33301 -2 -20.666 -3.5 -33.999 -4.5s-27 -1.5 -41 -1.5c-30.667 0 -55.667 2 -75 6z" />
    <glyph glyph-name="S" unicode="S" horiz-adv-x="509" 
d="M461 473c-8.66699 -2 -18.999 -3.33887 -30.999 -4.00586s-24.333 -1 -37 -1s-25 0.333008 -37 1s-22.333 2 -31 4c-0.666992 2.66699 -1 5.83398 -1 9.50098v11.5c0 22.667 -4.16699 41.667 -12.5 57s-26.833 24.333 -55.5 27c-18 -1.33301 -32.5 -6 -43.5 -14
s-16.833 -16 -17.5 -24c4 -5.33301 21.667 -21.666 53 -48.999s71.666 -60.333 120.999 -99c34 -17.333 59.167 -38.666 75.5 -63.999s24.5 -57.333 24.5 -96c0 -6 -0.166992 -12 -0.5 -18s-0.833008 -12.333 -1.5 -19c0.666992 -4.66699 1 -9.66699 1 -15v-15
c0 -60 -15 -104.167 -45 -132.5s-74.667 -42.5 -134 -42.5h-17c-6 0 -12 0.333008 -18 1c-6.66699 -0.666992 -13.167 -1.16699 -19.5 -1.5s-12.5 -0.5 -18.5 -0.5c-60.667 0 -105.167 13.833 -133.5 41.5s-42.5 71.834 -42.5 132.501v15.5
c0 5.66699 0.333008 11.167 1 16.5c-0.666992 4.66699 -1.5 10.834 -2.5 18.501s-1.5 15.5 -1.5 23.5s0.5 15.833 1.5 23.5s1.83301 13.834 2.5 18.501c20 4 45.667 6 77 6s57 -2 77 -6c2 -10 3 -23 3 -39s-1 -29 -3 -39c2 -23.333 7.5 -42.166 16.5 -56.499
s23.833 -21.5 44.5 -21.5c18.667 0 33 5.66699 43 17s15.667 23.333 17 36c-2 10.667 -5.66699 21 -11 31s-13 20.5 -23 31.5s-22.333 23.333 -37 37l-53 49.5c-49.333 28 -87 57.833 -113 89.5s-39 64.834 -39 99.501c0 3.33301 0.166992 7 0.5 11s0.833008 7.66699 1.5 11
c-0.666992 4 -1 7.83301 -1 11.5v10.5c0 52 15.167 91 45.5 117s74.166 39 131.499 39c5.33301 0 11.166 -0.166992 17.499 -0.5s12.5 -0.833008 18.5 -1.5c6.66699 0.666992 13.334 1 20.001 1h20c58.667 0 101.334 -12.167 128.001 -36.5s40 -65.5 40 -123.5v-16.5
c0 -5.66699 -0.333008 -11.5 -1 -17.5c0.666992 -3.33301 1.16699 -6.83301 1.5 -10.5s0.5 -7.83398 0.5 -12.501s-0.166992 -8.83398 -0.5 -12.501s-0.833008 -7.16699 -1.5 -10.5z" />
    <glyph glyph-name="T" unicode="T" horiz-adv-x="401" 
d="M124 574c-6.66699 -1.33301 -14.5 -2.33301 -23.5 -3s-18.5 -1 -28.5 -1s-19.667 0.333008 -29 1s-17.333 1.66699 -24 3c-2 8 -3.33301 17.667 -4 29s-1 23 -1 35s0.333008 23.667 1 35s2 21 4 29c23.333 5.33301 50.833 9.16602 82.5 11.499s64.5 3.5 98.5 3.5
s66.833 -1.16699 98.5 -3.5s59.167 -6.16602 82.5 -11.499c2 -8 3.33301 -17.667 4 -29s1 -23 1 -35s-0.333008 -23.667 -1 -35s-2 -21 -4 -29c-7.33301 -1.33301 -15.5 -2.33301 -24.5 -3s-18.5 -1 -28.5 -1s-19.5 0.333008 -28.5 1s-17.167 1.66699 -24.5 3
c8 -36 14 -79.333 18 -130s6 -103 6 -157s-2 -106.333 -6 -157s-10 -94 -18 -130c-19.333 -4 -44.333 -6 -75 -6c-14 0 -27.833 0.5 -41.5 1.5s-25.167 2.5 -34.5 4.5c-8 36 -14 79.333 -18 130s-6 103 -6 157s2 106.333 6 157s10 94 18 130z" />
    <glyph glyph-name="U" unicode="U" horiz-adv-x="525" 
d="M202 702c6.66699 -32 11.832 -70.8311 15.499 -116.498s5.5 -92.834 5.5 -141.501s-1.83301 -96 -5.5 -142s-8.83398 -85 -15.501 -117c1.33301 -22.667 6.66602 -38.667 15.999 -48s23.666 -14 42.999 -14s34 5.16699 44 15.5s16 29.833 18 58.5
c-7.33301 31.333 -12.666 69.5 -15.999 114.5s-5 91.167 -5 138.5s1.66699 93.333 5 138s8.66602 82.667 15.999 114c8.66699 2 19.834 3.5 33.501 4.5s27.5 1.5 41.5 1.5s27.833 -0.5 41.5 -1.5s24.834 -2.5 33.501 -4.5c6.66699 -30 11.5 -66 14.5 -108
s4.5 -85.333 4.5 -130s-1.5 -87.834 -4.5 -129.501s-7.83301 -77.5 -14.5 -107.5c0.666992 -8.66699 1.16699 -16.834 1.5 -24.501s0.5 -15.167 0.5 -22.5c0 -69.333 -13.833 -118.5 -41.5 -147.5s-72.167 -43.5 -133.5 -43.5c-6 0 -12.167 0.166992 -18.5 0.5
s-13.166 0.833008 -20.499 1.5c-7.33301 -0.666992 -14.166 -1.16699 -20.499 -1.5s-12.5 -0.5 -18.5 -0.5c-61.333 0 -105.5 14.333 -132.5 43s-40.5 77.667 -40.5 147c0 7.33301 0.166992 15 0.5 23s0.833008 16.333 1.5 25c-6.66699 30 -11.5 65.833 -14.5 107.5
s-4.5 84.834 -4.5 129.501s1.5 88 4.5 130s7.83301 78 14.5 108c19.333 4 44.333 6 75 6c14 0 27.833 -0.5 41.5 -1.5s25.167 -2.5 34.5 -4.5z" />
    <glyph glyph-name="V" unicode="V" horiz-adv-x="480" 
d="M30 702c9.33301 2 20.8379 3.49902 34.5049 4.49902s27.5 1.5 41.5 1.5c30.667 0 55.667 -2 75 -6c3.33301 -13.333 5.5 -29 6.5 -47s1.5 -36.333 1.5 -55s-0.5 -37 -1.5 -55s-3.16699 -33.333 -6.5 -46c2 -14 3 -27.667 3 -41s-1 -26 -3 -38
c4.66699 -28 8.66699 -54 12 -78s7 -48.333 11 -73s8.66699 -50.5 14 -77.5s12.666 -57.167 21.999 -90.5c9.33301 33.333 16.833 63.666 22.5 90.999s10.5 53.333 14.5 78s7.66699 49 11 73s7.33301 50 12 78c-2 12 -3 24.333 -3 37c0 13.333 1 27 3 41
c-2.66699 12.667 -4.66699 28 -6 46s-2 36.333 -2 55s0.666992 37 2 55s3.33301 33.667 6 47c9.33301 2 20.666 3.5 33.999 4.5s27 1.5 41 1.5c30.667 0 55.667 -2 75 -6c2.66699 -13.333 4.83398 -29.333 6.50098 -48s2.5 -38 2.5 -58s-0.833008 -39.667 -2.5 -59
s-3.83398 -35.333 -6.50098 -48c3.33301 -27.333 6.16602 -53.666 8.49902 -78.999s3.5 -49.666 3.5 -72.999c0 -65.333 -10 -125.5 -30 -180.5s-56 -107.167 -108 -156.5c-10.667 -2 -23.334 -3.66699 -38.001 -5s-30 -2 -46 -2s-31.5 0.666992 -46.5 2s-27.833 3 -38.5 5
c-51.333 50 -87 102.167 -107 156.5s-30 113.833 -30 178.5c0 24 1.16699 48.833 3.5 74.5s5.16602 52.167 8.49902 79.5c-2.66699 12.667 -4.83398 28.667 -6.50098 48s-2.5 39 -2.5 59s0.833008 39.333 2.5 58s3.83398 34.667 6.50098 48z" />
    <glyph glyph-name="W" unicode="W" horiz-adv-x="749" 
d="M593 0c-18 -4 -40.9932 -6.00195 -68.9932 -6.00195c-28.667 0 -52 2 -70 6c-18.667 21.333 -34 46.166 -46 74.499s-22.667 67.166 -32 116.499c-10.667 -48.667 -22.334 -87.667 -35.001 -117s-28 -54 -46 -74c-18 -4 -41.333 -6 -70 -6s-52 2 -70 6
c-51.333 50 -87 102.167 -107 156.5s-30 113.833 -30 178.5c0 24 1.16699 48.833 3.5 74.5s5.16602 52.167 8.49902 79.5c-2.66699 12.667 -4.83398 28.667 -6.50098 48s-2.5 39 -2.5 59s0.833008 39.333 2.5 58s3.83398 34.667 6.50098 48c9.33301 2 20.5 3.5 33.5 4.5
s26.5 1.5 40.5 1.5s27.5 -0.5 40.5 -1.5s24.167 -2.5 33.5 -4.5c2.66699 -13.333 4.66699 -29 6 -47s2 -36.333 2 -55s-0.666992 -37 -2 -55s-3.33301 -33.333 -6 -46c1.33301 -8 2.33301 -15.5 3 -22.5s1 -14.167 1 -21.5s-0.333008 -14.333 -1 -21
s-1.66699 -13.334 -3 -20.001l11 -75.5c3.33301 -23.667 7 -47.5 11 -71.5s9 -49.167 15 -75.5s14 -55.833 24 -88.5c10 32.667 18 62.167 24 88.5s11.167 51.666 15.5 75.999s8.16602 48.333 11.499 72l11 76.5c-0.666992 6.66699 -1.5 13.334 -2.5 20.001
s-1.5 13.334 -1.5 20.001s0.5 13.5 1.5 20.5s1.83301 14.5 2.5 22.5c-3.33301 12.667 -5.5 28 -6.5 46s-1.5 36.333 -1.5 55s0.5 37 1.5 55s3.16699 33.667 6.5 47c8.66699 2 19.667 3.5 33 4.5s26.666 1.5 39.999 1.5s26.666 -0.5 39.999 -1.5s24.333 -2.5 33 -4.5
c3.33301 -13.333 5.5 -29 6.5 -47s1.5 -36.333 1.5 -55s-0.5 -37 -1.5 -55s-3.16699 -33.333 -6.5 -46c0.666992 -4.66699 1.16699 -9.33398 1.5 -14.001s0.5 -9.66699 0.5 -15s-0.166992 -10.166 -0.5 -14.499s-0.833008 -8.83301 -1.5 -13.5
c4.66699 -29.333 8.66699 -57.166 12 -83.499s7.16602 -52.666 11.499 -78.999s9.33301 -53.833 15 -82.5s13.5 -60 23.5 -94c10 33.333 18 63.5 24 90.5s11 52.833 15 77.5s7.66699 49.167 11 73.5s7.33301 50.5 12 78.5c-2 12 -3 24.333 -3 37c0 12 1 25 3 39
c-3.33301 12.667 -5.5 28 -6.5 46s-1.5 36.333 -1.5 55s0.5 37 1.5 55s3.16699 33.667 6.5 47c8.66699 2 19.667 3.5 33 4.5s27 1.5 41 1.5s27.667 -0.5 41 -1.5s24.333 -2.5 33 -4.5c3.33301 -13.333 5.66602 -29.333 6.99902 -48s2 -38 2 -58s-0.666992 -39.667 -2 -59
s-3.66602 -35.333 -6.99902 -48c3.33301 -27.333 6.16602 -53.666 8.49902 -78.999s3.5 -49.666 3.5 -72.999c0 -65.333 -10 -125.5 -30 -180.5s-56 -107.167 -108 -156.5z" />
    <glyph glyph-name="X" unicode="X" horiz-adv-x="510" 
d="M42 702c9.33301 2 20.666 3.5 33.999 4.5s27 1.5 41 1.5c30.667 0 55.667 -2 75 -6c1.33301 -6.66699 1.33301 -13.667 0 -21c4 -39.333 8.33301 -73.833 13 -103.5s9.5 -56.667 14.5 -81s10.333 -46.833 16 -67.5s11.834 -41.667 18.501 -63l-18.5 -82.5
c-5.66699 -24.333 -11 -49.166 -16 -74.499s-9.66699 -52.833 -14 -82.5s-8.83301 -64.834 -13.5 -105.501c2.66699 -12 -1 -19.5 -11 -22.5s-21.667 -4.5 -35 -4.5h-29c-30.667 0 -55.667 2 -75 6c-1.33301 6.66699 -1.33301 13.334 0 20.001
c-2 21.333 -3.66699 41.333 -5 60s-2 36.334 -2 53.001c0 59.333 6.5 108.666 19.5 147.999s31.167 75.666 54.5 108.999c-18.667 22.667 -35.167 52.667 -49.5 90s-21.5 83 -21.5 137c0 10 0.333008 20.333 1 31s1.66699 21.667 3 33
c-1.33301 6.66699 -1.33301 13.667 0 21zM468 702c2 -9.33301 3.16602 -19.501 3.49902 -30.501s0.5 -21.5 0.5 -31.5v-23c0 -54 -7.16699 -99.667 -21.5 -137s-30.833 -67.333 -49.5 -90c23.333 -33.333 41.5 -69.666 54.5 -108.999s19.5 -88.666 19.5 -147.999
c0 -16.667 -0.666992 -34.334 -2 -53.001s-3 -38.667 -5 -60c2 -11.333 -1.83301 -18.5 -11.5 -21.5s-21.167 -4.5 -34.5 -4.5h-29c-30.667 0 -55.667 2 -75 6c-1.33301 6.66699 -1.33301 13.667 0 21c-4.66699 40.667 -9.16699 75.834 -13.5 105.501s-9 57.167 -14 82.5
s-10.333 50.166 -16 74.499l-18.5 82.5c6.66699 21.333 12.834 42.333 18.501 63s11 43.167 16 67.5s9.83301 51.333 14.5 81s9 64.167 13 103.5c-2.66699 12 1 19.5 11 22.5s21.667 4.5 35 4.5h29c30.667 0 55.667 -2 75 -6z" />
    <glyph glyph-name="Y" unicode="Y" horiz-adv-x="431" 
d="M140 0c-2.66699 12 -4.66895 26.834 -6.00195 44.501s-2 35.5 -2 53.5s0.666992 35.667 2 53s3.33301 32 6 44c-46 51.333 -81 109.666 -105 174.999s-36 136 -36 212c0 17.333 0.5 34.666 1.5 51.999s2.83301 35 5.5 53c-2.66699 9.33301 1.83301 15.166 13.5 17.499
s24.167 3.5 37.5 3.5h25c30.667 0 55.667 -2 75 -6l32.5 -227c9 -65.333 18.5 -118.666 28.5 -159.999c8.66699 42.667 17.5 96.334 26.5 161.001l31.5 226c9.33301 2 20.5 3.5 33.5 4.5s26.5 1.5 40.5 1.5s27.833 -0.5 41.5 -1.5s24.834 -2.5 33.501 -4.5
c3.33301 -12 5.33301 -26 6 -42s1 -31.667 1 -47v-39c0 -72 -12.167 -140.5 -36.5 -205.5s-59.166 -122.833 -104.499 -173.5c3.33301 -12 5.5 -26.667 6.5 -44s1.5 -35 1.5 -53s-0.5 -35.833 -1.5 -53.5s-3.16699 -32.5 -6.5 -44.5c-19.333 -4 -44.333 -6 -75 -6
c-14 0 -27.833 0.5 -41.5 1.5s-25.167 2.5 -34.5 4.5z" />
    <glyph glyph-name="Z" unicode="Z" horiz-adv-x="423" 
d="M238 568c-13.333 -2.66699 -29.1719 -4.67578 -47.5049 -6.00879s-37.166 -2 -56.499 -2s-38.166 0.666992 -56.499 2s-34.166 3.33301 -47.499 6c-2 8.66699 -3.33301 18.834 -4 30.501s-1 23.834 -1 36.501s0.333008 24.834 1 36.501s2 21.834 4 30.501
c22.667 5.33301 50.334 9.16602 83.001 11.499s66.334 3.5 101.001 3.5s68.334 -1.16699 101.001 -3.5s60.334 -6.16602 83.001 -11.499c2 -8.66699 3.5 -19.5 4.5 -32.5s1.5 -26.5 1.5 -40.5c0 -12.667 -0.5 -25 -1.5 -37s-2.5 -22.333 -4.5 -31
c-8 -30 -20.333 -64.667 -37 -104s-35.334 -79.166 -56.001 -119.499s-42.334 -78.666 -65.001 -114.999s-44 -66.166 -64 -89.499c13.333 3.33301 29.333 5.66602 48 6.99902s38 2 58 2s39.667 -0.666992 59 -2s35.333 -3.66602 48 -6.99902c2 -8 3.33301 -18 4 -30
s1 -24.333 1 -37s-0.333008 -24.834 -1 -36.501s-2 -21.5 -4 -29.5c-24 -5.33301 -52.833 -9.33301 -86.5 -12s-68.5 -4 -104.5 -4s-71 1.33301 -105 4s-63 6.66699 -87 12c-2 7.33301 -3.5 16.833 -4.5 28.5s-1.5 23.834 -1.5 36.501c0 24.667 2 44.667 6 60
c8 31.333 20.833 67.333 38.5 108s37.5 81.834 59.5 123.501s44.833 81.334 68.5 119.001s45.5 68.5 65.5 92.5z" />
    <glyph glyph-name="bracketleft" unicode="[" horiz-adv-x="300" 
d="M55 -60c-10.667 47.333 -18.501 104.831 -23.501 172.498s-7.5 137.167 -7.5 208.5s2.5 140.833 7.5 208.5s12.833 125.167 23.5 172.5c16 3.33301 35.167 5.83301 57.5 7.5s45.5 2.5 69.5 2.5s47.167 -0.833008 69.5 -2.5s41.5 -4.16699 57.5 -7.5
c2 -10 3 -23.333 3 -40c0 -20 -2.5 -32.333 -7.5 -37s-13.833 -7 -26.5 -7h-25c-10.667 0 -20.834 0.333008 -30.501 1s-18.167 1.66699 -25.5 3c8 -37.333 14.167 -82.666 18.5 -135.999s6.5 -108.333 6.5 -165s-2.16699 -111.667 -6.5 -165s-10.5 -98.666 -18.5 -135.999
c7.33301 1.33301 15.833 2.33301 25.5 3s19.834 1 30.501 1s20.834 -0.333008 30.501 -1s18.167 -1.66699 25.5 -3c2 -10 3 -23.333 3 -40s-1 -30 -3 -40c-16 -3.33301 -35.167 -5.83301 -57.5 -7.5s-45.5 -2.5 -69.5 -2.5s-47.167 0.833008 -69.5 2.5
s-41.5 4.16699 -57.5 7.5z" />
    <glyph glyph-name="backslash" unicode="\" horiz-adv-x="315" 
d="M41 710c22 -30.667 45 -66.5 69 -107.5s47.833 -85.333 71.5 -133s46.5 -96.834 68.5 -147.501s42.333 -100.834 61 -150.501s35 -97.334 49 -143.001s24.667 -86.834 32 -123.501c-10 -2 -22.667 -3 -38 -3c-16 0 -29 1 -39 3c-22 30.667 -45 66.5 -69 107.5
s-47.833 85.333 -71.5 133s-46.5 96.834 -68.5 147.501s-42.333 100.834 -61 150.501s-35 97.334 -49 143.001s-24.667 86.834 -32 123.501c10 2 22.667 3 38 3c16 0 29 -1 39 -3z" />
    <glyph glyph-name="bracketright" unicode="]" horiz-adv-x="300" 
d="M244 702c10.667 -47.333 18.668 -104.831 24.001 -172.498s8 -137.167 8 -208.5s-2.66699 -140.833 -8 -208.5s-13.333 -125.167 -24 -172.5c-16 -3.33301 -35 -5.83301 -57 -7.5s-45 -2.5 -69 -2.5s-47.167 0.833008 -69.5 2.5s-41.5 4.16699 -57.5 7.5
c-2 10 -3 23.333 -3 40c0 20 2.5 32.333 7.5 37s13.833 7 26.5 7h25c10.667 0 20.834 -0.333008 30.501 -1s18.167 -1.66699 25.5 -3c-8 37.333 -14.167 82.666 -18.5 135.999s-6.5 108.333 -6.5 165s2.16699 111.667 6.5 165s10.5 98.666 18.5 135.999
c-7.33301 -1.33301 -15.833 -2.33301 -25.5 -3s-19.834 -1 -30.501 -1s-20.834 0.333008 -30.501 1s-18.167 1.66699 -25.5 3c-2 10 -3 23.333 -3 40s1 30 3 40c16 3.33301 35.167 5.83301 57.5 7.5s45.5 2.5 69.5 2.5s47 -0.833008 69 -2.5s41 -4.16699 57 -7.5z" />
    <glyph glyph-name="asciicircum" unicode="^" horiz-adv-x="720" 
d="M93 450c9.33301 20.667 22.3359 44.167 39.0029 70.5s35 52.5 55 78.5s40.167 50.667 60.5 74s39.166 42.333 56.499 57c6.66699 1.33301 15 2.33301 25 3s20.333 1 31 1s20.667 -0.333008 30 -1s17.666 -1.66699 24.999 -3c16.667 -14.667 35.334 -33.667 56.001 -57
s41 -48 61 -74s38.5 -52.167 55.5 -78.5s30.167 -49.833 39.5 -70.5c-6.66699 -1.33301 -14.5 -2.33301 -23.5 -3s-18.167 -1 -27.5 -1s-18.666 0.333008 -27.999 1s-17.333 1.66699 -24 3c-12.667 9.33301 -26.834 21.666 -42.501 36.999s-31.167 31.666 -46.5 48.999
s-29.5 34.666 -42.5 51.999s-23.5 33 -31.5 47c-8 -14 -18.5 -29.667 -31.5 -47s-27.333 -34.666 -43 -51.999s-31.334 -33.666 -47.001 -48.999s-29.834 -27.666 -42.501 -36.999c-6.66699 -1.33301 -14.5 -2.33301 -23.5 -3s-18.5 -1 -28.5 -1s-19.5 0.333008 -28.5 1
s-16.833 1.66699 -23.5 3z" />
    <glyph glyph-name="underscore" unicode="_" horiz-adv-x="512" 
d="M-6 -193c-1.33301 6.66699 -2.33301 14.5 -3 23.5s-1 18.167 -1 27.5s0.333008 18.666 1 27.999s1.66699 17.333 3 24c33.333 6.66699 73 12 119 16s93.667 6 143 6s97 -2 143 -6s85.667 -9.33301 119 -16c1.33301 -6.66699 2.33301 -14.667 3 -24s1 -18.666 1 -27.999
s-0.333008 -18.5 -1 -27.5s-1.66699 -16.833 -3 -23.5c-33.333 -7.33301 -73 -12.833 -119 -16.5s-93.667 -5.5 -143 -5.5s-97 1.83301 -143 5.5s-85.667 9.16699 -119 16.5z" />
    <glyph glyph-name="grave" unicode="`" horiz-adv-x="569" 
d="M173 765c14.667 3.33301 32.332 5 52.999 5c20 0 37.333 -1.66699 52 -5c4 -6 9.83301 -16 17.5 -30l23.5 -45c8 -16 15.167 -31.333 21.5 -46s10.166 -25.667 11.499 -33c-5.33301 -2 -11.5 -3.83301 -18.5 -5.5s-14.167 -2.5 -21.5 -2.5s-14.5 0.833008 -21.5 2.5
s-12.833 3.5 -17.5 5.5c-6 6 -14 15.833 -24 29.5s-20.167 28.5 -30.5 44.5s-19.666 31.333 -27.999 46s-14.166 26 -17.499 34zM-0.00195312 -223h1v-1h-1v1z" />
    <glyph glyph-name="a" unicode="a" horiz-adv-x="468" 
d="M175 427c-8 -2 -17.3369 -3.33008 -28.0039 -3.99707s-21.667 -1 -33 -1s-22.333 0.333008 -33 1s-20 2 -28 4c-0.666992 3.33301 -1 10 -1 20s0.333008 16.667 1 20c0 3.33301 -0.166992 6.83301 -0.5 10.5s-0.5 7.16699 -0.5 10.5c0 46.667 12 80.5 36 101.5
s61 31.5 111 31.5h16.5c5.66699 0 11.5 -0.333008 17.5 -1c6 0.666992 11.833 1 17.5 1h16.5c53.333 0 92.333 -11.333 117 -34s37 -60 37 -112c0 -32.667 2.83301 -70.5 8.5 -113.5s8.5 -89.5 8.5 -139.5c0 -42 -1.5 -82.5 -4.5 -121.5s-7.5 -72.5 -13.5 -100.5
c-8 -2 -17.833 -3.33301 -29.5 -4s-23.5 -1 -35.5 -1s-23.833 0.333008 -35.5 1s-21.5 2 -29.5 4c-1.33301 4 -2 8.66699 -2 14v16v15.5c0 5 0.666992 9.5 2 13.5c-26.667 -32.667 -48.5 -53.167 -65.5 -61.5s-35.833 -10.833 -56.5 -7.5
c-41.333 -2.66699 -73.333 5.83301 -96 25.5s-34 51.5 -34 95.5v10.5c0 3.66699 0.333008 7.5 1 11.5c-0.666992 6 -1.5 12.833 -2.5 20.5s-1.5 15.834 -1.5 24.501s0.5 17 1.5 25s1.83301 15 2.5 21c-0.666992 5.33301 -1 10.5 -1 15.5v14.5c0 29.333 4.5 53 13.5 71
s23.333 33.333 43 46s44.834 23.667 75.501 33s67.667 19.666 111 30.999c-2.66699 11.333 -4.5 21.666 -5.5 30.999s-2.66699 17.166 -5 23.499s-6.66602 11.166 -12.999 14.499s-16.166 5 -29.499 5s-23.166 -2 -29.499 -6s-11 -9.66699 -14 -17s-4.83301 -16 -5.5 -26
s-2 -21 -4 -33zM280.996 166.003c-2 10.667 -3.66699 23.3359 -5 38.0029s-2 29.667 -2 45s0.666992 30.333 2 45s3 27.334 5 38.001c-19.333 -12 -35.5 -22.833 -48.5 -32.5s-23.5 -19.334 -31.5 -29.001s-13.833 -19.834 -17.5 -30.501s-6.5 -23 -8.5 -37
c0.666992 -4.66699 1 -10.834 1 -18.501s-0.333008 -13.834 -1 -18.501c2 -23.333 7 -39.833 15 -49.5s20.667 -14.5 38 -14.5c18.667 0 31.667 4.83301 39 14.5s12 26.167 14 49.5z" />
    <glyph glyph-name="b" unicode="b" horiz-adv-x="481" 
d="M192 445c4 -17.333 6.83301 -38.333 8.5 -63s2.5 -50 2.5 -76s-0.833008 -51.5 -2.5 -76.5s-4.5 -46.167 -8.5 -63.5c2 -23.333 6.66699 -39.833 14 -49.5s20.333 -14.5 39 -14.5c17.333 0 30 4.83301 38 14.5s13 26.167 15 49.5c-4 17.333 -6.83301 38.5 -8.5 63.5
s-2.5 50.5 -2.5 76.5s0.833008 51.333 2.5 76s4.5 45.667 8.5 63c-2 23.333 -7 39.833 -15 49.5s-20.667 14.5 -38 14.5c-18.667 0 -31.667 -4.83301 -39 -14.5s-12 -26.167 -14 -49.5zM53 0c-10 44 -17.334 96.9951 -22.001 158.995s-7 126 -7 192s2.33301 130 7 192
s12 115 22 159c18 4 41 6 69 6c28.667 0 52 -2 70 -6c2 -9.33301 3.5 -20.333 4.5 -33s1.5 -25.667 1.5 -39s-0.5 -26.666 -1.5 -39.999s-2.5 -24.333 -4.5 -33c19.333 24.667 36 41.667 50 51s28.667 14 44 14c2.66699 0 5.83398 -0.166992 9.50098 -0.5
s7.16699 -0.833008 10.5 -1.5c56 2.66699 93 -7.66602 111 -30.999s27 -57.666 27 -102.999c0 -11.333 -0.333008 -23.5 -1 -36.5s-1.66699 -26.5 -3 -40.5c6.66699 -31.333 10 -69.666 10 -114.999s-3.33301 -83.666 -10 -114.999
c0.666992 -7.33301 1.16699 -14.5 1.5 -21.5s0.5 -13.833 0.5 -20.5c0 -57.333 -10.333 -96.833 -31 -118.5s-52.667 -30.834 -96 -27.501c-4.66699 -0.666992 -9 -1.16699 -13 -1.5s-8 -0.5 -12 -0.5c-18.667 0 -35.667 4.83301 -51 14.5s-34.333 27.5 -57 53.5
c1.33301 -3.33301 2 -7.66602 2 -12.999v-16c0 -14.667 -3.16699 -24 -9.5 -28s-14.833 -6 -25.5 -6c-4.66699 0 -9.5 0.166992 -14.5 0.5s-10.5 0.5 -16.5 0.5c-12 0 -23.833 0.333008 -35.5 1s-21.5 2 -29.5 4z" />
    <glyph glyph-name="c" unicode="c" horiz-adv-x="468" 
d="M431 424c0.666992 -4 1.16895 -8.5 1.50195 -13.5s0.5 -10.5 0.5 -16.5c0 -16.667 -3.83301 -27.167 -11.5 -31.5s-17.834 -6.5 -30.501 -6.5c-4.66699 0 -9.5 0.166992 -14.5 0.5s-10.5 0.5 -16.5 0.5c-28.667 0 -52 2 -70 6
c-1.33301 4.66699 -2.33301 10.834 -3 18.501s-1 15.167 -1 22.5s0.333008 14.833 1 22.5s1.66699 13.834 3 18.501c-2 23.333 -7.16699 39.833 -15.5 49.5s-20.833 14.5 -37.5 14.5c-18 0 -31 -4.83301 -39 -14.5s-13 -26.167 -15 -49.5c4 -17.333 6.83301 -38.333 8.5 -63
s2.5 -50 2.5 -76s-0.833008 -51.5 -2.5 -76.5s-4.5 -46.167 -8.5 -63.5c2 -23.333 7 -39.833 15 -49.5s21 -14.5 39 -14.5c22.667 0 36.5 6.66699 41.5 20s7.5 31.333 7.5 54v31c0 8 0.333008 15.5 1 22.5s1.66699 13.167 3 18.5c18 4 41.333 6 70 6
c5.33301 0 10.5 0.166992 15.5 0.5s9.83301 0.5 14.5 0.5c12.667 0 23 -2.16699 31 -6.5s12 -14.5 12 -30.5c0 -6 -0.166992 -11.667 -0.5 -17s-0.833008 -10 -1.5 -14c0.666992 -7.33301 1 -14.166 1 -20.499v-18.5c0 -58.667 -12 -99.834 -36 -123.501
s-63.667 -35.5 -119 -35.5c-6 0 -12.333 0.166992 -19 0.5s-13.667 0.833008 -21 1.5c-7.33301 -0.666992 -14.333 -1.16699 -21 -1.5s-13 -0.5 -19 -0.5c-56 0 -96 11.833 -120 35.5s-36 64.834 -36 123.501v18.5c0 6.33301 0.333008 13.166 1 20.499
c-2.66699 15.333 -5 33.5 -7 54.5s-3 42.5 -3 64.5s1 43.5 3 64.5s4.33301 38.833 7 53.5c-0.666992 6.66699 -1 13 -1 19v18c0 58.667 12.333 100.167 37 124.5s64.667 36.5 120 36.5c6 0 12.167 -0.166992 18.5 -0.5s13.166 -0.833008 20.499 -1.5
c7.33301 0.666992 14.333 1.16699 21 1.5s13 0.5 19 0.5c55.333 0 95 -11.833 119 -35.5s36 -64.834 36 -123.501v-19c0 -6.66699 -0.333008 -13.334 -1 -20.001z" />
    <glyph glyph-name="d" unicode="d" horiz-adv-x="481" 
d="M183 445c4 -17.333 6.83301 -38.333 8.5 -63s2.5 -50 2.5 -76s-0.833008 -51.5 -2.5 -76.5s-4.5 -46.167 -8.5 -63.5c2 -23.333 7 -39.833 15 -49.5s21 -14.5 39 -14.5c17.333 0 30 4.83301 38 14.5s13 26.167 15 49.5c-4 17.333 -6.83301 38.5 -8.5 63.5
s-2.5 50.5 -2.5 76.5s0.833008 51.333 2.5 76s4.5 45.667 8.5 63c-2 23.333 -7.16699 39.833 -15.5 49.5s-20.833 14.5 -37.5 14.5c-18 0 -31 -4.83301 -39 -14.5s-13 -26.167 -15 -49.5zM42 179c-6.66699 31.333 -9.99609 69.668 -9.99609 115.001
s3.33301 83.666 10 114.999c-1.33301 14.667 -2.33301 28.667 -3 42s-1 26 -1 38c0 22.667 2 42.5 6 59.5s11.167 31 21.5 42s24.5 19 42.5 24s41 6.83301 69 5.5c3.33301 0.666992 6.66602 1.16699 9.99902 1.5s6.66602 0.5 9.99902 0.5c15.333 0 29.833 -4.66699 43.5 -14
s30.167 -26.333 49.5 -51c-2 8.66699 -3.5 19.667 -4.5 33s-1.5 26.666 -1.5 39.999s0.5 26.333 1.5 39s2.5 23.667 4.5 33c18 4 41.333 6 70 6c28 0 51 -2 69 -6c10 -44 17.333 -97 22 -159s7 -126 7 -192s-2.33301 -130 -7 -192s-12 -115 -22 -159
c-8 -2 -17.833 -3.33301 -29.5 -4s-23.5 -1 -35.5 -1s-23.667 0.333008 -35 1s-21 2 -29 4c-1.33301 3.33301 -2 7.5 -2 12.5v15.5v15.5c0 5 0.666992 9.16699 2 12.5c-22.667 -25.333 -41.834 -42.833 -57.501 -52.5s-32.5 -14.5 -50.5 -14.5
c-4 0 -7.83301 0.166992 -11.5 0.5s-7.83398 0.833008 -12.501 1.5c-43.333 -3.33301 -75.5 5.83398 -96.5 27.501s-31.5 61.167 -31.5 118.5c0 6.66699 0.166992 13.5 0.5 20.5s0.833008 14.167 1.5 21.5z" />
    <glyph glyph-name="e" unicode="e" horiz-adv-x="473" 
d="M181 441c0.666992 -3.33301 1.16797 -6.83203 1.50098 -10.499s0.5 -7.83398 0.5 -12.501c0 -9.33301 1.16699 -15.666 3.5 -18.999s5.83301 -5 10.5 -5s10 0.666992 16 2s13.667 2 23 2s17.166 -0.666992 23.499 -2s11.833 -2 16.5 -2c5.33301 0 9 1.66699 11 5
s3 9.66602 3 18.999v12.5c0 3.66699 0.666992 7.16699 2 10.5c-2 24.667 -7.16699 42.167 -15.5 52.5s-21.5 15.5 -39.5 15.5c-18.667 0 -32.167 -5.16699 -40.5 -15.5s-13.5 -27.833 -15.5 -52.5zM431.001 424.001c4 -17.333 6 -40.3311 6 -68.998s-2 -51.667 -6 -69
c-16 -3.33301 -35 -5.83301 -57 -7.5s-44.667 -2.5 -68 -2.5s-46 0.833008 -68 2.5s-41 4.16699 -57 7.5c2 -7.33301 3.33301 -16.5 4 -27.5s1 -21.833 1 -32.5c0 -10 -0.166992 -19.833 -0.5 -29.5s-0.5 -19.167 -0.5 -28.5c0 -19.333 3 -35.166 9 -47.499
s20.333 -18.5 43 -18.5c24 0 38.833 7.83301 44.5 23.5s8.5 38.834 8.5 69.501c0 15.333 3.83301 25.166 11.5 29.499s17.834 6.5 30.501 6.5c4.66699 0 9.5 -0.166992 14.5 -0.5s10.167 -0.5 15.5 -0.5c28 0 51 -2 69 -6c2 -9.33301 3 -19 3 -29
c0 -8 -0.333008 -16.167 -1 -24.5s-1 -15.833 -1 -22.5c0 -58.667 -12 -99.834 -36 -123.501s-63.667 -35.5 -119 -35.5c-6 0 -12.333 0.166992 -19 0.5s-13.667 0.833008 -21 1.5c-7.33301 -0.666992 -14.333 -1.16699 -21 -1.5s-13 -0.5 -19 -0.5
c-56 0 -96 11.833 -120 35.5s-36 64.834 -36 123.501v18.5c0 6.33301 0.333008 13.166 1 20.499c-2.66699 15.333 -5 33.5 -7 54.5s-3 42.5 -3 64.5s1 43.5 3 64.5s4.33301 38.833 7 53.5c-0.666992 6.66699 -1 13 -1 19v18c0 58.667 12.333 100.167 37 124.5
s64.667 36.5 120 36.5c6 0 12.167 -0.166992 18.5 -0.5s13.166 -0.833008 20.499 -1.5c7.33301 0.666992 14.333 1.16699 21 1.5s13 0.5 19 0.5c55.333 0 95 -11.833 119 -35.5s36 -64.834 36 -123.501v-19c0 -6.66699 -0.333008 -13.334 -1 -20.001z" />
    <glyph glyph-name="f" unicode="f" horiz-adv-x="280" 
d="M206 0c-17.333 -4 -40.3311 -5.99902 -68.998 -5.99902s-51.667 2 -69 6c-6.66699 32 -11.834 70.5 -15.501 115.5s-5.5 91.167 -5.5 138.5s1.83301 93.5 5.5 138.5s8.83398 83.5 15.501 115.5c-12.667 -2.66699 -25.334 -2.66699 -38.001 0
c-1.33301 6.66699 -2.33301 14.5 -3 23.5s-1 18.5 -1 28.5s0.333008 19.5 1 28.5s1.66699 16.833 3 23.5c12.667 2.66699 25.334 2.66699 38.001 0c-1.33301 5.33301 -1.33301 10.666 0 15.999c-2 29.333 3.66699 50.5 17 63.5s36 19.5 68 19.5h11.5
c4.33301 0 8.5 -0.333008 12.5 -1c3.33301 0.666992 6.66602 1 9.99902 1h10c10 0 19.167 -0.833008 27.5 -2.5s15.5 -3.83398 21.5 -6.50098c1.33301 -4 2 -8.83301 2 -14.5v-17.5v-17c0 -5.33301 -0.666992 -10 -2 -14c-12 -0.666992 -21.667 -3 -29 -7
s-11 -7.66699 -11 -11c0 -4.66699 6.66699 -7 20 -7c10.667 0 17.334 -2.66699 20.001 -8s4 -12.666 4 -21.999v-24c0 -10 -0.333008 -19.5 -1 -28.5s-1.66699 -16.833 -3 -23.5c-6.66699 -1.33301 -13.334 -2 -20.001 -2s-13.334 0.666992 -20.001 2
c6.66699 -32 11.834 -70.5 15.501 -115.5s5.5 -91.167 5.5 -138.5s-1.83301 -93.5 -5.5 -138.5s-8.83398 -83.5 -15.501 -115.5z" />
    <glyph glyph-name="g" unicode="g" horiz-adv-x="473" 
d="M288 235c-2.66699 12.667 -4.83398 28.5 -6.50098 47.5s-2.5 38.167 -2.5 57.5s0.833008 38.5 2.5 57.5s3.83398 34.833 6.50098 47.5c-2 23.333 -7.16699 39.833 -15.5 49.5s-21.166 14.5 -38.499 14.5s-30 -4.83301 -38 -14.5s-13 -26.167 -15 -49.5
c3.33301 -12.667 5.66602 -28.5 6.99902 -47.5s2 -38.167 2 -57.5s-0.666992 -38.5 -2 -57.5s-3.66602 -34.833 -6.99902 -47.5c2 -24 7 -40.833 15 -50.5s20.667 -14.5 38 -14.5s30.166 5 38.499 15s13.5 26.667 15.5 50zM295 612c8 2 17.668 3.33203 29.001 3.99902
s23 1 35 1s23.667 -0.333008 35 -1s21 -2 29 -4c7.33301 -33.333 12.833 -73 16.5 -119s5.5 -93.667 5.5 -143s-1.83301 -97 -5.5 -143s-9.16699 -85.333 -16.5 -118c0.666992 -4.66699 1 -9.5 1 -14.5v-14.5c0 -50 -13 -89.167 -39 -117.5s-71.667 -42.5 -137 -42.5h-17
c-6 0 -12 0.333008 -18 1c-16 -2.66699 -33 -4 -51 -4c-55.333 0 -104.666 14 -147.999 42c4.66699 12.667 12.667 28.5 24 47.5s21.666 33.5 30.999 43.5l55 -17c19.333 -6 38.333 -10.333 57 -13c41.333 2.66699 68.833 11 82.5 25s21.834 35.667 24.501 65
c-1.33301 6.66699 -2 13.334 -2 20.001c0 7.33301 0.666992 14.333 2 21c-22.667 -25.333 -41.834 -42.833 -57.501 -52.5s-31.834 -14.5 -48.501 -14.5c-3.33301 0 -6.83301 0.166992 -10.5 0.5s-7.16699 0.833008 -10.5 1.5c-42 -2.66699 -72.5 5.33301 -91.5 24
s-28.5 53.334 -28.5 104.001v17.5c0 6.33301 0.333008 12.833 1 19.5c-2.66699 12.667 -4.66699 28 -6 46s-2 36.333 -2 55s0.666992 36.834 2 54.501s3.33301 32.834 6 45.501c-0.666992 7.33301 -1.16699 14.666 -1.5 21.999s-0.5 14.333 -0.5 21
c0 58 10.5 97.333 31.5 118s54.5 29.667 100.5 27c4 0.666992 7.66699 1.16699 11 1.5s6.66602 0.5 9.99902 0.5c16 0 31.333 -5 46 -15s33.334 -28.333 56.001 -55c-0.666992 4 -1.16699 8.66699 -1.5 14s-0.5 10.666 -0.5 15.999s0.166992 10.666 0.5 15.999
s0.833008 10 1.5 14z" />
    <glyph glyph-name="h" unicode="h" horiz-adv-x="485" 
d="M53 0c-10 44 -17.332 96.999 -21.999 158.999s-7 126 -7 192s2.33301 130 7 192s12 115 22 159c8.66699 2 19 3.5 31 4.5s24.667 1.5 38 1.5s25.833 -0.5 37.5 -1.5s21.834 -2.5 30.501 -4.5c4 -17.333 6 -40 6 -68c0 -28.667 -2 -51.667 -6 -69
c21.333 20.667 39 35 53 43s28.333 12 43 12c2.66699 0 5.83398 -0.166992 9.50098 -0.5s7.16699 -0.833008 10.5 -1.5c3.33301 0 6.66602 0.166992 9.99902 0.5s6.66602 0.5 9.99902 0.5c39.333 0 68.166 -10.667 86.499 -32s27.5 -58.666 27.5 -111.999
c0 -35.333 2.66699 -74.333 8 -117s8 -90 8 -142c0 -40.667 -1.5 -80.167 -4.5 -118.5s-7.5 -70.833 -13.5 -97.5c-18 -4 -41.333 -6 -70 -6s-52 2 -70 6c-6 28 -10.5 61.5 -13.5 100.5s-4.5 79.5 -4.5 121.5s1.5 82.667 4.5 122s7.5 73 13.5 101
c-2 23.333 -7.16699 39.833 -15.5 49.5s-20.833 14.5 -37.5 14.5c-18.667 0 -31.667 -4.83301 -39 -14.5s-12 -26.167 -14 -49.5c6 -28 10.5 -61.667 13.5 -101s4.5 -80 4.5 -122s-1.5 -82.5 -4.5 -121.5s-7.5 -72.5 -13.5 -100.5c-18 -4 -41.333 -6 -70 -6
c-28 0 -51 2 -69 6z" />
    <glyph glyph-name="i" unicode="i" horiz-adv-x="251" 
d="M53 0c-8.66699 38 -15 84.167 -19 138.5s-6 110.166 -6 167.499s2 113.166 6 167.499s10.333 100.5 19 138.5c18 4 41 6 69 6c28.667 0 52 -2 70 -6c8.66699 -38 15.167 -84.167 19.5 -138.5s6.5 -110.166 6.5 -167.499s-2.16699 -113.166 -6.5 -167.499
s-10.833 -100.5 -19.5 -138.5c-18 -4 -41.333 -6 -70 -6c-28 0 -51 2 -69 6zM192 637c-18 -4 -41.332 -6 -69.999 -6c-28 0 -51 2 -69 6c-2 8 -3 19 -3 33c0 17.333 3.83301 28.166 11.5 32.499s17.5 6.5 29.5 6.5c4.66699 0 9.66699 -0.166992 15 -0.5
s10.666 -0.5 15.999 -0.5s10.5 0.166992 15.5 0.5s9.83301 0.5 14.5 0.5c13.333 0 23.833 -2.16699 31.5 -6.5s11.5 -15.166 11.5 -32.499c0 -14 -1 -25 -3 -33z" />
    <glyph glyph-name="j" unicode="j" horiz-adv-x="255" 
d="M199 637c-18 -4 -41 -6 -69 -6s-51 2 -69 6c-2 8 -3 19 -3 33c0 17.333 3.83301 28.166 11.5 32.499s17.5 6.5 29.5 6.5c4.66699 0 9.66699 -0.166992 15 -0.5s10.666 -0.5 15.999 -0.5s10.333 0.166992 15 0.5s9.33398 0.5 14.001 0.5c12.667 0 23 -2.16699 31 -6.5
s12 -15.166 12 -32.499c0 -14 -1 -25 -3 -33zM61 33c-8 36 -14 79.666 -18 130.999s-6 104 -6 158s2 106.833 6 158.5s10 95.5 18 131.5c18 4 41 6 69 6s51 -2 69 -6c7.33301 -34.667 13 -76.334 17 -125.001s6 -98.667 6 -150s-2 -101.333 -6 -150
s-9.66699 -90.334 -17 -125.001c0.666992 -9.33301 1.16699 -18.166 1.5 -26.499s0.5 -16.166 0.5 -23.499c0 -37.333 -6.5 -63.833 -19.5 -79.5s-39.5 -23.5 -79.5 -23.5c-3.33301 0 -6.83301 0.166992 -10.5 0.5s-7.16699 0.5 -10.5 0.5
c-10 -1.33301 -20.667 -1.16602 -32 0.500977s-21.333 4.16699 -30 7.5c-0.666992 5.33301 -1.5 11.5 -2.5 18.5s-1.5 14.5 -1.5 22.5s0.5 15.5 1.5 22.5s1.83301 13.167 2.5 18.5c15.333 1.33301 26 4.33301 32 9s9.33301 12.667 10 24z" />
    <glyph glyph-name="k" unicode="k" horiz-adv-x="481" 
d="M53 0c-10 44 -17.335 97.002 -22.002 159.002s-7 126 -7 192s2.33301 130 7 192s12 115 22 159c18 4 41 6 69 6c28.667 0 52 -2 70 -6c5.33301 -21.333 9 -47.333 11 -78s3 -62 3 -94s-1 -63.167 -3 -93.5s-5.66699 -56.166 -11 -77.499
c33.333 32.667 57.666 68.667 72.999 108s26.333 83.333 33 132c-2 5.33301 -0.666992 9.33301 4 12s10.834 4.5 18.501 5.5s15.834 1.5 24.501 1.5h23c28.667 0 52 -2 70 -6c2 -10 3 -20.333 3 -31c0 -6.66699 -0.166992 -13.334 -0.5 -20.001s-0.5 -12.667 -0.5 -18
c0 -28.667 -5 -56.5 -15 -83.5s-24.333 -50.833 -43 -71.5c40.667 -42 61 -106.333 61 -193c0 -11.333 -0.5 -23.333 -1.5 -36s-2.16699 -25.334 -3.5 -38.001c2 -7.33301 3.33301 -16.5 4 -27.5s1 -22.167 1 -33.5s-0.333008 -22.333 -1 -33s-2 -19.667 -4 -27
c-18 -4 -41.333 -6 -70 -6s-52 2 -70 6c-2.66699 11.333 -2.66699 23 0 35c-7.33301 61.333 -13.166 112.833 -17.499 154.5s-7.83301 79.167 -10.5 112.5c-18.667 -18.667 -32.667 -31.334 -42 -38.001s-21.333 -12.667 -36 -18c3.33301 -15.333 5.83301 -33.833 7.5 -55.5
s2.5 -44.167 2.5 -67.5s-0.833008 -45.833 -2.5 -67.5s-4.16699 -40.167 -7.5 -55.5c-18 -4 -41.333 -6 -70 -6c-28 0 -51 2 -69 6z" />
    <glyph glyph-name="l" unicode="l" horiz-adv-x="251" 
d="M55 0c-10 44 -17.333 97 -22 159s-7 126 -7 192s2.33301 130 7 192s12 115 22 159c18 4 41.333 6 70 6s52 -2 70 -6c10 -44 17.333 -97 22 -159s7 -126 7 -192s-2.33301 -130 -7 -192s-12 -115 -22 -159c-18 -4 -41.333 -6 -70 -6s-52 2 -70 6z" />
    <glyph glyph-name="m" unicode="m" horiz-adv-x="729" 
d="M192 0c-18 -4 -41.332 -5.99902 -69.999 -5.99902c-28 0 -51 2 -69 6c-8.66699 38 -15 84.167 -19 138.5s-6 110.166 -6 167.499s2 113.166 6 167.499s10.333 100.5 19 138.5c8 2 17.833 3.33301 29.5 4s23.5 1 35.5 1s23.667 -0.333008 35 -1s21 -2 29 -4
c1.33301 -3.33301 2 -7.5 2 -12.5v-15.5v-16c0 -5.33301 -0.666992 -9.66602 -2 -12.999c23.333 26 42.666 43.667 57.999 53s31.666 14 48.999 14c4 0 7.83301 -0.166992 11.5 -0.5s7.83398 -0.833008 12.501 -1.5c22 2.66699 41.667 -0.666016 59 -9.99902
s35.333 -28.333 54 -57c18.667 25.333 36.167 43.166 52.5 53.499s33.5 15.5 51.5 15.5c3.33301 0 6.83301 -0.166992 10.5 -0.5s7.16699 -0.833008 10.5 -1.5c47.333 2.66699 81.666 -6.33301 102.999 -27s32 -60 32 -118c0 -35.333 2.66699 -74.333 8 -117s8 -90 8 -142
c0 -40.667 -1.5 -80.167 -4.5 -118.5s-7.5 -70.833 -13.5 -97.5c-18 -4 -41.333 -6 -70 -6s-52 2 -70 6c-6 28 -10.5 61.5 -13.5 100.5s-4.5 79.5 -4.5 121.5s1.5 82.667 4.5 122s7.5 73 13.5 101c-2 23.333 -7.16699 39.833 -15.5 49.5s-21.166 14.5 -38.499 14.5
c-18 0 -30.667 -4.83301 -38 -14.5s-12 -26.167 -14 -49.5c6 -28 10.5 -61.667 13.5 -101s4.5 -80 4.5 -122s-1.5 -82.5 -4.5 -121.5s-7.5 -72.5 -13.5 -100.5c-18 -4 -41.333 -6 -70 -6s-52 2 -70 6c-6 28 -10.5 61.5 -13.5 100.5s-4.5 79.5 -4.5 121.5s1.5 82.667 4.5 122
s7.5 73 13.5 101c-2 23.333 -7.16699 39.833 -15.5 49.5s-20.833 14.5 -37.5 14.5c-18.667 0 -31.667 -4.83301 -39 -14.5s-12 -26.167 -14 -49.5c6 -28 10.5 -61.667 13.5 -101s4.5 -80 4.5 -122s-1.5 -82.5 -4.5 -121.5s-7.5 -72.5 -13.5 -100.5z" />
    <glyph glyph-name="n" unicode="n" horiz-adv-x="485" 
d="M53 0c-8.66699 38 -15 84.1689 -19 138.502s-6 110.166 -6 167.499s2 113.166 6 167.499s10.333 100.5 19 138.5c8 2 17.833 3.33301 29.5 4s23.5 1 35.5 1s23.667 -0.333008 35 -1s21 -2 29 -4c1.33301 -4 2 -8.66699 2 -14v-16v-15.5c0 -5 -0.666992 -9.5 -2 -13.5
c22.667 26 41.5 44 56.5 54s30.5 15 46.5 15c3.33301 0 6.83301 -0.166992 10.5 -0.5s7.16699 -0.833008 10.5 -1.5c46.667 2.66699 80.667 -6.33301 102 -27s32 -60 32 -118c0 -35.333 2.66699 -74.333 8 -117s8 -90 8 -142c0 -40.667 -1.5 -80.167 -4.5 -118.5
s-7.5 -70.833 -13.5 -97.5c-18 -4 -41.333 -6 -70 -6s-52 2 -70 6c-6 28 -10.5 61.5 -13.5 100.5s-4.5 79.5 -4.5 121.5s1.5 82.667 4.5 122s7.5 73 13.5 101c-2 23.333 -7.16699 39.833 -15.5 49.5s-20.833 14.5 -37.5 14.5c-18.667 0 -31.667 -4.83301 -39 -14.5
s-12 -26.167 -14 -49.5c6 -28 10.5 -61.667 13.5 -101s4.5 -80 4.5 -122s-1.5 -82.5 -4.5 -121.5s-7.5 -72.5 -13.5 -100.5c-18 -4 -41.333 -6 -70 -6c-28 0 -51 2 -69 6z" />
    <glyph glyph-name="o" unicode="o" horiz-adv-x="471" 
d="M289 172c-4 17.333 -6.83301 37.666 -8.5 60.999s-2.5 47.666 -2.5 72.999s0.833008 49.666 2.5 72.999s4.5 43.333 8.5 60c-2 23.333 -7 39.833 -15 49.5s-20.667 14.5 -38 14.5c-18 0 -31 -4.83301 -39 -14.5s-13 -26.167 -15 -49.5c4 -16.667 6.83301 -36.667 8.5 -60
s2.5 -47.666 2.5 -72.999s-0.833008 -49.666 -2.5 -72.999s-4.5 -43.666 -8.5 -60.999c2 -23.333 7 -39.833 15 -49.5s21 -14.5 39 -14.5c17.333 0 30 4.83301 38 14.5s13 26.167 15 49.5zM41 187c-3.33301 15.333 -5.83398 33.502 -7.50098 54.502s-2.5 42.5 -2.5 64.5
s0.833008 43.5 2.5 64.5s4.16699 38.833 7.5 53.5c-0.666992 6.66699 -1 13 -1 19v18c0 58.667 12.333 100.167 37 124.5s64.667 36.5 120 36.5c6 0 12.333 -0.166992 19 -0.5s13.334 -0.833008 20.001 -1.5c6.66699 0.666992 13.5 1.16699 20.5 1.5s13.5 0.5 19.5 0.5
c55.333 0 95 -11.833 119 -35.5s36 -64.834 36 -123.501v-19c0 -6.66699 -0.333008 -13.334 -1 -20.001c2.66699 -14.667 5 -32.5 7 -53.5s3 -42.5 3 -64.5s-1 -43.5 -3 -64.5s-4.33301 -39.167 -7 -54.5c0.666992 -7.33301 1 -14.166 1 -20.499v-18.5
c0 -58.667 -12 -99.834 -36 -123.501s-63.667 -35.5 -119 -35.5c-6 0 -12.5 0.166992 -19.5 0.5s-13.833 0.833008 -20.5 1.5c-6.66699 -0.666992 -13.5 -1.16699 -20.5 -1.5s-13.5 -0.5 -19.5 -0.5c-56 0 -96 11.833 -120 35.5s-36 64.834 -36 123.501v18.5
c0 6.33301 0.333008 13.166 1 20.499z" />
    <glyph glyph-name="p" unicode="p" horiz-adv-x="481" 
d="M53 -90c-10 44 -17.332 96.9951 -21.999 158.995s-7 126 -7 192s2.33301 130 7 192s12 115 22 159c8 2 17.833 3.33301 29.5 4s23.5 1 35.5 1s23.667 -0.333008 35 -1s21 -2 29 -4c1.33301 -4 2 -8.66699 2 -14v-16v-15.5c0 -5 -0.666992 -9.5 -2 -13.5
c22.667 26.667 42 44.834 58 54.501s33 14.5 51 14.5c4 0 8 -0.166992 12 -0.5s8 -0.833008 12 -1.5c43.333 2.66699 75.333 -6.66602 96 -27.999s31 -60.666 31 -117.999c0 -6.66699 -0.166992 -13.5 -0.5 -20.5s-0.833008 -14.167 -1.5 -21.5
c2.66699 -14 5 -31.167 7 -51.5s3 -41.166 3 -62.499c0 -45.333 -3.33301 -83.666 -10 -114.999c1.33301 -14 2.33301 -27.5 3 -40.5s1 -25.167 1 -36.5c0 -22.667 -2 -42.834 -6 -60.501s-11 -32.167 -21 -43.5s-24 -19.666 -42 -24.999s-41 -7.33301 -69 -6
c-3.33301 -0.666992 -6.83301 -1.16699 -10.5 -1.5s-6.83398 -0.5 -9.50098 -0.5c-16 0 -31 4.66699 -45 14s-30.333 27 -49 53c4 -18 6 -42.333 6 -73s-2 -55 -6 -73c-18 -4 -41.333 -6 -70 -6c-28 0 -51 2 -69 6zM298.001 165.995c-4 17.333 -6.83301 38.5 -8.5 63.5
s-2.5 50.5 -2.5 76.5s0.833008 51.333 2.5 76s4.5 45.667 8.5 63c-2 23.333 -7.16699 39.833 -15.5 49.5s-20.833 14.5 -37.5 14.5c-18.667 0 -31.667 -4.83301 -39 -14.5s-12 -26.167 -14 -49.5c4 -17.333 6.83301 -38.333 8.5 -63s2.5 -50 2.5 -76
s-0.833008 -51.5 -2.5 -76.5s-4.5 -46.167 -8.5 -63.5c2 -23.333 6.66699 -39.833 14 -49.5s20.333 -14.5 39 -14.5c17.333 0 30 4.83301 38 14.5s13 26.167 15 49.5z" />
    <glyph glyph-name="q" unicode="q" horiz-adv-x="481" 
d="M183 445c4 -17.333 6.83301 -38.333 8.5 -63s2.5 -50 2.5 -76s-0.833008 -51.5 -2.5 -76.5s-4.5 -46.167 -8.5 -63.5c2 -23.333 7 -39.833 15 -49.5s21 -14.5 39 -14.5c17.333 0 30 4.83301 38 14.5s13 26.167 15 49.5c-4 17.333 -6.83301 38.5 -8.5 63.5
s-2.5 50.5 -2.5 76.5s0.833008 51.333 2.5 76s4.5 45.667 8.5 63c-2 23.333 -7 39.833 -15 49.5s-20.667 14.5 -38 14.5c-18 0 -31 -4.83301 -39 -14.5s-13 -26.167 -15 -49.5zM300 554c-1.33301 3.33301 -2.00098 7.66992 -2.00098 13.0029v16c0 15.333 3 25 9 29
s14.667 6 26 6c4.66699 0 9.5 -0.166992 14.5 -0.5s10.5 -0.5 16.5 -0.5c12 0 23.833 -0.333008 35.5 -1s21.5 -2 29.5 -4c10 -44 17.333 -97 22 -159s7 -126 7 -192s-2.33301 -130 -7 -192s-12 -115 -22 -159c-18 -4 -41 -6 -69 -6c-28.667 0 -52 2 -70 6
c-2 9.33301 -3.5 20.333 -4.5 33s-1.5 25.667 -1.5 39c0 29.333 2 53 6 71c-24 -29.333 -43.833 -47.833 -59.5 -55.5s-33.5 -9.83398 -53.5 -6.50098c-28 -1.33301 -51.167 0.5 -69.5 5.5s-32.666 13.333 -42.999 25s-17.5 26.334 -21.5 44.001s-6 37.834 -6 60.501
c0 11.333 0.5 23.5 1.5 36.5s1.83301 26.5 2.5 40.5c-6.66699 31.333 -10 69.666 -10 114.999c0 21.333 0.833008 42.166 2.5 62.499s4.16699 37.5 7.5 51.5c-0.666992 7.33301 -1.16699 14.5 -1.5 21.5s-0.5 13.833 -0.5 20.5c0 57.333 10.5 96.666 31.5 117.999
s53.5 30.666 97.5 27.999c4 0.666992 8 1.16699 12 1.5s7.66699 0.5 11 0.5c18 0 35 -4.83301 51 -14.5s35.333 -27.5 58 -53.5z" />
    <glyph glyph-name="r" unicode="r" horiz-adv-x="452" 
d="M53 0c-8.66699 38 -14.9971 84.167 -18.9971 138.5s-6 110.166 -6 167.499s2 113.166 6 167.499s10.333 100.5 19 138.5c8 2 17.833 3.33301 29.5 4s23.5 1 35.5 1s23.667 -0.333008 35 -1s21 -2 29 -4c1.33301 -4 2 -8.66699 2 -14v-16v-16
c0 -5.33301 -0.666992 -10 -2 -14c21.333 26 39.5 43.833 54.5 53.5s30.833 14.5 47.5 14.5c3.33301 0 6.83301 -0.166992 10.5 -0.5s7.5 -0.833008 11.5 -1.5c3.33301 0 6.66602 0.166992 9.99902 0.5s6.66602 0.5 9.99902 0.5c39.333 0 68.166 -10.667 86.499 -32
s27.5 -58.666 27.5 -111.999c0 -6.66699 -0.166992 -13.667 -0.5 -21s-0.833008 -14.666 -1.5 -21.999c1.33301 -6.66699 2.33301 -15 3 -25s1 -20.333 1 -31s-0.333008 -21 -1 -31s-1.66699 -18.667 -3 -26c-18 -4 -41.333 -6 -70 -6s-52 2 -70 6
c-2 8 -3.33301 17.5 -4 28.5s-1 22.5 -1 34.5c0 10 0.333008 20.167 1 30.5s1 19.833 1 28.5c0 19.333 -3 35.5 -9 48.5s-19.667 19.5 -41 19.5c-18.667 0 -31.667 -4.83301 -39 -14.5s-12 -26.167 -14 -49.5c6 -28 10.5 -61.667 13.5 -101s4.5 -80 4.5 -122
s-1.5 -82.5 -4.5 -121.5s-7.5 -72.5 -13.5 -100.5c-18 -4 -41.333 -6 -70 -6c-28 0 -51 2 -69 6z" />
    <glyph glyph-name="s" unicode="s" horiz-adv-x="457" 
d="M419 459c0.666992 -3.33301 1.00391 -10.001 1.00391 -20.001c0 -11.333 -3.66699 -18.5 -11 -21.5s-16.333 -4.5 -27 -4.5c-5.33301 0 -10.5 0.166992 -15.5 0.5s-10.167 0.5 -15.5 0.5c-12.667 0 -25 0.333008 -37 1s-22.333 2 -31 4
c-0.666992 3.33301 -1.16699 7.66602 -1.5 12.999s-0.5 10.333 -0.5 15s0.166992 9.66699 0.5 15s0.833008 9.66602 1.5 12.999c-0.666992 4.66699 -6 11.5 -16 20.5s-23.333 13.5 -40 13.5c-18 0 -31 -4.16699 -39 -12.5s-12.333 -17.166 -13 -26.499
c1.33301 -5.33301 6.66602 -11.666 15.999 -18.999s20.5 -15.333 33.5 -24l40.5 -28c14 -10 26.667 -20.667 38 -32c44 -20.667 76 -44.334 96 -71.001s30 -59 30 -97c0 -4.66699 -0.166992 -9.66699 -0.5 -15s-0.833008 -10.666 -1.5 -15.999
c0.666992 -5.33301 1 -10.166 1 -14.499v-13.5c0 -52.667 -12.667 -90.834 -38 -114.501s-65 -35.5 -119 -35.5h-17.5c-6.33301 0 -12.5 0.333008 -18.5 1c-7.33301 -0.666992 -14.666 -1.16699 -21.999 -1.5s-14.333 -0.5 -21 -0.5c-57.333 0 -98 11.667 -122 35
s-36 63 -36 119v16.5c0 5.66699 0.333008 11.5 1 17.5c-2 10 -3 22.333 -3 37c0 20 3.66699 32.333 11 37s18 7 32 7h29c28.667 0 52 -2 70 -6c1.33301 -5.33301 2.33301 -11.833 3 -19.5s1 -15.5 1 -23.5s-0.333008 -15.833 -1 -23.5s-1.66699 -14.167 -3 -19.5
c2 -23.333 7 -39.833 15 -49.5s20.667 -14.5 38 -14.5c19.333 0 33.166 5.5 41.499 16.5s13.166 24.167 14.499 39.5c-2 12.667 -5.33301 23.667 -10 33s-11.334 18.5 -20.001 27.5s-19.334 18.667 -32.001 29l-45 37.5c-50 25.333 -86.833 52.833 -110.5 82.5
s-33.167 61.167 -28.5 94.5c-0.666992 4 -1 7.83301 -1 11.5v10.5c0 47.333 13 82 39 104s65.333 33 118 33h16.5c5.66699 0 11.5 -0.333008 17.5 -1c7.33301 0.666992 14.166 1.16699 20.499 1.5s12.833 0.5 19.5 0.5c52.667 0 91.334 -10.667 116.001 -32
s37 -56.666 37 -105.999v-12c0 -4 -0.333008 -8.33301 -1 -13z" />
    <glyph glyph-name="t" unicode="t" horiz-adv-x="284" 
d="M23 499c-3.33301 15.333 -4.99902 34.333 -4.99902 57c0 22 1.66699 40.667 5 56c3.33301 0.666992 6.66602 1.16699 9.99902 1.5s7 0.5 11 0.5c8.66699 0 14.334 0.333008 17.001 1s4 2.66699 4 6c0 2.66699 -0.333008 6.16699 -1 10.5s-1 9.83301 -1 16.5
c0 16 1 28.333 3 37c8 3.33301 18 6.5 30 9.5s24.5 5.5 37.5 7.5s25.667 3.5 38 4.5s23.166 1.16699 32.499 0.5c1.33301 -6 2.33301 -13 3 -21s1 -16.667 1 -26c0 -8 -0.666992 -14.833 -2 -20.5s-2 -10.5 -2 -14.5s1.33301 -6.83301 4 -8.5s8.33398 -2.5 17.001 -2.5
c11.333 0 18.5 -3 21.5 -9s4.5 -13.667 4.5 -23c0 -4 -0.166992 -8.16699 -0.5 -12.5s-0.5 -8.83301 -0.5 -13.5c0 -5.33301 0.166992 -10.166 0.5 -14.499s0.5 -8.5 0.5 -12.5c0 -8.66699 -1.5 -16 -4.5 -22s-10.167 -9 -21.5 -9h-11.5
c-3.66699 0 -6.83398 0.333008 -9.50098 1c5.33301 -22 9 -48.333 11 -79s3 -62.667 3 -96s-1 -65.5 -3 -96.5s-5.66699 -57.5 -11 -79.5c1.33301 -14 6 -23.5 14 -28.5s17.333 -8.16699 28 -9.5c1.33301 -6.66699 2.33301 -15 3 -25s1 -20 1 -30s-0.333008 -20 -1 -30
s-1.66699 -18.333 -3 -25c-15.333 -8.66699 -33 -13 -53 -13h-10.5c-3.66699 0 -7.16699 0.333008 -10.5 1c-42.667 -2.66699 -71.334 3.33301 -86.001 18s-22 40.334 -22 77.001c0 31.333 -2.33301 65.833 -7 103.5s-7 79.167 -7 124.5c0 35.333 1.33301 69.666 4 102.999
s6.66699 61.666 12 84.999c-2.66699 -0.666992 -6 -1 -10 -1h-12h-11c-3.33301 0 -6.66602 0.333008 -9.99902 1z" />
    <glyph glyph-name="u" unicode="u" horiz-adv-x="485" 
d="M431 612c8.66699 -38 14.9961 -84.1689 18.9961 -138.502s6 -110.166 6 -167.499s-2 -113.166 -6 -167.499s-10.333 -100.5 -19 -138.5c-8 -2 -17.667 -3.33301 -29 -4s-23 -1 -35 -1s-23.667 0.333008 -35 1s-21 2 -29 4c-0.666992 3.33301 -1.16699 7.5 -1.5 12.5
s-0.5 10.167 -0.5 15.5s0.166992 10.333 0.5 15s0.833008 8.66699 1.5 12c-22 -24.667 -40.5 -41.5 -55.5 -50.5s-30.833 -13.5 -47.5 -13.5c-3.33301 0 -6.83301 0.166992 -10.5 0.5s-7.5 0.833008 -11.5 1.5c-3.33301 0 -6.66602 -0.166992 -9.99902 -0.5
s-6.66602 -0.5 -9.99902 -0.5c-39.333 0 -68 10.5 -86 31.5s-27 58.167 -27 111.5c0 35.333 -2.66699 74.5 -8 117.5s-8 90.833 -8 143.5c0 40.667 1.5 80.167 4.5 118.5s7.5 70.833 13.5 97.5c8.66699 2 19.334 3.5 32.001 4.5s25.667 1.5 39 1.5c28.667 0 52 -2 70 -6
c6 -28 10.667 -61.667 14 -101s5 -80 5 -122s-1.66699 -82.667 -5 -122s-8 -73 -14 -101c2 -24.667 6.83301 -41.5 14.5 -50.5s19.834 -13.5 36.501 -13.5c17.333 0 30 4.83301 38 14.5s13 26.167 15 49.5c-6 28 -10.667 61.667 -14 101s-5 80 -5 122s1.66699 82.667 5 122
s8 73 14 101c18 4 41.333 6 70 6c28 0 51 -2 69 -6z" />
    <glyph glyph-name="v" unicode="v" horiz-adv-x="473" 
d="M183 612c3.33301 -14 5.83398 -31.167 7.50098 -51.5s2.5 -41.166 2.5 -62.499s-0.833008 -42.166 -2.5 -62.499s-4.16699 -37.5 -7.5 -51.5l25 -148.5c8 -47.667 17.667 -100.5 29 -158.5c11.333 56.667 20.833 108.667 28.5 156l24.5 151
c-2.66699 14 -5 31.167 -7 51.5s-3 41.166 -3 62.499s1 42.166 3 62.499s4.33301 37.5 7 51.5c18 4 41.333 6 70 6c28 0 51 -2 69 -6c7.33301 -32.667 11 -74 11 -124c0 -23.333 -1 -46.166 -3 -68.499s-4.66699 -41.166 -8 -56.499
c1.33301 -13.333 2.5 -26.666 3.5 -39.999s1.5 -26.333 1.5 -39c0 -126.667 -38 -221.334 -114 -284.001c-10.667 -2 -23.5 -3.66699 -38.5 -5s-30.167 -2 -45.5 -2s-30.333 0.666992 -45 2s-27.334 3 -38.001 5c-76 62.667 -114 157.334 -114 284.001
c0 12.667 0.5 25.667 1.5 39s2.16699 26.666 3.5 39.999c-3.33301 15.333 -5.83301 34.166 -7.5 56.499s-2.5 45.166 -2.5 68.499s0.833008 46 2.5 68s4.16699 40.667 7.5 56c18 4 41.333 6 70 6c28 0 51 -2 69 -6z" />
    <glyph glyph-name="w" unicode="w" horiz-adv-x="719" 
d="M290 612c18 4 41.3291 6.00195 69.9961 6.00195c28 0 51 -2 69 -6c3.33301 -14 5.83301 -31.167 7.5 -51.5s2.5 -41.166 2.5 -62.499s-0.833008 -42.166 -2.5 -62.499s-4.16699 -37.5 -7.5 -51.5l24.5 -148.5c7.66699 -47.667 16.834 -100.5 27.501 -158.5
c12.667 56.667 22.834 108.667 30.501 156l24.5 151c-2.66699 14 -5 31.167 -7 51.5s-3 41.166 -3 62.499s1 42.166 3 62.499s4.33301 37.5 7 51.5c17.333 4 40.333 6 69 6s51.667 -2 69 -6c3.33301 -15.333 5.83301 -34 7.5 -56s2.5 -44.667 2.5 -68
s-0.833008 -46.166 -2.5 -68.499s-4.16699 -41.166 -7.5 -56.499c1.33301 -14 2.5 -27.667 3.5 -41s1.5 -26.333 1.5 -39c0 -62 -9.5 -117.167 -28.5 -165.5s-47.167 -87.5 -84.5 -117.5c-9.33301 -2 -20.5 -3.5 -33.5 -4.5s-26.5 -1.5 -40.5 -1.5c-30.667 0 -55 2 -73 6
c-12 13.333 -22.5 31.166 -31.5 53.499s-18.5 52.5 -28.5 90.5c-11.333 -40 -21.166 -70.333 -29.499 -91s-18.166 -38.334 -29.499 -53.001c-9.33301 -2 -20.5 -3.5 -33.5 -4.5s-26.5 -1.5 -40.5 -1.5c-30.667 0 -55 2 -73 6c-76 62.667 -114 157.334 -114 284.001
c0 12.667 0.5 25.667 1.5 39s2.16699 26.666 3.5 39.999c-3.33301 15.333 -5.83301 34.166 -7.5 56.499s-2.5 45.166 -2.5 68.499s0.833008 46 2.5 68s4.16699 40.667 7.5 56c18 4 41.333 6 70 6c28 0 51 -2 69 -6c3.33301 -14 5.83301 -31.167 7.5 -51.5
s2.5 -41.166 2.5 -62.499s-0.833008 -42.166 -2.5 -62.499s-4.16699 -37.5 -7.5 -51.5l25 -148.5c8 -47.667 17.667 -100.5 29 -158.5c11.333 56.667 20.833 108.667 28.5 156l24.5 151c-2.66699 14 -5 31.167 -7 51.5s-3 41.166 -3 62.499s1 42.166 3 62.499
s4.33301 37.5 7 51.5z" />
    <glyph glyph-name="x" unicode="x" horiz-adv-x="461" 
d="M362 334c44.667 -56 67 -136 67 -240c0 -30 -2 -61.333 -6 -94c-18 -4 -41.333 -6 -70 -6s-52 2 -70 6c-4.66699 26 -8.83398 51.5 -12.501 76.5l-11.5 76.5l-12.5 82l-14.5 95l-16.5 -95l-14 -80.5l-12.5 -72l-12 -68.5c1.33301 -6 -0.166992 -10.333 -4.5 -13
s-10.166 -4.5 -17.499 -5.5s-15.333 -1.5 -24 -1.5h-24c-28.667 0 -52 2 -70 6c-4 32 -6 63 -6 93c0 105.333 22.667 185.333 68 240c-44.667 71.333 -67 144.333 -67 219c0 10 0.5 20 1.5 30s2.16699 20 3.5 30c18 4 41.333 6 70 6s52 -2 70 -6
c7.33301 -46 15 -89.5 23 -130.5s18.667 -84.167 32 -129.5c10.667 45.333 20 88.5 28 129.5s15.667 84.5 23 130.5c18 4 41.333 6 70 6s52 -2 70 -6c1.33301 -10 2.5 -19.833 3.5 -29.5s1.5 -19.5 1.5 -29.5c0 -75.333 -22 -148.333 -66 -219z" />
    <glyph glyph-name="y" unicode="y" horiz-adv-x="473" 
d="M44 391c-2.66699 14 -4.83398 30.6641 -6.50098 49.9971s-2.5 39.666 -2.5 60.999s0.833008 41.5 2.5 60.5s3.83398 35.5 6.50098 49.5c18 4 41.333 6 70 6c28 0 51 -2 69 -6c3.33301 -14 5.66602 -31.167 6.99902 -51.5s2 -41.166 2 -62.499s-0.666992 -42 -2 -62
s-3.66602 -37 -6.99902 -51c9.33301 -52.667 18 -106.667 26 -162l28 -187l27 185c8 55.333 16.667 110 26 164c-2.66699 14 -4.83398 31 -6.50098 51s-2.5 40.667 -2.5 62s0.833008 42.166 2.5 62.499s3.83398 37.5 6.50098 51.5c18 4 41.333 6 70 6c28 0 51 -2 69 -6
c3.33301 -14 5.66602 -30.5 6.99902 -49.5s2 -39.167 2 -60.5s-0.666992 -41.666 -2 -60.999s-3.66602 -36 -6.99902 -50c2.66699 -19.333 4.66699 -38.166 6 -56.499s2 -36.166 2 -53.499c0 -71.333 -12.167 -137.166 -36.5 -197.499s-63.833 -118.166 -118.5 -173.499
c-14.667 -2.66699 -32.667 -5 -54 -7s-43 -3 -65 -3s-43.667 1 -65 3s-39.333 4.33301 -54 7c-1.33301 5.33301 -2.33301 12 -3 20s-1 16.333 -1 25s0.333008 17 1 25s1.66699 14.667 3 20c6.66699 1.33301 14.667 2.33301 24 3s19 1 29 1s19.667 -0.333008 29 -1
s17.333 -1.66699 24 -3c-38 42 -66.333 88.833 -85 140.5s-28 106.167 -28 163.5c0 14 0.666992 28.167 2 42.5s3 29.166 5 44.499z" />
    <glyph glyph-name="z" unicode="z" horiz-adv-x="396" 
d="M223 483c-12 -3.33301 -26.668 -5.50293 -44.001 -6.50293s-35 -1.5 -53 -1.5s-35.5 0.5 -52.5 1.5s-31.5 3.16699 -43.5 6.5c-2 8 -3.33301 17.833 -4 29.5s-1 23.5 -1 35.5s0.333008 23.667 1 35s2 21 4 29c21.333 5.33301 46.833 9 76.5 11s60.5 3 92.5 3
s62.833 -1 92.5 -3s55.167 -5.66699 76.5 -11c2 -8 3.5 -17.833 4.5 -29.5s1.5 -23.834 1.5 -36.501c0 -11.333 -0.5 -22.666 -1.5 -33.999s-2.5 -20.666 -4.5 -27.999c-6.66699 -24.667 -17.667 -53.5 -33 -86.5s-32.5 -66.167 -51.5 -99.5s-38.667 -65.166 -59 -95.499
s-38.833 -55.166 -55.5 -74.499c25.333 5.33301 57 8 95 8c37.333 0 68.666 -2.66699 93.999 -8c2 -8 3.33301 -17.667 4 -29s1 -23 1 -35s-0.333008 -23.667 -1 -35s-2 -21 -4 -29c-21.333 -5.33301 -47.166 -9 -77.499 -11s-61.5 -3 -93.5 -3s-63.167 1 -93.5 3
s-56.166 5.66699 -77.499 11c-3.33301 15.333 -5 36 -5 62c0 10 0.333008 19.667 1 29s2 17.333 4 24c7.33301 25.333 19 55 35 89s33.667 68.333 53 103s39.5 67.667 60.5 99s40.5 57 58.5 77z" />
    <glyph glyph-name="braceleft" unicode="{" horiz-adv-x="428" 
d="M24 296c-1.33301 6.66699 -2.33105 14.4971 -2.99805 23.4971s-1 18.167 -1 27.5s0.333008 18.5 1 27.5s1.66699 16.833 3 23.5c4.66699 1.33301 9 1.33301 13 0c47.333 4 82 16.333 104 37s34.667 51 38 91c-2 8 -3.33301 17.333 -4 28s-1 22 -1 34
s0.333008 23.5 1 34.5s2 20.5 4 28.5c-0.666992 7.33301 -1.16699 14.5 -1.5 21.5s-0.5 13.833 -0.5 20.5c0 22.667 2.33301 42.334 7 59.001s13 30.334 25 41.001s28.5 18.667 49.5 24s47.833 8 80.5 8c8 0 16.167 -0.166992 24.5 -0.5s17.166 -0.833008 26.499 -1.5
c18.667 5.33301 29 2 31 -10s3 -26.333 3 -43c0 -20 -1.66699 -37.333 -5 -52c-4.66699 -1.33301 -9 -1.33301 -13 0c-40.667 -2.66699 -69.5 -11.167 -86.5 -25.5s-26.833 -39.5 -29.5 -75.5c2 -7.33301 3.33301 -16.5 4 -27.5s1 -22.167 1 -33.5s-0.333008 -22.333 -1 -33
s-2 -19.667 -4 -27c0.666992 -7.33301 1.16699 -14.5 1.5 -21.5s0.5 -13.5 0.5 -19.5c0 -34 -5.5 -58 -16.5 -72s-29.833 -26 -56.5 -36c26.667 -10 45.5 -22 56.5 -36s16.5 -38.333 16.5 -73c0 -6 -0.166992 -12.333 -0.5 -19s-0.833008 -14 -1.5 -22
c2 -7.33301 3.33301 -16.333 4 -27s1 -21.667 1 -33s-0.333008 -22.333 -1 -33s-2 -19.667 -4 -27c2.66699 -35.333 12.334 -60 29.001 -74s45.667 -22.667 87 -26c5.33301 2 9.16602 1.33301 11.499 -2s4 -7.83301 5 -13.5s1.5 -12 1.5 -19v-18.5
c0 -20 -1.66699 -37.333 -5 -52c-4.66699 -1.33301 -10.167 -2.16602 -16.5 -2.49902s-12.833 -0.5 -19.5 -0.5c-8.66699 0 -17.334 0.166992 -26.001 0.5s-16.334 0.5 -23.001 0.5c-32 0 -58.167 2.33301 -78.5 7s-36.333 12.334 -48 23.001s-19.667 24.167 -24 40.5
s-6.5 36.166 -6.5 59.499c0 6.66699 0.166992 13.5 0.5 20.5s0.833008 14.5 1.5 22.5c-2 8 -3.33301 17.5 -4 28.5s-1 22.5 -1 34.5s0.333008 23.5 1 34.5s2 20.5 4 28.5c-3.33301 40 -15.666 70.167 -36.999 90.5s-56.333 32.5 -105 36.5
c-4.66699 -1.33301 -9 -1.33301 -13 0z" />
    <glyph glyph-name="bar" unicode="|" horiz-adv-x="569" 
d="M240 -180c-12.667 56 -22.167 123.833 -28.5 203.5s-9.5 161.834 -9.5 246.501s3.16699 167 9.5 247s15.833 148 28.5 204l20 2.5c8 1 16.333 1.5 25 1.5s17 -0.5 25 -1.5l20 -2.5c12.667 -56 22.167 -124 28.5 -204s9.5 -162.333 9.5 -247
s-3.16699 -166.834 -9.5 -246.501s-15.833 -147.5 -28.5 -203.5c-5.33301 -1.33301 -12 -2.33301 -20 -3s-16.333 -1 -25 -1s-17 0.333008 -25 1s-14.667 1.66699 -20 3zM0 -223h1v-1h-1v1z" />
    <glyph glyph-name="braceright" unicode="}" horiz-adv-x="428" 
d="M404 296c-4.66699 -1.33301 -9.00293 -1.33691 -13.0029 -0.00390625c-48.667 -4 -83.667 -16.167 -105 -36.5s-33.666 -50.5 -36.999 -90.5c2 -8 3.33301 -17.5 4 -28.5s1 -22.5 1 -34.5s-0.333008 -23.5 -1 -34.5s-2 -20.5 -4 -28.5
c0.666992 -8 1.16699 -15.5 1.5 -22.5s0.5 -13.833 0.5 -20.5c0 -23.333 -2.16699 -43.166 -6.5 -59.499s-12.333 -29.833 -24 -40.5s-27.667 -18.334 -48 -23.001s-46.5 -7 -78.5 -7c-8.66699 0 -17.667 0.166992 -27 0.5s-19 0.833008 -29 1.5
c-18.667 -5.33301 -29 -2.16602 -31 9.50098s-3 25.834 -3 42.501c0 20.667 1.66699 38.334 5 53.001c4.66699 1.33301 9 1.33301 13 0c41.333 3.33301 70.333 12 87 26s26.334 38.667 29.001 74c-2 7.33301 -3.33301 16.333 -4 27s-1 21.667 -1 33s0.333008 22.333 1 33
s2 19.667 4 27c-0.666992 8 -1.16699 15.333 -1.5 22s-0.5 13 -0.5 19c0 34.667 5.5 59 16.5 73s29.833 26 56.5 36c-26.667 10 -45.5 22 -56.5 36s-16.5 38 -16.5 72c0 6 0.166992 12.5 0.5 19.5s0.833008 14.167 1.5 21.5c-2 7.33301 -3.33301 16.333 -4 27
s-1 21.667 -1 33s0.333008 22.5 1 33.5s2 20.167 4 27.5c-2.66699 36 -12.5 61.167 -29.5 75.5s-45.833 22.833 -86.5 25.5c-10 -3.33301 -15.5 1.83398 -16.5 15.501s-1.5 25.834 -1.5 36.501c0 20.667 1.66699 38.334 5 53.001
c4.66699 1.33301 9.83398 2.16602 15.501 2.49902s11.834 0.5 18.501 0.5c8.66699 0 17 -0.166992 25 -0.5s15 -0.5 21 -0.5c32.667 0 59.5 -2.66699 80.5 -8s37.5 -13.333 49.5 -24s20.333 -24.334 25 -41.001s7 -36.334 7 -59.001c0 -6.66699 -0.166992 -13.5 -0.5 -20.5
s-0.833008 -14.167 -1.5 -21.5c2 -8 3.33301 -17.5 4 -28.5s1 -22.5 1 -34.5s-0.333008 -23.333 -1 -34s-2 -20 -4 -28c3.33301 -40 16 -70.333 38 -91s56.667 -33 104 -37c5.33301 2 9.16602 1.33301 11.499 -2s4 -7.66602 5 -12.999s1.33301 -11.333 1 -18
s-0.5 -12.667 -0.5 -18c0 -9.33301 -0.333008 -18.5 -1 -27.5s-1.66699 -16.833 -3 -23.5z" />
    <glyph glyph-name="asciitilde" unicode="~" horiz-adv-x="853" 
d="M765 402c3.33301 -15.333 5.00195 -33.998 5.00195 -55.998c0 -21.333 -1.66699 -39.666 -5 -54.999c-54 -47.333 -107 -71 -159 -71h-15c-4.66699 0 -9.66699 0.666992 -15 2c-4.66699 -0.666992 -9.16699 -1.16699 -13.5 -1.5s-8.5 -0.5 -12.5 -0.5
c-18 0 -35 2.66699 -51 8s-33 12.666 -51 21.999l-98 22c-28 6 -50.667 11.333 -68 16c-26.667 -5.33301 -55.334 -14.333 -86.001 -27s-66.334 -30 -107.001 -52c-3.33301 15.333 -5 33.666 -5 54.999c0 22 1.66699 40.667 5 56c55.333 49.333 109.666 74 162.999 74
c10 0 20 -1 30 -3c9.33301 2 18.666 3 27.999 3c17.333 0 36 -2.83301 56 -8.5s41.333 -13.5 64 -23.5c30.667 -5.33301 58.834 -12 84.501 -20s46.834 -14 63.501 -18c26 5.33301 54 14.166 84 26.499s64.333 29.5 103 51.5z" />
    <glyph glyph-name="currency" unicode="&#xa4;" horiz-adv-x="720" 
d="M362 457c-16.667 -2 -33.001 -7.16504 -49.001 -15.498s-30.333 -18.833 -43 -31.5s-23.167 -26.834 -31.5 -42.501s-13.5 -31.834 -15.5 -48.501c2 -16.667 7.16699 -32.834 15.5 -48.501s18.833 -29.834 31.5 -42.501s26.834 -23 42.501 -31s32.167 -13 49.5 -15
c16.667 2 32.834 7.16699 48.501 15.5s29.834 18.666 42.501 30.999s23.167 26.333 31.5 42s13.5 31.834 15.5 48.501c-2 16.667 -7.16699 32.834 -15.5 48.501s-18.833 29.834 -31.5 42.501s-26.834 23.167 -42.501 31.5s-31.834 13.5 -48.501 15.5zM83.999 543.002
c5.33301 8 13.333 17.501 24 28.501s20 19.167 28 24.5c8 -5.33301 16.833 -12 26.5 -20s19.167 -16.833 28.5 -26.5l26.5 -28.5c8.33301 -9.33301 15.166 -18 20.499 -26c27.333 26.667 59.666 40 96.999 40c4 0 8 -0.166992 12 -0.5s8.33301 -0.833008 13 -1.5
c4.66699 0.666992 9.16699 1.16699 13.5 1.5s8.5 0.5 12.5 0.5c38 0 70.667 -13.333 98 -40c5.33301 8 12.166 16.667 20.499 26l26.5 28.5c9.33301 9.66699 18.833 18.5 28.5 26.5s18.5 14.667 26.5 20c8 -5.33301 17.333 -13.5 28 -24.5s18.667 -20.5 24 -28.5
c-5.33301 -8 -12.166 -16.833 -20.499 -26.5s-17.166 -19.334 -26.499 -29.001s-18.833 -18.667 -28.5 -27s-18.5 -15.166 -26.5 -20.499c26.667 -26.667 40 -58.667 40 -96c0 -4 -0.166992 -8 -0.5 -12s-0.833008 -8.33301 -1.5 -13
c0.666992 -4 1.16699 -8.16699 1.5 -12.5s0.5 -8.5 0.5 -12.5c0 -36 -13.333 -67.667 -40 -95c8 -4.66699 16.833 -11.334 26.5 -20.001s19.167 -17.834 28.5 -27.501s18.166 -19.334 26.499 -29.001s15.166 -18.5 20.499 -26.5c-5.33301 -8 -13.333 -17.333 -24 -28
s-20 -18.667 -28 -24c-8 5.33301 -16.833 12 -26.5 20s-19.167 16.833 -28.5 26.5l-26.5 28.5c-8.33301 9.33301 -15.166 18 -20.499 26c-27.333 -26.667 -59.666 -40 -96.999 -40c-4 0 -8 0.166992 -12 0.5s-8.33301 0.833008 -13 1.5
c-4.66699 -0.666992 -9.16699 -1.16699 -13.5 -1.5s-8.5 -0.5 -12.5 -0.5c-38 0 -70.667 13.333 -98 40c-5.33301 -8 -12.166 -16.667 -20.499 -26l-26.5 -28.5c-9.33301 -9.66699 -18.833 -18.5 -28.5 -26.5s-18.5 -14.667 -26.5 -20c-8 5.33301 -17.333 13.333 -28 24
s-18.667 20 -24 28c5.33301 8 12 16.833 20 26.5s16.833 19.334 26.5 29.001l28.5 27.5c9.33301 8.66699 18 15.334 26 20.001c-26 28 -39 59.667 -39 95c0 4 0.166992 8 0.5 12s0.833008 8.33301 1.5 13c-0.666992 4.66699 -1.16699 9 -1.5 13s-0.5 8 -0.5 12
c0 37.333 13 69.333 39 96c-8 5.33301 -16.667 12.166 -26 20.499s-18.833 17.333 -28.5 27s-18.5 19.334 -26.5 29.001s-14.667 18.5 -20 26.5z" />
    <glyph glyph-name="brokenbar" unicode="&#xa6;" horiz-adv-x="569" 
d="M240 -176c-10.667 51.333 -16 114.666 -16 189.999c0 36 1.33301 70.833 4 104.5s6.66699 62.5 12 86.5l20 2.5c8 1 16.333 1.5 25 1.5s17 -0.5 25 -1.5l20 -2.5c5.33301 -24 9.33301 -52.833 12 -86.5s4 -68.5 4 -104.5c0 -75.333 -5.33301 -138.666 -16 -189.999
c-5.33301 -1.33301 -12 -2.33301 -20 -3s-16.333 -1 -25 -1s-17 0.333008 -25 1s-14.667 1.66699 -20 3zM240 338c-5.33301 24 -9.33301 52.833 -12 86.5s-4 68.167 -4 103.5s1.33301 69.833 4 103.5s6.66699 62.5 12 86.5c5.33301 1.33301 12 2.33301 20 3s16.333 1 25 1
s17 -0.333008 25 -1s14.667 -1.66699 20 -3c5.33301 -24 9.33301 -52.833 12 -86.5s4 -68.167 4 -103.5s-1.33301 -69.833 -4 -103.5s-6.66699 -62.5 -12 -86.5c-5.33301 -1.33301 -12 -2.33301 -20 -3s-16.333 -1 -25 -1s-17 0.333008 -25 1s-14.667 1.66699 -20 3zM0 -223
h1v-1h-1v1z" />
    <glyph glyph-name="section" unicode="&#xa7;" horiz-adv-x="487" 
d="M310 238c10.667 8 18.001 15.165 22.001 21.498s6.66699 12.833 8 19.5c-2 14.667 -7.33301 27.167 -16 37.5s-20 20 -34 29s-30.667 17.833 -50 26.5s-40.333 18.667 -63 30c-12.667 -9.33301 -21.334 -17.666 -26.001 -24.999s-7.66699 -15.666 -9 -24.999
c4.66699 -17.333 21.167 -33.333 49.5 -48s67.833 -36.667 118.5 -66zM333.001 490.998c-0.666992 3.33301 -0.999023 6.66406 -0.999023 9.99707v11c0 33.333 -5.66699 58 -17 74s-35 25.333 -71 28c-28.667 -2.66699 -50.5 -9.33398 -65.5 -20.001
s-23.167 -22.667 -24.5 -36c1.33301 -8.66699 9.16602 -17.667 23.499 -27s31.5 -18.833 51.5 -28.5l63 -30c22 -10.333 41.333 -20.833 58 -31.5c27.333 -9.33301 47.666 -22.666 60.999 -39.999s20 -40.333 20 -69v-10c0 -3.33301 -0.333008 -7 -1 -11
c0.666992 -3.33301 1 -6.83301 1 -10.5v-10.5c0 -48 -16.333 -78.333 -49 -91c30.667 -15.333 46 -44.666 46 -87.999v-11c0 -4 -0.333008 -8 -1 -12c0.666992 -4 1 -7.83301 1 -11.5v-10.5c0 -47.333 -13 -82 -39 -104s-64.667 -33 -116 -33h-16
c-6 0 -11.667 0.333008 -17 1c-6 -0.666992 -12 -1 -18 -1h-17c-52 0 -89.667 11.167 -113 33.5s-35 60.166 -35 113.499v16c0 5.33301 0.333008 10.666 1 15.999c-1.33301 6.66699 -2 13.334 -2 20.001c0 10.667 2.66699 17.334 8 20.001s12.333 4 21 4h21
c9.33301 0 18.166 -0.333008 26.499 -1s15.5 -1.66699 21.5 -3c2.66699 -10.667 2.66699 -21.334 0 -32.001c2.66699 -30.667 10.334 -52.667 23.001 -66s34.334 -21.333 65.001 -24c29.333 2.66699 51.5 9 66.5 19s23.167 21.667 24.5 35
c-1.33301 10 -9.16602 19.667 -23.499 29s-31.333 18.833 -51 28.5l-61 29c-21 9.66699 -39.167 19.834 -54.5 30.501c-32.667 12 -56 26.833 -70 44.5s-21 41.834 -21 72.501c0 4.66699 0.166992 9.16699 0.5 13.5s0.833008 9.16602 1.5 14.499
c-0.666992 3.33301 -1 6.83301 -1 10.5v10.5c0 43.333 16.333 70 49 80c-14.667 7.33301 -25.834 17.5 -33.501 30.5s-11.5 30.167 -11.5 51.5v10.5c0 3.66699 0.333008 7.5 1 11.5c-0.666992 4 -1 8 -1 12v12c0 48.667 12.667 84.167 38 106.5s64 33.5 116 33.5h16
c5.33301 0 11 -0.333008 17 -1c6 0.666992 12 1.16699 18 1.5s11.667 0.5 17 0.5c49.333 0 87 -15.333 113 -46c12 -7.33301 21.167 -16.166 27.5 -26.499s9.5 -28.166 9.5 -53.499c0 -5.33301 -0.166992 -11.5 -0.5 -18.5s-0.833008 -14.167 -1.5 -21.5
c0.666992 -3.33301 1.16699 -7.5 1.5 -12.5s0.5 -10.167 0.5 -15.5c0 -18 -4 -27.667 -12 -29s-20.333 -2 -37 -2c-9.33301 0 -18 0.5 -26 1.5s-15 1.83301 -21 2.5z" />
    <glyph glyph-name="copyright" unicode="&#xa9;" horiz-adv-x="853" 
d="M606 448c-6 -1.33301 -13.1641 -2.33398 -21.4971 -3.00098s-16.833 -1 -25.5 -1s-17.167 0.333008 -25.5 1s-15.5 1.66699 -21.5 3c-4.66699 21.333 -14.5 38.333 -29.5 51s-33.833 20.334 -56.5 23.001c-26.667 -2.66699 -48.667 -17.5 -66 -44.5s-28 -63.5 -32 -109.5
c4 -46 14.667 -81.833 32 -107.5s40.666 -40.167 69.999 -43.5c46 5.33301 74.333 32.333 85 81c6 1.33301 13.333 2.33301 22 3s17.667 1 27 1s18.166 -0.333008 26.499 -1s15.5 -1.66699 21.5 -3c1.33301 -48 -12.667 -85.833 -42 -113.5s-69 -41.5 -119 -41.5h-12
c-4 0 -8 0.333008 -12 1c-4 -0.666992 -7.83301 -1 -11.5 -1h-11.5c-56.667 0 -100.667 16.833 -132 50.5s-47 80.834 -47 141.501v14c0 4.66699 0.333008 9.66699 1 15c-0.666992 5.33301 -1 10.333 -1 15v14c0 61.333 16 109.666 48 144.999s76.333 53 133 53h10.5
c3.66699 0 7.5 -0.333008 11.5 -1c4 0.666992 8 1 12 1h12c47.333 0 85.166 -12.833 113.499 -38.5s41.833 -60.5 40.5 -104.5zM427.003 677.999c-82 -12 -154.999 -41.9961 -218.999 -89.9961c-23.333 -32.667 -42 -67.834 -56 -105.501s-24 -75.834 -30 -114.501
c6 -38.667 16 -77 30 -115s32.667 -73 56 -105c31.333 -22.667 66 -41.834 104 -57.501s76.333 -26.5 115 -32.5c80 12 153.667 42.667 221 92c23.333 30.667 41.666 64.5 54.999 101.5s23 75.833 29 116.5c-6 39.333 -15.833 77.666 -29.5 114.999s-32.167 72 -55.5 104
c-66 48.667 -139.333 79 -220 91zM426.004 740.003c14.667 2 29.333 2.99805 44 2.99805c90 0 163.667 -37.667 221 -113c73.333 -55.333 110 -128 110 -218c0 -14.667 -1 -30 -3 -46c2 -14.667 3 -29.334 3 -44.001c0 -88.667 -36.667 -160.667 -110 -216
c-28.667 -37.333 -62 -65.666 -100 -84.999s-78.667 -29 -122 -29c-14.667 0 -29 1 -43 3c-14 -2 -27.667 -3 -41 -3c-88.667 0 -162 38 -220 114c-74.667 56 -112 128.667 -112 218c0 14 1 28 3 42c-2 14.667 -3 29.334 -3 44.001c0 43.333 9.5 83.833 28.5 121.5
s46.833 70.834 83.5 99.501c56 74.667 128.667 112 218 112c14.667 0 29 -1 43 -3z" />
    <glyph glyph-name="guillemotleft" unicode="&#xab;" horiz-adv-x="457" 
d="M357 303c8 -14 15.833 -31.333 23.5 -52s14.834 -42.167 21.501 -64.5s12.334 -44.333 17.001 -66s7.33398 -40.5 8.00098 -56.5c-7.33301 -1.33301 -15.833 -2.33301 -25.5 -3s-19.834 -1 -30.501 -1s-20.834 0.333008 -30.501 1s-18.167 1.66699 -25.5 3
c-8 14 -15.833 31.333 -23.5 52s-14.834 42.167 -21.501 64.5s-12.334 44.333 -17.001 66s-7.33398 40.5 -8.00098 56.5c0.666992 16 3.33398 35.167 8.00098 57.5s10.334 45 17.001 68s13.834 45.167 21.501 66.5s15.5 39 23.5 53c7.33301 1.33301 15.833 2.33301 25.5 3
s19.834 1 30.501 1s20.834 -0.333008 30.501 -1s18.167 -1.66699 25.5 -3c-0.666992 -16 -3.33398 -35.167 -8.00098 -57.5s-10.334 -45 -17.001 -68s-13.834 -45.167 -21.501 -66.5s-15.5 -39 -23.5 -53zM154 303c8 -14 15.833 -31.333 23.5 -52
s14.834 -42.167 21.501 -64.5s12.167 -44.333 16.5 -66s7.16602 -40.5 8.49902 -56.5c-6.66699 -1.33301 -15 -2.33301 -25 -3s-20.333 -1 -31 -1s-21 0.333008 -31 1s-18.667 1.66699 -26 3c-8 14 -15.833 31.333 -23.5 52s-14.834 42.167 -21.501 64.5
s-12.334 44.333 -17.001 66s-7.33398 40.5 -8.00098 56.5c0.666992 16 3.33398 35.167 8.00098 57.5s10.334 45 17.001 68s13.834 45.167 21.501 66.5s15.5 39 23.5 53c7.33301 1.33301 16 2.33301 26 3s20.333 1 31 1s21 -0.333008 31 -1s18.333 -1.66699 25 -3
c-1.33301 -16 -4.16602 -35.167 -8.49902 -57.5s-9.83301 -45 -16.5 -68s-13.834 -45.167 -21.501 -66.5s-15.5 -39 -23.5 -53z" />
    <glyph glyph-name="logicalnot" unicode="&#xac;" horiz-adv-x="720" 
d="M604 182c-5.33301 -1.33301 -11.998 -2.33398 -19.998 -3.00098s-16 -1 -24 -1s-15.833 0.333008 -23.5 1s-14.167 1.66699 -19.5 3c-2 9.33301 -3.5 20.666 -4.5 33.999s-1.5 27.333 -1.5 42s0.5 28.834 1.5 42.501s2.5 25.167 4.5 34.5
c-23.333 -4.66699 -51 -8.33398 -83 -11.001s-65.333 -4 -100 -4s-68.334 1.33301 -101.001 4s-60.334 6.33398 -83.001 11.001c-1.33301 6 -2.33301 13.333 -3 22s-1 17.667 -1 27s0.333008 18.333 1 27s1.66699 16 3 22c28.667 6 63 10.667 103 14s81.333 5 124 5
s84 -1.66699 124 -5s74.333 -8 103 -14c3.33301 -16 5.83301 -35 7.5 -57s2.5 -44.667 2.5 -68s-0.833008 -46.166 -2.5 -68.499s-4.16699 -41.5 -7.5 -57.5z" />
    <glyph glyph-name="registered" unicode="&#xae;" horiz-adv-x="853" 
d="M417 517c-3.33301 -0.666992 -7 -1.00195 -11 -1.00195h-12c-8.66699 0 -14.334 -1.33301 -17.001 -4s-4 -6.66699 -4 -12s0.666992 -11.5 2 -18.5s2 -14.833 2 -23.5c0 -10.667 -0.333008 -21.5 -1 -32.5s-2 -20.167 -4 -27.5c2.66699 1.33301 6.33398 2 11.001 2h14
c32 0 58.333 3.83301 79 11.5s31 22.5 31 44.5c0 18.667 -8 32.834 -24 42.501s-38 15.834 -66 18.501zM272 167.998c-6 26 -10.3271 57.1689 -12.9941 93.502s-4 73.833 -4 112.5s1.33301 76.167 4 112.5s7 67.5 13 93.5c10 2 22.167 3.66699 36.5 5s29.166 2 44.499 2
s30.166 -0.666992 44.499 -2s26.5 -3 36.5 -5c6.66699 0.666992 13 1.16699 19 1.5s11.667 0.5 17 0.5c98.667 0 145.334 -40 140.001 -120c2.66699 -30 -3.83301 -54.667 -19.5 -74s-39.167 -31.333 -70.5 -36c8 -10 16.833 -22.833 26.5 -38.5s18.667 -32.167 27 -49.5
s16 -34.5 23 -51.5s12.167 -31.833 15.5 -44.5c-6.66699 -1.33301 -15 -2.33301 -25 -3s-20.333 -1 -31 -1s-21 0.333008 -31 1s-18.333 1.66699 -25 3c-7.33301 9.33301 -15 21.166 -23 35.499s-15.667 29.5 -23 45.5s-13.833 31.667 -19.5 47s-9.83398 29 -12.501 41
c-2.66699 -0.666992 -6.33398 -1.16699 -11.001 -1.5s-9.33398 -0.5 -14.001 -0.5s-9.33398 0.166992 -14.001 0.5s-8.33398 0.833008 -11.001 1.5c2 -10.667 3.66699 -23.5 5 -38.5s2 -30.5 2 -46.5s-0.666992 -31.333 -2 -46s-3 -27.334 -5 -38.001
c-6 -1.33301 -13.5 -2.33301 -22.5 -3s-18.167 -1 -27.5 -1s-18.5 0.333008 -27.5 1s-16.5 1.66699 -22.5 3zM427.006 678c-80 -12 -152.001 -41.3301 -216.001 -87.9971c-24.667 -33.333 -44.167 -69 -58.5 -107s-24.5 -76.333 -30.5 -115
c6 -38.667 15.833 -76.834 29.5 -114.501s31.834 -72.167 54.501 -103.5c32 -24 67 -44.167 105 -60.5s76.333 -27.5 115 -33.5c37.333 6 75 17 113 33s73.667 35.667 107 59c22.667 30.667 41.167 64.667 55.5 102s24.5 74.666 30.5 111.999
c-6 41.333 -15.5 80.666 -28.5 117.999s-31.167 72 -54.5 104c-65.333 50.667 -139.333 82 -222 94zM426.005 740.003c14.667 2 29.334 3 44.001 3c91.333 0 165.666 -38.333 222.999 -115c72 -56 108 -128.667 108 -218c0 -14 -1 -28.667 -3 -44c2 -14.667 3 -29 3 -43
c0 -90.667 -37.333 -163.667 -112 -219c-28.667 -36.667 -62 -64.5 -100 -83.5s-78.667 -28.5 -122 -28.5c-13.333 0 -27 1 -41 3c-14 -2 -28.333 -3 -43 -3c-44 0 -84.833 9.83301 -122.5 29.5s-70.5 48.5 -98.5 86.5c-72.667 55.333 -109 127.333 -109 216c0 14 1 28 3 42
c-2 13.333 -3 26.666 -3 39.999c0 56 19 107.333 57 154c25.333 58.667 61.833 103.834 109.5 135.501s102.167 47.5 163.5 47.5c14 0 28.333 -1 43 -3z" />
    <glyph glyph-name="degree" unicode="&#xb0;" horiz-adv-x="364" 
d="M183 670c-31.333 -2.66699 -54 -13.168 -68 -31.501s-22.333 -37.166 -25 -56.499c2.66699 -20 11 -39.167 25 -57.5s36.667 -28.833 68 -31.5c30.667 2.66699 53 13.334 67 32.001s22.333 37.667 25 57c-2.66699 19.333 -11 38.166 -25 56.499s-36.333 28.833 -67 31.5z
M183 733.999c24 2 46.165 -0.333984 66.498 -7.00098s37.833 -16.667 52.5 -30s25.834 -29.833 33.501 -49.5s10.5 -41.5 8.5 -65.5c2 -24.667 -0.833008 -46.834 -8.5 -66.501s-19 -36.334 -34 -50.001s-32.667 -23.667 -53 -30s-42.5 -8.5 -66.5 -6.5
c-24 -2 -46.333 0.166992 -67 6.5s-38.334 16.333 -53.001 30s-25.667 30.334 -33 50.001s-10 41.834 -8 66.501c-2 24 0.833008 45.833 8.5 65.5s18.834 36.334 33.501 50.001s32.334 23.667 53.001 30s43 8.5 67 6.5z" />
    <glyph glyph-name="plusminus" unicode="&#xb1;" horiz-adv-x="720" 
d="M65 -1l-2.5 22c-1 8.66699 -1.5 17.667 -1.5 27s0.5 18.5 1.5 27.5l2.5 22.5c36.667 8 81.167 14 133.5 18s106.166 6 161.499 6s109.166 -2 161.499 -6s96.833 -10 133.5 -18l2.5 -22.5c1 -9 1.5 -18.167 1.5 -27.5s-0.5 -18.333 -1.5 -27l-2.5 -22
c-36.667 -8 -81.167 -14 -133.5 -18s-106.166 -6 -161.499 -6s-109.166 2 -161.499 6s-96.833 10 -133.5 18zM315 449c-2 10 -3.66699 22.5 -5 37.5s-2 30.167 -2 45.5s0.666992 30.333 2 45s3 27 5 37c6 1.33301 12.833 2.33301 20.5 3s15.834 1 24.501 1
s16.834 -0.333008 24.501 -1s14.5 -1.66699 20.5 -3c2 -10 3.66699 -22.333 5 -37s2 -29.667 2 -45s-0.666992 -30.5 -2 -45.5s-3 -27.5 -5 -37.5c33.333 7.33301 75 11 125 11s91.667 -3.66699 125 -11l2.5 -22c1 -8.66699 1.5 -17.667 1.5 -27s-0.5 -18.5 -1.5 -27.5
l-2.5 -22.5c-16 -3.33301 -35 -5.83301 -57 -7.5s-44.667 -2.5 -68 -2.5s-46 0.833008 -68 2.5s-41 4.16699 -57 7.5c2 -10 3.66699 -22.5 5 -37.5s2 -29.833 2 -44.5s-0.666992 -29.334 -2 -44.001s-3 -27 -5 -37c-6 -0.666992 -12.833 -1.5 -20.5 -2.5
s-15.834 -1.5 -24.501 -1.5s-16.834 0.5 -24.501 1.5s-14.5 1.83301 -20.5 2.5c-2 10 -3.66699 22.333 -5 37s-2 29.334 -2 44.001s0.666992 29.5 2 44.5s3 27.5 5 37.5c-16 -3.33301 -35 -5.83301 -57 -7.5s-44.667 -2.5 -68 -2.5s-46 0.833008 -68 2.5
s-41 4.16699 -57 7.5l-2.5 22.5c-1 9 -1.5 18.167 -1.5 27.5s0.5 18.333 1.5 27l2.5 22c33.333 7.33301 75 11 125 11s91.667 -3.66699 125 -11z" />
    <glyph glyph-name="mu" unicode="&#xb5;" horiz-adv-x="720" 
d="M63 -220c-0.666992 8 -0.998047 16 -0.998047 24v26c0 52 3.33301 110.667 10 176s15.834 131 27.501 197s25 129.333 40 190s30.833 112.334 47.5 155.001c7.33301 1.33301 15.666 2.33301 24.999 3s19 1 29 1s19.667 -0.333008 29 -1s17.666 -1.66699 24.999 -3
c0.666992 -14 0.166992 -30.833 -1.5 -50.5s-4 -39.834 -7 -60.501s-6.83301 -40.5 -11.5 -59.5s-9.66699 -35.167 -15 -48.5c-1.33301 -28 -3 -53.833 -5 -77.5s-4.66699 -42.5 -8 -56.5c2.66699 -27.333 11.167 -49 25.5 -65s35.833 -25.333 64.5 -28
c31.333 3.33301 56.666 19.5 75.999 48.5s36.666 75.5 51.999 139.5c-0.666992 16.667 0 36.667 2 60s5 47 9 71s8.83301 47.333 14.5 70s11.5 41.667 17.5 57c6.66699 1.33301 14.834 2.33301 24.501 3s19.5 1 29.5 1s19.5 -0.333008 28.5 -1s17.167 -1.66699 24.5 -3
c0.666992 -5.33301 1 -11 1 -17v-19c0 -37.333 -2.5 -79.166 -7.5 -125.499s-11.5 -93 -19.5 -140s-17.5 -92.167 -28.5 -135.5s-22.5 -80.333 -34.5 -111c-10 -2 -23.333 -3 -40 -3c-22 0 -35.333 3.83301 -40 11.5s-7 19.5 -7 35.5v21c0 4.66699 0.166992 9.5 0.5 14.5
s0.833008 9.5 1.5 13.5c-16.667 -42 -35 -71.333 -55 -88s-40.667 -23.667 -62 -21c-20.667 -2.66699 -40.167 1.66602 -58.5 12.999s-35.166 37 -50.499 77c0 -3.33301 0.166992 -7 0.5 -11s0.5 -8 0.5 -12c0 -20 -1.33301 -42.333 -4 -67s-6 -49.5 -10 -74.5
s-8.83301 -48.833 -14.5 -71.5s-11.5 -42 -17.5 -58c-6.66699 -1.33301 -14.834 -2.33301 -24.501 -3s-19.5 -1 -29.5 -1s-19.5 0.333008 -28.5 1s-17.167 1.66699 -24.5 3z" />
    <glyph glyph-name="paragraph" unicode="&#xb6;" horiz-adv-x="720" 
d="M279 742c16.667 4 37.0039 6.83301 61.0039 8.5s48.667 2.5 74 2.5s50 -0.833008 74 -2.5s44.667 -4.5 62 -8.5c1.33301 -3.33301 2 -7.5 2 -12.5v-15.5v-15.5c0 -5 -0.666992 -9.16699 -2 -12.5c-3.33301 -1.33301 -7.66602 -2 -12.999 -2h-16h-16
c-5.33301 0 -9.66602 0.666992 -12.999 2c9.33301 -42.667 16.333 -94.5 21 -155.5s7 -123.5 7 -187.5s-2.33301 -126.5 -7 -187.5s-11.667 -112.833 -21 -155.5c-2.66699 -1.33301 -6.33398 -2 -11.001 -2h-15h-15c-4.66699 0 -8.33398 0.666992 -11.001 2
c-9.33301 42.667 -16.333 94.5 -21 155.5s-7 123.5 -7 187.5s2.33301 126.5 7 187.5s11.667 112.833 21 155.5c-6.66699 -1.33301 -14.834 -2.33301 -24.501 -3s-19.5 -1 -29.5 -1s-19.833 0.333008 -29.5 1s-17.834 1.66699 -24.501 3
c9.33301 -42.667 16.333 -94.5 21 -155.5s7 -123.5 7 -187.5s-2.33301 -126.5 -7 -187.5s-11.667 -112.833 -21 -155.5c-2.66699 -1.33301 -6.33398 -2 -11.001 -2h-15h-15c-4.66699 0 -8.33398 0.666992 -11.001 2c-5.33301 24.667 -9.33301 54.167 -12 88.5
s-4 70.166 -4 107.499s1.33301 73.333 4 108s6.66699 64.334 12 89.001c-60 -3.33301 -106.833 8.5 -140.5 35.5s-50.5 66.167 -50.5 117.5v10.5c0 3.66699 0.333008 7.16699 1 10.5c-0.666992 3.33301 -1 6.83301 -1 10.5v10.5c0 49.333 14.833 87.5 44.5 114.5
s70.167 40.5 121.5 40.5h12c4 0 8 -0.333008 12 -1z" />
    <glyph glyph-name="guillemotright" unicode="&#xbb;" horiz-adv-x="457" 
d="M303 307c-8 14 -15.8311 31.333 -23.498 52s-14.834 42.334 -21.501 65.001s-12.334 44.834 -17.001 66.501s-7.33398 40.5 -8.00098 56.5c15.333 3.33301 34 5 56 5s40.667 -1.66699 56 -5c8 -14 16 -31.333 24 -52s15.333 -42.334 22 -65.001
s12.334 -44.834 17.001 -66.501s7.66699 -40.5 9 -56.5c-1.33301 -16 -4.33301 -35.167 -9 -57.5s-10.334 -45 -17.001 -68s-14 -45.167 -22 -66.5s-16 -39 -24 -53c-7.33301 -1.33301 -15.833 -2.33301 -25.5 -3s-19.834 -1 -30.501 -1s-20.834 0.333008 -30.501 1
s-18.167 1.66699 -25.5 3c0.666992 16 3.33398 35.167 8.00098 57.5s10.334 45 17.001 68s13.834 45.167 21.501 66.5s15.5 39 23.5 53zM100.002 307c-8 14 -15.833 31.333 -23.5 52s-14.834 42.334 -21.501 65.001s-12.334 44.834 -17.001 66.501s-7.66699 40.5 -9 56.5
c15.333 3.33301 34.333 5 57 5c22 0 40.667 -1.66699 56 -5c8 -14 15.833 -31.333 23.5 -52s14.834 -42.334 21.501 -65.001s12.167 -44.834 16.5 -66.501s7.16602 -40.5 8.49902 -56.5c-1.33301 -16 -4.16602 -35.167 -8.49902 -57.5s-9.83301 -45 -16.5 -68
s-13.834 -45.167 -21.501 -66.5s-15.5 -39 -23.5 -53c-6.66699 -1.33301 -15 -2.33301 -25 -3s-20.333 -1 -31 -1s-21 0.333008 -31 1s-18.667 1.66699 -26 3c0.666992 16 3.33398 35.167 8.00098 57.5s10.334 45 17.001 68s14 45.167 22 66.5s16 39 24 53z" />
    <glyph glyph-name="Agrave" unicode="&#xc0;" horiz-adv-x="498" 
d="M189 252c7.33301 2 16.333 3.33301 27 4s21.667 1 33 1s22.333 -0.333008 33 -1s19.667 -2 27 -4c-9.33301 63.333 -18.833 121.5 -28.5 174.5l-31.5 167.5l-31.5 -167.5c-9.66699 -53 -19.167 -111.167 -28.5 -174.5zM189 0
c-8.66699 -2 -19.8311 -3.49902 -33.498 -4.49902s-27.5 -1.5 -41.5 -1.5s-27.833 0.5 -41.5 1.5s-24.834 2.5 -33.501 4.5c-4 17.333 -6 40 -6 68c0 28.667 2 51.667 6 69c-6 55.333 -9 107 -9 155c0 94 12.333 174.333 37 241s62.334 123 113.001 169c17.333 4 40 6 68 6
c28.667 0 51.667 -2 69 -6c50.667 -46.667 88.5 -103.667 113.5 -171s37.5 -148.333 37.5 -243c0 -46.667 -3 -97 -9 -151c2 -8.66699 3.5 -19 4.5 -31s1.5 -24.667 1.5 -38s-0.5 -25.833 -1.5 -37.5s-2.5 -21.834 -4.5 -30.501c-8.66699 -2 -19.834 -3.5 -33.501 -4.5
s-27.5 -1.5 -41.5 -1.5s-27.833 0.5 -41.5 1.5s-24.834 2.5 -33.501 4.5c-2 8.66699 -3.33301 19 -4 31s-1 24.333 -1 37s0.333008 24.834 1 36.501s2 21.834 4 30.501c-7.33301 -2 -16.333 -3.33301 -27 -4s-21.667 -1 -33 -1s-22.333 0.333008 -33 1s-19.667 2 -27 4
c2 -8.66699 3.33301 -18.834 4 -30.501s1 -23.834 1 -36.501s-0.333008 -25 -1 -37s-2 -22.333 -4 -31z" />
    <glyph glyph-name="Agrave" unicode="&#x410;" horiz-adv-x="498" 
d="M189 252c7.33301 2 16.333 3.33301 27 4s21.667 1 33 1s22.333 -0.333008 33 -1s19.667 -2 27 -4c-9.33301 63.333 -18.833 121.5 -28.5 174.5l-31.5 167.5l-31.5 -167.5c-9.66699 -53 -19.167 -111.167 -28.5 -174.5zM189 0
c-8.66699 -2 -19.8311 -3.49902 -33.498 -4.49902s-27.5 -1.5 -41.5 -1.5s-27.833 0.5 -41.5 1.5s-24.834 2.5 -33.501 4.5c-4 17.333 -6 40 -6 68c0 28.667 2 51.667 6 69c-6 55.333 -9 107 -9 155c0 94 12.333 174.333 37 241s62.334 123 113.001 169c17.333 4 40 6 68 6
c28.667 0 51.667 -2 69 -6c50.667 -46.667 88.5 -103.667 113.5 -171s37.5 -148.333 37.5 -243c0 -46.667 -3 -97 -9 -151c2 -8.66699 3.5 -19 4.5 -31s1.5 -24.667 1.5 -38s-0.5 -25.833 -1.5 -37.5s-2.5 -21.834 -4.5 -30.501c-8.66699 -2 -19.834 -3.5 -33.501 -4.5
s-27.5 -1.5 -41.5 -1.5s-27.833 0.5 -41.5 1.5s-24.834 2.5 -33.501 4.5c-2 8.66699 -3.33301 19 -4 31s-1 24.333 -1 37s0.333008 24.834 1 36.501s2 21.834 4 30.501c-7.33301 -2 -16.333 -3.33301 -27 -4s-21.667 -1 -33 -1s-22.333 0.333008 -33 1s-19.667 2 -27 4
c2 -8.66699 3.33301 -18.834 4 -30.501s1 -23.834 1 -36.501s-0.333008 -25 -1 -37s-2 -22.333 -4 -31z" />
    <glyph glyph-name="Aacute" unicode="&#xc1;" horiz-adv-x="522" 
d="M204 325c2.66699 -12 4.66699 -26.668 6 -44.001s2 -35 2 -53s-0.666992 -35.5 -2 -52.5s-3.33301 -31.5 -6 -43.5c13.333 2.66699 26.333 2.66699 39 0c32.667 2.66699 55.167 11.167 67.5 25.5s19.833 36.833 22.5 67.5c-3.33301 34.667 -9.33301 60.334 -18 77.001
s-25.667 26 -51 28c-10.667 -1.33301 -21 -2.5 -31 -3.5s-19.667 -1.5 -29 -1.5zM57 -0.000976562c-10 44 -17.3369 97.002 -22.0039 159.002s-7 126 -7 192s2.33301 130 7 192s12 115 22 159c24 5.33301 53.333 9.33301 88 12s70.334 4 107.001 4
s72.334 -1.33301 107.001 -4s64 -6.66699 88 -12c2 -8 3.33301 -17.833 4 -29.5s1 -23.834 1 -36.501s-0.333008 -24.834 -1 -36.501s-2 -21.5 -4 -29.5c-15.333 -2.66699 -33.666 -5 -54.999 -7s-43.333 -3 -66 -3s-45 1 -67 3s-40.333 4.33301 -55 7
c2 -7.33301 3.33301 -16.5 4 -27.5s1 -21.833 1 -32.5s-0.333008 -21.5 -1 -32.5s-2 -20.167 -4 -27.5c18 5.33301 35.667 8 53 8c4.66699 0 9 -0.166992 13 -0.5s8.33301 -0.833008 13 -1.5c5.33301 0.666992 10.5 1 15.5 1h15.5c57.333 0 100.166 -14.833 128.499 -44.5
s42.5 -78.167 42.5 -145.5c0 -6.66699 -0.166992 -13.5 -0.5 -20.5s-0.833008 -14.167 -1.5 -21.5c0.666992 -9.33301 1.16699 -18.333 1.5 -27s0.5 -17 0.5 -25c0 -64 -12.167 -109 -36.5 -135s-67.5 -39 -129.5 -39h-19c-6.66699 0 -13.667 0.333008 -21 1
c-14 -2.66699 -30.667 -4.83398 -50 -6.50098s-39.666 -2.5 -60.999 -2.5s-41.666 0.833008 -60.999 2.5s-36 3.83398 -50 6.50098z" />
    <glyph glyph-name="Aacute" unicode="&#x411;" horiz-adv-x="522" 
d="M204 325c2.66699 -12 4.66699 -26.668 6 -44.001s2 -35 2 -53s-0.666992 -35.5 -2 -52.5s-3.33301 -31.5 -6 -43.5c13.333 2.66699 26.333 2.66699 39 0c32.667 2.66699 55.167 11.167 67.5 25.5s19.833 36.833 22.5 67.5c-3.33301 34.667 -9.33301 60.334 -18 77.001
s-25.667 26 -51 28c-10.667 -1.33301 -21 -2.5 -31 -3.5s-19.667 -1.5 -29 -1.5zM57 -0.000976562c-10 44 -17.3369 97.002 -22.0039 159.002s-7 126 -7 192s2.33301 130 7 192s12 115 22 159c24 5.33301 53.333 9.33301 88 12s70.334 4 107.001 4
s72.334 -1.33301 107.001 -4s64 -6.66699 88 -12c2 -8 3.33301 -17.833 4 -29.5s1 -23.834 1 -36.501s-0.333008 -24.834 -1 -36.501s-2 -21.5 -4 -29.5c-15.333 -2.66699 -33.666 -5 -54.999 -7s-43.333 -3 -66 -3s-45 1 -67 3s-40.333 4.33301 -55 7
c2 -7.33301 3.33301 -16.5 4 -27.5s1 -21.833 1 -32.5s-0.333008 -21.5 -1 -32.5s-2 -20.167 -4 -27.5c18 5.33301 35.667 8 53 8c4.66699 0 9 -0.166992 13 -0.5s8.33301 -0.833008 13 -1.5c5.33301 0.666992 10.5 1 15.5 1h15.5c57.333 0 100.166 -14.833 128.499 -44.5
s42.5 -78.167 42.5 -145.5c0 -6.66699 -0.166992 -13.5 -0.5 -20.5s-0.833008 -14.167 -1.5 -21.5c0.666992 -9.33301 1.16699 -18.333 1.5 -27s0.5 -17 0.5 -25c0 -64 -12.167 -109 -36.5 -135s-67.5 -39 -129.5 -39h-19c-6.66699 0 -13.667 0.333008 -21 1
c-14 -2.66699 -30.667 -4.83398 -50 -6.50098s-39.666 -2.5 -60.999 -2.5s-41.666 0.833008 -60.999 2.5s-36 3.83398 -50 6.50098z" />
    <glyph glyph-name="Acircumflex" unicode="&#xc2;" horiz-adv-x="527" 
d="M204 574c2 -8.66699 3.33398 -18.8301 4.00098 -30.4971s1 -23.834 1 -36.501s-0.333008 -24.834 -1 -36.501s-2 -21.834 -4 -30.501c11.333 2.66699 22.666 2.66699 33.999 0c32.667 2.66699 54.167 11 64.5 25s16.5 30.333 18.5 49c-2 29.333 -10.5 46.333 -25.5 51
s-35.5 7 -61.5 7h-16.5c-5 0 -9.5 0.666992 -13.5 2zM204.001 323.004c2.66699 -12 4.66992 -26.333 6.00293 -43s2 -34 2 -52s-0.666992 -35.5 -2 -52.5s-3.33301 -31.5 -6 -43.5c13.333 2.66699 26.333 2.66699 39 0c32.667 2.66699 54.667 9.66699 66 21
s18.333 32.333 21 63c-2.66699 27.333 -9.66699 51.5 -21 72.5s-29.666 32.5 -54.999 34.5c-2.66699 -0.666992 -6.33398 -1.16699 -11.001 -1.5s-9.33398 -0.5 -14.001 -0.5s-9.33398 0.166992 -14.001 0.5s-8.33398 0.833008 -11.001 1.5zM57.0039 0.00390625
c-10 44 -17.332 97 -21.999 159s-7 126 -7 192s2.33301 130 7 192s12 115 22 159c13.333 2.66699 29.5 4.83398 48.5 6.50098s38.5 2.5 58.5 2.5s39.667 -0.833008 59 -2.5s35.666 -3.83398 48.999 -6.50098c9.33301 0.666992 18.166 1.16699 26.499 1.5
s16.166 0.5 23.499 0.5c56.667 0 96.167 -10.167 118.5 -30.5s33.5 -56.833 33.5 -109.5v-17c0 -6 -0.333008 -12.333 -1 -19c4 -34.667 -1.33301 -63.667 -16 -87s-33.334 -40.333 -56.001 -51c29.333 -15.333 50.5 -33.5 63.5 -54.5s19.5 -50.167 19.5 -87.5v-21
c0 -7.33301 -0.666992 -15 -2 -23c0.666992 -8 1.16699 -15.667 1.5 -23s0.5 -14.333 0.5 -21c0 -57.333 -12 -98.5 -36 -123.5s-67.333 -37.5 -130 -37.5h-18.5c-6.33301 0 -13.166 0.333008 -20.499 1c-14 -2.66699 -30.667 -4.83398 -50 -6.50098
s-39.666 -2.5 -60.999 -2.5s-41.666 0.833008 -60.999 2.5s-36 3.83398 -50 6.50098z" />
    <glyph glyph-name="Acircumflex" unicode="&#x412;" horiz-adv-x="527" 
d="M204 574c2 -8.66699 3.33398 -18.8301 4.00098 -30.4971s1 -23.834 1 -36.501s-0.333008 -24.834 -1 -36.501s-2 -21.834 -4 -30.501c11.333 2.66699 22.666 2.66699 33.999 0c32.667 2.66699 54.167 11 64.5 25s16.5 30.333 18.5 49c-2 29.333 -10.5 46.333 -25.5 51
s-35.5 7 -61.5 7h-16.5c-5 0 -9.5 0.666992 -13.5 2zM204.001 323.004c2.66699 -12 4.66992 -26.333 6.00293 -43s2 -34 2 -52s-0.666992 -35.5 -2 -52.5s-3.33301 -31.5 -6 -43.5c13.333 2.66699 26.333 2.66699 39 0c32.667 2.66699 54.667 9.66699 66 21
s18.333 32.333 21 63c-2.66699 27.333 -9.66699 51.5 -21 72.5s-29.666 32.5 -54.999 34.5c-2.66699 -0.666992 -6.33398 -1.16699 -11.001 -1.5s-9.33398 -0.5 -14.001 -0.5s-9.33398 0.166992 -14.001 0.5s-8.33398 0.833008 -11.001 1.5zM57.0039 0.00390625
c-10 44 -17.332 97 -21.999 159s-7 126 -7 192s2.33301 130 7 192s12 115 22 159c13.333 2.66699 29.5 4.83398 48.5 6.50098s38.5 2.5 58.5 2.5s39.667 -0.833008 59 -2.5s35.666 -3.83398 48.999 -6.50098c9.33301 0.666992 18.166 1.16699 26.499 1.5
s16.166 0.5 23.499 0.5c56.667 0 96.167 -10.167 118.5 -30.5s33.5 -56.833 33.5 -109.5v-17c0 -6 -0.333008 -12.333 -1 -19c4 -34.667 -1.33301 -63.667 -16 -87s-33.334 -40.333 -56.001 -51c29.333 -15.333 50.5 -33.5 63.5 -54.5s19.5 -50.167 19.5 -87.5v-21
c0 -7.33301 -0.666992 -15 -2 -23c0.666992 -8 1.16699 -15.667 1.5 -23s0.5 -14.333 0.5 -21c0 -57.333 -12 -98.5 -36 -123.5s-67.333 -37.5 -130 -37.5h-18.5c-6.33301 0 -13.166 0.333008 -20.499 1c-14 -2.66699 -30.667 -4.83398 -50 -6.50098
s-39.666 -2.5 -60.999 -2.5s-41.666 0.833008 -60.999 2.5s-36 3.83398 -50 6.50098z" />
    <glyph glyph-name="Atilde" unicode="&#xc3;" horiz-adv-x="390" 
d="M204 0c-9.33301 -2 -20.5 -3.5 -33.5 -4.5s-26.5 -1.5 -40.5 -1.5c-30.667 0 -55 2 -73 6c-10 44 -17.333 97 -22 159s-7 126 -7 192s2.33301 130 7 192s12 115 22 159c41.333 8.66699 92.333 13 153 13s111.667 -4.33301 153 -13c2 -8.66699 3.33301 -18.834 4 -30.501
s1 -23.834 1 -36.501s-0.333008 -24.834 -1 -36.501s-2 -21.834 -4 -30.501c-10 -2 -22 -3.66699 -36 -5s-28.333 -2 -43 -2s-29.167 0.666992 -43.5 2s-26.5 3 -36.5 5c8 -35.333 13.833 -78.166 17.5 -128.499s5.5 -102.166 5.5 -155.499s-1.83301 -105.166 -5.5 -155.499
s-9.5 -93.166 -17.5 -128.499z" />
    <glyph glyph-name="Atilde" unicode="&#x413;" horiz-adv-x="390" 
d="M204 0c-9.33301 -2 -20.5 -3.5 -33.5 -4.5s-26.5 -1.5 -40.5 -1.5c-30.667 0 -55 2 -73 6c-10 44 -17.333 97 -22 159s-7 126 -7 192s2.33301 130 7 192s12 115 22 159c41.333 8.66699 92.333 13 153 13s111.667 -4.33301 153 -13c2 -8.66699 3.33301 -18.834 4 -30.501
s1 -23.834 1 -36.501s-0.333008 -24.834 -1 -36.501s-2 -21.834 -4 -30.501c-10 -2 -22 -3.66699 -36 -5s-28.333 -2 -43 -2s-29.167 0.666992 -43.5 2s-26.5 3 -36.5 5c8 -35.333 13.833 -78.166 17.5 -128.499s5.5 -102.166 5.5 -155.499s-1.83301 -105.166 -5.5 -155.499
s-9.5 -93.166 -17.5 -128.499z" />
    <glyph glyph-name="Adieresis" unicode="&#xc4;" horiz-adv-x="543" 
d="M324 129c-6 28 -10.667 61.6641 -14 100.997s-5 80 -5 122s1.66699 82.833 5 122.5s8 73.5 14 101.5c-16 -21.333 -30 -43.666 -42 -66.999s-22.667 -51.666 -32 -84.999s-17.833 -73.666 -25.5 -120.999s-14.5 -105.333 -20.5 -174c7.33301 2 16.5 3.33301 27.5 4
s21.833 1 32.5 1s21.5 -0.333008 32.5 -1s20.167 -2 27.5 -4zM405 -0.00292969c-16.667 -4 -37.3262 -6.83301 -61.9932 -8.5s-49.667 -2.5 -75 -2.5s-50 0.833008 -74 2.5s-44.667 4.5 -62 8.5c2 -7.33301 3.33301 -16.5 4 -27.5s1 -21.833 1 -32.5
s-0.333008 -21.5 -1 -32.5s-2 -20.167 -4 -27.5c-8 -2 -17.833 -3.33301 -29.5 -4s-23.834 -1 -36.501 -1s-24.834 0.333008 -36.501 1s-21.5 2 -29.5 4c-3.33301 15.333 -5.83301 34 -7.5 56s-2.5 44.667 -2.5 68s0.833008 46.166 2.5 68.499s4.16699 41.166 7.5 56.499
c3.33301 0.666992 7.5 1.16699 12.5 1.5s9.83301 0.5 14.5 0.5s9.5 -0.166992 14.5 -0.5s9.16699 -0.833008 12.5 -1.5c-6 60.667 -9 115.667 -9 165c0 54.667 4 103.5 12 146.5s21 81 39 114s41 61.5 69 85.5s62 44.667 102 62c12.667 2.66699 28.167 4.66699 46.5 6
s37.166 2 56.499 2s38.166 -0.666992 56.499 -2s34.166 -3.33301 47.499 -6c8 -36 14 -79.167 18 -129.5s6 -102.5 6 -156.5s-2 -106.333 -6 -157s-10 -94 -18 -130c4 0.666992 8.83301 1.16699 14.5 1.5s11.5 0.5 17.5 0.5s11.667 -0.166992 17 -0.5s10 -0.833008 14 -1.5
c3.33301 -15.333 6 -34.166 8 -56.499s3 -45.166 3 -68.499c0 -50 -3.66699 -91.333 -11 -124c-8 -2 -17.833 -3.33301 -29.5 -4s-23.834 -1 -36.501 -1s-24.834 0.333008 -36.501 1s-21.5 2 -29.5 4c-2 7.33301 -3.33301 16.5 -4 27.5s-1 21.833 -1 32.5
s0.333008 21.5 1 32.5s2 20.167 4 27.5z" />
    <glyph glyph-name="Adieresis" unicode="&#x414;" horiz-adv-x="543" 
d="M324 129c-6 28 -10.667 61.6641 -14 100.997s-5 80 -5 122s1.66699 82.833 5 122.5s8 73.5 14 101.5c-16 -21.333 -30 -43.666 -42 -66.999s-22.667 -51.666 -32 -84.999s-17.833 -73.666 -25.5 -120.999s-14.5 -105.333 -20.5 -174c7.33301 2 16.5 3.33301 27.5 4
s21.833 1 32.5 1s21.5 -0.333008 32.5 -1s20.167 -2 27.5 -4zM405 -0.00292969c-16.667 -4 -37.3262 -6.83301 -61.9932 -8.5s-49.667 -2.5 -75 -2.5s-50 0.833008 -74 2.5s-44.667 4.5 -62 8.5c2 -7.33301 3.33301 -16.5 4 -27.5s1 -21.833 1 -32.5
s-0.333008 -21.5 -1 -32.5s-2 -20.167 -4 -27.5c-8 -2 -17.833 -3.33301 -29.5 -4s-23.834 -1 -36.501 -1s-24.834 0.333008 -36.501 1s-21.5 2 -29.5 4c-3.33301 15.333 -5.83301 34 -7.5 56s-2.5 44.667 -2.5 68s0.833008 46.166 2.5 68.499s4.16699 41.166 7.5 56.499
c3.33301 0.666992 7.5 1.16699 12.5 1.5s9.83301 0.5 14.5 0.5s9.5 -0.166992 14.5 -0.5s9.16699 -0.833008 12.5 -1.5c-6 60.667 -9 115.667 -9 165c0 54.667 4 103.5 12 146.5s21 81 39 114s41 61.5 69 85.5s62 44.667 102 62c12.667 2.66699 28.167 4.66699 46.5 6
s37.166 2 56.499 2s38.166 -0.666992 56.499 -2s34.166 -3.33301 47.499 -6c8 -36 14 -79.167 18 -129.5s6 -102.5 6 -156.5s-2 -106.333 -6 -157s-10 -94 -18 -130c4 0.666992 8.83301 1.16699 14.5 1.5s11.5 0.5 17.5 0.5s11.667 -0.166992 17 -0.5s10 -0.833008 14 -1.5
c3.33301 -15.333 6 -34.166 8 -56.499s3 -45.166 3 -68.499c0 -50 -3.66699 -91.333 -11 -124c-8 -2 -17.833 -3.33301 -29.5 -4s-23.834 -1 -36.501 -1s-24.834 0.333008 -36.501 1s-21.5 2 -29.5 4c-2 7.33301 -3.33301 16.5 -4 27.5s-1 21.833 -1 32.5
s0.333008 21.5 1 32.5s2 20.167 4 27.5z" />
    <glyph glyph-name="Aring" unicode="&#xc5;" horiz-adv-x="426" 
d="M390 0c-21.333 -4.66699 -46.6699 -8.16406 -76.0029 -10.4971s-59.333 -3.5 -90 -3.5s-61 1.16699 -91 3.5s-55.333 5.83301 -76 10.5c-10 44 -17.333 97 -22 159s-7 126 -7 192s2.33301 130 7 192s12 115 22 159c20 4.66699 44.333 8.16699 73 10.5
s58.334 3.5 89.001 3.5s60.334 -1.16699 89.001 -3.5s53 -5.83301 73 -10.5c2 -8 3.33301 -17.833 4 -29.5s1 -23.834 1 -36.501s-0.333008 -24.834 -1 -36.501s-2 -21.5 -4 -29.5c-23.333 -5.33301 -53 -8 -89 -8c-35.333 0 -64.666 2.66699 -87.999 8
c2 -8 3.33301 -17.5 4 -28.5s1 -22.167 1 -33.5s-0.333008 -22.333 -1 -33s-2 -20 -4 -28c11.333 2.66699 25.333 4.5 42 5.5s33.667 1.5 51 1.5s34.333 -0.5 51 -1.5s30.667 -2.83301 42 -5.5c2 -8 3.33301 -17.5 4 -28.5s1 -22.5 1 -34.5s-0.333008 -23.5 -1 -34.5
s-2 -20.5 -4 -28.5c-11.333 -2.66699 -25.333 -4.5 -42 -5.5s-33.667 -1.5 -51 -1.5s-34.333 0.5 -51 1.5s-30.667 2.83301 -42 5.5c5.33301 -25.333 8 -57 8 -95c0 -37.333 -2.66699 -68.666 -8 -93.999c24.667 5.33301 55.667 8 93 8s68.333 -2.66699 93 -8
c2 -8 3.33301 -17.833 4 -29.5s1 -23.834 1 -36.501s-0.333008 -24.834 -1 -36.501s-2 -21.5 -4 -29.5z" />
    <glyph glyph-name="Aring" unicode="&#x415;" horiz-adv-x="426" 
d="M390 0c-21.333 -4.66699 -46.6699 -8.16406 -76.0029 -10.4971s-59.333 -3.5 -90 -3.5s-61 1.16699 -91 3.5s-55.333 5.83301 -76 10.5c-10 44 -17.333 97 -22 159s-7 126 -7 192s2.33301 130 7 192s12 115 22 159c20 4.66699 44.333 8.16699 73 10.5
s58.334 3.5 89.001 3.5s60.334 -1.16699 89.001 -3.5s53 -5.83301 73 -10.5c2 -8 3.33301 -17.833 4 -29.5s1 -23.834 1 -36.501s-0.333008 -24.834 -1 -36.501s-2 -21.5 -4 -29.5c-23.333 -5.33301 -53 -8 -89 -8c-35.333 0 -64.666 2.66699 -87.999 8
c2 -8 3.33301 -17.5 4 -28.5s1 -22.167 1 -33.5s-0.333008 -22.333 -1 -33s-2 -20 -4 -28c11.333 2.66699 25.333 4.5 42 5.5s33.667 1.5 51 1.5s34.333 -0.5 51 -1.5s30.667 -2.83301 42 -5.5c2 -8 3.33301 -17.5 4 -28.5s1 -22.5 1 -34.5s-0.333008 -23.5 -1 -34.5
s-2 -20.5 -4 -28.5c-11.333 -2.66699 -25.333 -4.5 -42 -5.5s-33.667 -1.5 -51 -1.5s-34.333 0.5 -51 1.5s-30.667 2.83301 -42 5.5c5.33301 -25.333 8 -57 8 -95c0 -37.333 -2.66699 -68.666 -8 -93.999c24.667 5.33301 55.667 8 93 8s68.333 -2.66699 93 -8
c2 -8 3.33301 -17.833 4 -29.5s1 -23.834 1 -36.501s-0.333008 -24.834 -1 -36.501s-2 -21.5 -4 -29.5z" />
    <glyph glyph-name="AE" unicode="&#xc6;" horiz-adv-x="768" 
d="M40 0c-1.33301 2.66699 -2.00391 6.16602 -2.00391 10.499v13.5v12.5c0 3.66699 0.666992 7.16699 2 10.5c-1.33301 13.333 -2.5 26.5 -3.5 39.5s-1.5 25.833 -1.5 38.5c0 57.333 9.83301 109.166 29.5 155.499s51.167 86.166 94.5 119.499
c-39.333 29.333 -69.666 63.333 -90.999 102s-32 83 -32 133c0 15.333 1 31 3 47c-3.33301 7.33301 -2.83301 12.833 1.5 16.5s10.5 6.16699 18.5 7.5s17.167 2 27.5 2h27.5c14 0 27.833 -0.5 41.5 -1.5s24.834 -2.5 33.501 -4.5c8 -58.667 20.833 -113.167 38.5 -163.5
s45.834 -95.166 84.501 -134.499c-4 18.667 -7 41.167 -9 67.5s-3 53.5 -3 81.5s1 55.167 3 81.5s5 48.833 9 67.5c9.33301 2 20.333 3.5 33 4.5s25.667 1.5 39 1.5s26.333 -0.5 39 -1.5s23.667 -2.5 33 -4.5c4 -18.667 7 -41.167 9 -67.5s3 -53.5 3 -81.5
s-1 -55.167 -3 -81.5s-5 -48.833 -9 -67.5c38.667 39.333 66.834 84.166 84.501 134.499s30.5 104.833 38.5 163.5c8.66699 2 19.834 3.5 33.501 4.5s27.5 1.5 41.5 1.5s27.5 -0.5 40.5 -1.5s24.167 -2.5 33.5 -4.5c2 -12.667 3.16699 -24.167 3.5 -34.5
s0.5 -21.166 0.5 -32.499c0 -50 -10.667 -94.333 -32 -133s-51.666 -72.667 -90.999 -102c43.333 -33.333 74.833 -73.166 94.5 -119.499s29.5 -98.166 29.5 -155.499c0 -12.667 -0.5 -25.5 -1.5 -38.5s-2.16699 -26.167 -3.5 -39.5c1.33301 -3.33301 2 -6.83301 2 -10.5
v-12.5c0 -13.333 -4.33301 -21.833 -13 -25.5s-19.334 -5.5 -32.001 -5.5c-4.66699 0 -9.66699 0.166992 -15 0.5s-10.666 0.5 -15.999 0.5c-14 0 -27.833 0.5 -41.5 1.5s-24.834 2.5 -33.501 4.5c-4.66699 44.667 -9.33398 83.334 -14.001 116.001s-9.66699 61.5 -15 86.5
s-11 47.167 -17 66.5s-12.333 37.666 -19 54.999c-15.333 -14.667 -34.666 -25.667 -57.999 -33c4 -18 7 -40 9 -66s3 -52.333 3 -79s-1 -53.167 -3 -79.5s-5 -48.5 -9 -66.5c-9.33301 -2 -20.333 -3.5 -33 -4.5s-25.667 -1.5 -39 -1.5s-26.333 0.5 -39 1.5
s-23.667 2.5 -33 4.5c-4 18 -7 40.167 -9 66.5s-3 52.833 -3 79.5s1 53 3 79s5 48 9 66c-23.333 7.33301 -42.666 18.333 -57.999 33c-6.66699 -17.333 -13 -35.666 -19 -54.999s-11.667 -41.5 -17 -66.5s-10.333 -53.833 -15 -86.5s-9.33398 -71.334 -14.001 -116.001
c-8.66699 -2 -19.834 -3.5 -33.501 -4.5s-27.5 -1.5 -41.5 -1.5s-27.5 0.5 -40.5 1.5s-24.167 2.5 -33.5 4.5z" />
    <glyph glyph-name="AE" unicode="&#x416;" horiz-adv-x="768" 
d="M40 0c-1.33301 2.66699 -2.00391 6.16602 -2.00391 10.499v13.5v12.5c0 3.66699 0.666992 7.16699 2 10.5c-1.33301 13.333 -2.5 26.5 -3.5 39.5s-1.5 25.833 -1.5 38.5c0 57.333 9.83301 109.166 29.5 155.499s51.167 86.166 94.5 119.499
c-39.333 29.333 -69.666 63.333 -90.999 102s-32 83 -32 133c0 15.333 1 31 3 47c-3.33301 7.33301 -2.83301 12.833 1.5 16.5s10.5 6.16699 18.5 7.5s17.167 2 27.5 2h27.5c14 0 27.833 -0.5 41.5 -1.5s24.834 -2.5 33.501 -4.5c8 -58.667 20.833 -113.167 38.5 -163.5
s45.834 -95.166 84.501 -134.499c-4 18.667 -7 41.167 -9 67.5s-3 53.5 -3 81.5s1 55.167 3 81.5s5 48.833 9 67.5c9.33301 2 20.333 3.5 33 4.5s25.667 1.5 39 1.5s26.333 -0.5 39 -1.5s23.667 -2.5 33 -4.5c4 -18.667 7 -41.167 9 -67.5s3 -53.5 3 -81.5
s-1 -55.167 -3 -81.5s-5 -48.833 -9 -67.5c38.667 39.333 66.834 84.166 84.501 134.499s30.5 104.833 38.5 163.5c8.66699 2 19.834 3.5 33.501 4.5s27.5 1.5 41.5 1.5s27.5 -0.5 40.5 -1.5s24.167 -2.5 33.5 -4.5c2 -12.667 3.16699 -24.167 3.5 -34.5
s0.5 -21.166 0.5 -32.499c0 -50 -10.667 -94.333 -32 -133s-51.666 -72.667 -90.999 -102c43.333 -33.333 74.833 -73.166 94.5 -119.499s29.5 -98.166 29.5 -155.499c0 -12.667 -0.5 -25.5 -1.5 -38.5s-2.16699 -26.167 -3.5 -39.5c1.33301 -3.33301 2 -6.83301 2 -10.5
v-12.5c0 -13.333 -4.33301 -21.833 -13 -25.5s-19.334 -5.5 -32.001 -5.5c-4.66699 0 -9.66699 0.166992 -15 0.5s-10.666 0.5 -15.999 0.5c-14 0 -27.833 0.5 -41.5 1.5s-24.834 2.5 -33.501 4.5c-4.66699 44.667 -9.33398 83.334 -14.001 116.001s-9.66699 61.5 -15 86.5
s-11 47.167 -17 66.5s-12.333 37.666 -19 54.999c-15.333 -14.667 -34.666 -25.667 -57.999 -33c4 -18 7 -40 9 -66s3 -52.333 3 -79s-1 -53.167 -3 -79.5s-5 -48.5 -9 -66.5c-9.33301 -2 -20.333 -3.5 -33 -4.5s-25.667 -1.5 -39 -1.5s-26.333 0.5 -39 1.5
s-23.667 2.5 -33 4.5c-4 18 -7 40.167 -9 66.5s-3 52.833 -3 79.5s1 53 3 79s5 48 9 66c-23.333 7.33301 -42.666 18.333 -57.999 33c-6.66699 -17.333 -13 -35.666 -19 -54.999s-11.667 -41.5 -17 -66.5s-10.333 -53.833 -15 -86.5s-9.33398 -71.334 -14.001 -116.001
c-8.66699 -2 -19.834 -3.5 -33.501 -4.5s-27.5 -1.5 -41.5 -1.5s-27.5 0.5 -40.5 1.5s-24.167 2.5 -33.5 4.5z" />
    <glyph glyph-name="Ccedilla" unicode="&#xc7;" horiz-adv-x="513" 
d="M44 261c9.33301 2 20.3359 3.5 33.0029 4.5s25.667 1.5 39 1.5s26.666 -0.5 39.999 -1.5s24.333 -2.5 33 -4.5c0.666992 -3.33301 1 -6.66602 1 -9.99902v-11v-11c0 -3.33301 -0.333008 -6.66602 -1 -9.99902c2.66699 -40.667 8.5 -66.834 17.5 -78.501
s24.167 -17.5 45.5 -17.5c27.333 0 44.333 8.33301 51 25s10 40 10 70c0 5.33301 0.166992 10.5 0.5 15.5s0.833008 9.5 1.5 13.5c-2.66699 31.333 -12.334 50.166 -29.001 56.499s-38.667 9.5 -66 9.5c-13.333 0 -21.833 3.16699 -25.5 9.5s-5.5 14.833 -5.5 25.5
c0 4.66699 0.166992 9.5 0.5 14.5s0.5 10.167 0.5 15.5c0 12 0.333008 23.5 1 34.5s2 20.5 4 28.5c3.33301 0.666992 6.83301 1.16699 10.5 1.5s7.83398 0.5 12.501 0.5s8.83398 -0.166992 12.501 -0.5s7.16699 -0.833008 10.5 -1.5c19.333 2 35 8 47 18s19 28 21 54
c-2 24 -6.83301 41 -14.5 51s-21.834 15 -42.501 15s-34.834 -5 -42.501 -15s-12.5 -27 -14.5 -51c2 -14 -1.16699 -22.833 -9.5 -26.5s-18.833 -5.5 -31.5 -5.5c-4.66699 0 -9.5 0.166992 -14.5 0.5s-9.83301 0.5 -14.5 0.5c-28.667 0 -52 2 -70 6
c-2 6.66699 -3.33301 14.167 -4 22.5s-1 16.833 -1 25.5v27c0 48.667 12.333 85.667 37 111s68 38 130 38h17c6 0 12 -0.333008 18 -1c6.66699 0.666992 13.5 1 20.5 1h19.5c62 0 105 -12 129 -36s36 -61.667 36 -113v-17c0 -6 -0.333008 -12 -1 -18
c4 -34.667 -1.33301 -63.667 -16 -87s-33.334 -40.333 -56.001 -51c29.333 -15.333 51 -33.666 65 -54.999s21 -51.333 21 -90c0 -6.66699 -0.166992 -13.334 -0.5 -20.001s-0.833008 -13.667 -1.5 -21c0.666992 -8 1.16699 -16 1.5 -24s0.5 -15.667 0.5 -23
c0 -57.333 -12.833 -99.5 -38.5 -126.5s-72.167 -40.5 -139.5 -40.5h-20c-6.66699 0 -13.334 0.333008 -20.001 1c-6 -0.666992 -11.833 -1 -17.5 -1h-16.5c-63.333 0 -109.166 14.333 -137.499 43s-42.5 69.667 -42.5 123v15c0 4.66699 0.333008 9.66699 1 15
c-0.666992 5.33301 -1.16699 10.333 -1.5 15s-0.5 9.33398 -0.5 14.001c0 8.66699 0.5 17.167 1.5 25.5s2.83301 15.166 5.5 20.499z" />
    <glyph glyph-name="Ccedilla" unicode="&#x417;" horiz-adv-x="513" 
d="M44 261c9.33301 2 20.3359 3.5 33.0029 4.5s25.667 1.5 39 1.5s26.666 -0.5 39.999 -1.5s24.333 -2.5 33 -4.5c0.666992 -3.33301 1 -6.66602 1 -9.99902v-11v-11c0 -3.33301 -0.333008 -6.66602 -1 -9.99902c2.66699 -40.667 8.5 -66.834 17.5 -78.501
s24.167 -17.5 45.5 -17.5c27.333 0 44.333 8.33301 51 25s10 40 10 70c0 5.33301 0.166992 10.5 0.5 15.5s0.833008 9.5 1.5 13.5c-2.66699 31.333 -12.334 50.166 -29.001 56.499s-38.667 9.5 -66 9.5c-13.333 0 -21.833 3.16699 -25.5 9.5s-5.5 14.833 -5.5 25.5
c0 4.66699 0.166992 9.5 0.5 14.5s0.5 10.167 0.5 15.5c0 12 0.333008 23.5 1 34.5s2 20.5 4 28.5c3.33301 0.666992 6.83301 1.16699 10.5 1.5s7.83398 0.5 12.501 0.5s8.83398 -0.166992 12.501 -0.5s7.16699 -0.833008 10.5 -1.5c19.333 2 35 8 47 18s19 28 21 54
c-2 24 -6.83301 41 -14.5 51s-21.834 15 -42.501 15s-34.834 -5 -42.501 -15s-12.5 -27 -14.5 -51c2 -14 -1.16699 -22.833 -9.5 -26.5s-18.833 -5.5 -31.5 -5.5c-4.66699 0 -9.5 0.166992 -14.5 0.5s-9.83301 0.5 -14.5 0.5c-28.667 0 -52 2 -70 6
c-2 6.66699 -3.33301 14.167 -4 22.5s-1 16.833 -1 25.5v27c0 48.667 12.333 85.667 37 111s68 38 130 38h17c6 0 12 -0.333008 18 -1c6.66699 0.666992 13.5 1 20.5 1h19.5c62 0 105 -12 129 -36s36 -61.667 36 -113v-17c0 -6 -0.333008 -12 -1 -18
c4 -34.667 -1.33301 -63.667 -16 -87s-33.334 -40.333 -56.001 -51c29.333 -15.333 51 -33.666 65 -54.999s21 -51.333 21 -90c0 -6.66699 -0.166992 -13.334 -0.5 -20.001s-0.833008 -13.667 -1.5 -21c0.666992 -8 1.16699 -16 1.5 -24s0.5 -15.667 0.5 -23
c0 -57.333 -12.833 -99.5 -38.5 -126.5s-72.167 -40.5 -139.5 -40.5h-20c-6.66699 0 -13.334 0.333008 -20.001 1c-6 -0.666992 -11.833 -1 -17.5 -1h-16.5c-63.333 0 -109.166 14.333 -137.499 43s-42.5 69.667 -42.5 123v15c0 4.66699 0.333008 9.66699 1 15
c-0.666992 5.33301 -1.16699 10.333 -1.5 15s-0.5 9.33398 -0.5 14.001c0 8.66699 0.5 17.167 1.5 25.5s2.83301 15.166 5.5 20.499z" />
    <glyph glyph-name="Egrave" unicode="&#xc8;" horiz-adv-x="540" 
d="M57 702c8.66699 2 19.834 3.5 33.501 4.5s27.5 1.5 41.5 1.5s27.833 -0.5 41.5 -1.5s24.834 -2.5 33.501 -4.5c7.33301 -32 12.666 -70.667 15.999 -116s5 -92 5 -140s-1.66699 -94.833 -5 -140.5s-8.66602 -84.5 -15.999 -116.5
c13.333 27.333 26.166 56.166 38.499 86.499s24 64 35 101s21 77.833 30 122.5s16.5 94.334 22.5 149.001c-0.666992 3.33301 -1.16699 7.5 -1.5 12.5s-0.5 9.83301 -0.5 14.5c0 14.667 3.83301 24 11.5 28s18.167 6 31.5 6c5.33301 0 10.833 -0.166992 16.5 -0.5
s11.5 -0.5 17.5 -0.5c14 0 27.833 -0.5 41.5 -1.5s24.834 -2.5 33.501 -4.5c10 -44 17.333 -97 22 -159s7 -126 7 -192s-2.33301 -130 -7 -192s-12 -115 -22 -159c-8.66699 -2 -19.834 -3.5 -33.501 -4.5s-27.5 -1.5 -41.5 -1.5s-27.833 0.5 -41.5 1.5
s-24.834 2.5 -33.501 4.5c-3.33301 14.667 -6 33.667 -8 57s-3 47.333 -3 72c0 20.667 0.833008 40.5 2.5 59.5s4.5 34.833 8.5 47.5c-10 -32.667 -20 -61 -30 -85s-20.333 -45.167 -31 -63.5s-22.167 -34.5 -34.5 -48.5s-25.833 -27 -40.5 -39c-18 -4 -41.333 -6 -70 -6
s-52 2 -70 6c-10 44 -17.333 97 -22 159s-7 126 -7 192s2.33301 130 7 192s12 115 22 159z" />
    <glyph glyph-name="Egrave" unicode="&#x418;" horiz-adv-x="540" 
d="M57 702c8.66699 2 19.834 3.5 33.501 4.5s27.5 1.5 41.5 1.5s27.833 -0.5 41.5 -1.5s24.834 -2.5 33.501 -4.5c7.33301 -32 12.666 -70.667 15.999 -116s5 -92 5 -140s-1.66699 -94.833 -5 -140.5s-8.66602 -84.5 -15.999 -116.5
c13.333 27.333 26.166 56.166 38.499 86.499s24 64 35 101s21 77.833 30 122.5s16.5 94.334 22.5 149.001c-0.666992 3.33301 -1.16699 7.5 -1.5 12.5s-0.5 9.83301 -0.5 14.5c0 14.667 3.83301 24 11.5 28s18.167 6 31.5 6c5.33301 0 10.833 -0.166992 16.5 -0.5
s11.5 -0.5 17.5 -0.5c14 0 27.833 -0.5 41.5 -1.5s24.834 -2.5 33.501 -4.5c10 -44 17.333 -97 22 -159s7 -126 7 -192s-2.33301 -130 -7 -192s-12 -115 -22 -159c-8.66699 -2 -19.834 -3.5 -33.501 -4.5s-27.5 -1.5 -41.5 -1.5s-27.833 0.5 -41.5 1.5
s-24.834 2.5 -33.501 4.5c-3.33301 14.667 -6 33.667 -8 57s-3 47.333 -3 72c0 20.667 0.833008 40.5 2.5 59.5s4.5 34.833 8.5 47.5c-10 -32.667 -20 -61 -30 -85s-20.333 -45.167 -31 -63.5s-22.167 -34.5 -34.5 -48.5s-25.833 -27 -40.5 -39c-18 -4 -41.333 -6 -70 -6
s-52 2 -70 6c-10 44 -17.333 97 -22 159s-7 126 -7 192s2.33301 130 7 192s12 115 22 159z" />
    <glyph glyph-name="Eacute" unicode="&#xc9;" horiz-adv-x="540" 
d="M57 702c8.66699 2 19.834 3.5 33.501 4.5s27.5 1.5 41.5 1.5s27.833 -0.5 41.5 -1.5s24.834 -2.5 33.501 -4.5c7.33301 -32 12.666 -70.667 15.999 -116s5 -92 5 -140s-1.66699 -94.833 -5 -140.5s-8.66602 -84.5 -15.999 -116.5
c13.333 27.333 26.166 56.166 38.499 86.499s24 64 35 101s21 77.833 30 122.5s16.5 94.334 22.5 149.001c-0.666992 3.33301 -1.16699 7.5 -1.5 12.5s-0.5 9.83301 -0.5 14.5c0 14.667 3.83301 24 11.5 28s18.167 6 31.5 6c5.33301 0 10.833 -0.166992 16.5 -0.5
s11.5 -0.5 17.5 -0.5c14 0 27.833 -0.5 41.5 -1.5s24.834 -2.5 33.501 -4.5c10 -44 17.333 -97 22 -159s7 -126 7 -192s-2.33301 -130 -7 -192s-12 -115 -22 -159c-8.66699 -2 -19.834 -3.5 -33.501 -4.5s-27.5 -1.5 -41.5 -1.5s-27.833 0.5 -41.5 1.5
s-24.834 2.5 -33.501 4.5c-3.33301 14.667 -6 33.667 -8 57s-3 47.333 -3 72c0 20.667 0.833008 40.5 2.5 59.5s4.5 34.833 8.5 47.5c-10 -32.667 -20 -61 -30 -85s-20.333 -45.167 -31 -63.5s-22.167 -34.5 -34.5 -48.5s-25.833 -27 -40.5 -39c-18 -4 -41.333 -6 -70 -6
s-52 2 -70 6c-10 44 -17.333 97 -22 159s-7 126 -7 192s2.33301 130 7 192s12 115 22 159zM139 835c7.33301 4 17.833 7.66699 31.5 11s24.834 5.33301 33.501 6c2.66699 -10 8.16699 -22 16.5 -36s24.833 -22 49.5 -24c24.667 2 41.167 10 49.5 24s13.833 26 16.5 36
c8.66699 -0.666992 19.834 -2.66699 33.501 -6s24.167 -7 31.5 -11c-4.66699 -40.667 -18.334 -69.334 -41.001 -86.001s-52.667 -23.334 -90 -20.001c-37.333 -3.33301 -67.333 3.33398 -90 20.001s-36.334 45.334 -41.001 86.001z" />
    <glyph glyph-name="Eacute" unicode="&#x419;" horiz-adv-x="540" 
d="M57 702c8.66699 2 19.834 3.5 33.501 4.5s27.5 1.5 41.5 1.5s27.833 -0.5 41.5 -1.5s24.834 -2.5 33.501 -4.5c7.33301 -32 12.666 -70.667 15.999 -116s5 -92 5 -140s-1.66699 -94.833 -5 -140.5s-8.66602 -84.5 -15.999 -116.5
c13.333 27.333 26.166 56.166 38.499 86.499s24 64 35 101s21 77.833 30 122.5s16.5 94.334 22.5 149.001c-0.666992 3.33301 -1.16699 7.5 -1.5 12.5s-0.5 9.83301 -0.5 14.5c0 14.667 3.83301 24 11.5 28s18.167 6 31.5 6c5.33301 0 10.833 -0.166992 16.5 -0.5
s11.5 -0.5 17.5 -0.5c14 0 27.833 -0.5 41.5 -1.5s24.834 -2.5 33.501 -4.5c10 -44 17.333 -97 22 -159s7 -126 7 -192s-2.33301 -130 -7 -192s-12 -115 -22 -159c-8.66699 -2 -19.834 -3.5 -33.501 -4.5s-27.5 -1.5 -41.5 -1.5s-27.833 0.5 -41.5 1.5
s-24.834 2.5 -33.501 4.5c-3.33301 14.667 -6 33.667 -8 57s-3 47.333 -3 72c0 20.667 0.833008 40.5 2.5 59.5s4.5 34.833 8.5 47.5c-10 -32.667 -20 -61 -30 -85s-20.333 -45.167 -31 -63.5s-22.167 -34.5 -34.5 -48.5s-25.833 -27 -40.5 -39c-18 -4 -41.333 -6 -70 -6
s-52 2 -70 6c-10 44 -17.333 97 -22 159s-7 126 -7 192s2.33301 130 7 192s12 115 22 159zM139 835c7.33301 4 17.833 7.66699 31.5 11s24.834 5.33301 33.501 6c2.66699 -10 8.16699 -22 16.5 -36s24.833 -22 49.5 -24c24.667 2 41.167 10 49.5 24s13.833 26 16.5 36
c8.66699 -0.666992 19.834 -2.66699 33.501 -6s24.167 -7 31.5 -11c-4.66699 -40.667 -18.334 -69.334 -41.001 -86.001s-52.667 -23.334 -90 -20.001c-37.333 -3.33301 -67.333 3.33398 -90 20.001s-36.334 45.334 -41.001 86.001z" />
    <glyph glyph-name="Ecircumflex" unicode="&#xca;" horiz-adv-x="519" 
d="M476 0c-9.33301 -2 -20.502 -3.50195 -33.502 -4.50195s-26.5 -1.5 -40.5 -1.5s-27.833 0.5 -41.5 1.5s-24.834 2.5 -33.501 4.5c-4.66699 44.667 -9.33398 83.334 -14.001 116.001s-9.66699 61.5 -15 86.5s-11 47.167 -17 66.5s-12.333 37.666 -19 54.999
c-15.333 -14.667 -34.666 -25.667 -57.999 -33c4 -18 7 -40 9 -66s3 -52.333 3 -79s-1 -53.167 -3 -79.5s-5 -48.5 -9 -66.5c-9.33301 -2 -20.5 -3.5 -33.5 -4.5s-26.5 -1.5 -40.5 -1.5c-30.667 0 -55 2 -73 6c-10 44 -17.333 97 -22 159s-7 126 -7 192s2.33301 130 7 192
s12 115 22 159c18 4 42.333 6 73 6c14 0 27.5 -0.5 40.5 -1.5s24.167 -2.5 33.5 -4.5c4 -18.667 7 -41.167 9 -67.5s3 -53.5 3 -81.5s-1 -55.167 -3 -81.5s-5 -48.833 -9 -67.5c38.667 39.333 66.834 84.166 84.501 134.499s30.5 104.833 38.5 163.5
c8.66699 2 19.834 3.5 33.501 4.5s27.5 1.5 41.5 1.5s27.5 -0.5 40.5 -1.5s24.167 -2.5 33.5 -4.5c2 -12.667 3.16699 -24.167 3.5 -34.5s0.5 -21.166 0.5 -32.499c0 -50 -10.667 -94.333 -32 -133s-51.666 -72.667 -90.999 -102
c43.333 -33.333 74.833 -73.166 94.5 -119.499s29.5 -98.166 29.5 -155.499c0 -12.667 -0.5 -25.5 -1.5 -38.5s-2.16699 -26.167 -3.5 -39.5c1.33301 -3.33301 2 -6.83301 2 -10.5v-12.5v-13.5c0 -4.33301 -0.666992 -7.83301 -2 -10.5z" />
    <glyph glyph-name="Ecircumflex" unicode="&#x41a;" horiz-adv-x="519" 
d="M476 0c-9.33301 -2 -20.502 -3.50195 -33.502 -4.50195s-26.5 -1.5 -40.5 -1.5s-27.833 0.5 -41.5 1.5s-24.834 2.5 -33.501 4.5c-4.66699 44.667 -9.33398 83.334 -14.001 116.001s-9.66699 61.5 -15 86.5s-11 47.167 -17 66.5s-12.333 37.666 -19 54.999
c-15.333 -14.667 -34.666 -25.667 -57.999 -33c4 -18 7 -40 9 -66s3 -52.333 3 -79s-1 -53.167 -3 -79.5s-5 -48.5 -9 -66.5c-9.33301 -2 -20.5 -3.5 -33.5 -4.5s-26.5 -1.5 -40.5 -1.5c-30.667 0 -55 2 -73 6c-10 44 -17.333 97 -22 159s-7 126 -7 192s2.33301 130 7 192
s12 115 22 159c18 4 42.333 6 73 6c14 0 27.5 -0.5 40.5 -1.5s24.167 -2.5 33.5 -4.5c4 -18.667 7 -41.167 9 -67.5s3 -53.5 3 -81.5s-1 -55.167 -3 -81.5s-5 -48.833 -9 -67.5c38.667 39.333 66.834 84.166 84.501 134.499s30.5 104.833 38.5 163.5
c8.66699 2 19.834 3.5 33.501 4.5s27.5 1.5 41.5 1.5s27.5 -0.5 40.5 -1.5s24.167 -2.5 33.5 -4.5c2 -12.667 3.16699 -24.167 3.5 -34.5s0.5 -21.166 0.5 -32.499c0 -50 -10.667 -94.333 -32 -133s-51.666 -72.667 -90.999 -102
c43.333 -33.333 74.833 -73.166 94.5 -119.499s29.5 -98.166 29.5 -155.499c0 -12.667 -0.5 -25.5 -1.5 -38.5s-2.16699 -26.167 -3.5 -39.5c1.33301 -3.33301 2 -6.83301 2 -10.5v-12.5v-13.5c0 -4.33301 -0.666992 -7.83301 -2 -10.5z" />
    <glyph glyph-name="Edieresis" unicode="&#xcb;" horiz-adv-x="525" 
d="M318 0c-8 36 -13.999 79.499 -17.999 130.499s-6 103.5 -6 157.5s2 106.5 6 157.5s10 94.5 18 130.5c-15.333 -21.333 -29 -44 -41 -68s-22.833 -53.667 -32.5 -89s-18.167 -78.666 -25.5 -129.999s-14.333 -115 -21 -191c1.33301 -6 2.33301 -13.5 3 -22.5
s1 -17.833 1 -26.5s-0.333008 -17.5 -1 -26.5s-1.66699 -16.5 -3 -22.5c-9.33301 -2 -20.666 -3.5 -33.999 -4.5s-27 -1.5 -41 -1.5c-30.667 0 -55.667 2 -75 6c-1.33301 6.66699 -2.33301 14.5 -3 23.5s-1 18.5 -1 28.5s0.333008 19.667 1 29s1.66699 17.333 3 24
c-6 66 -9 125.667 -9 179c0 58 4 109 12 153s21 82.833 39 116.5s41 62.5 69 86.5s62 44.667 102 62c12.667 2.66699 28.167 4.66699 46.5 6s37.166 2 56.499 2s38.166 -0.666992 56.499 -2s34.166 -3.33301 47.499 -6c10 -44 17.333 -97 22 -159s7 -126 7 -192
s-2.33301 -130 -7 -192s-12 -115 -22 -159c-9.33301 -2 -20.666 -3.5 -33.999 -4.5s-27 -1.5 -41 -1.5c-30.667 0 -55.667 2 -75 6z" />
    <glyph glyph-name="Edieresis" unicode="&#x41b;" horiz-adv-x="525" 
d="M318 0c-8 36 -13.999 79.499 -17.999 130.499s-6 103.5 -6 157.5s2 106.5 6 157.5s10 94.5 18 130.5c-15.333 -21.333 -29 -44 -41 -68s-22.833 -53.667 -32.5 -89s-18.167 -78.666 -25.5 -129.999s-14.333 -115 -21 -191c1.33301 -6 2.33301 -13.5 3 -22.5
s1 -17.833 1 -26.5s-0.333008 -17.5 -1 -26.5s-1.66699 -16.5 -3 -22.5c-9.33301 -2 -20.666 -3.5 -33.999 -4.5s-27 -1.5 -41 -1.5c-30.667 0 -55.667 2 -75 6c-1.33301 6.66699 -2.33301 14.5 -3 23.5s-1 18.5 -1 28.5s0.333008 19.667 1 29s1.66699 17.333 3 24
c-6 66 -9 125.667 -9 179c0 58 4 109 12 153s21 82.833 39 116.5s41 62.5 69 86.5s62 44.667 102 62c12.667 2.66699 28.167 4.66699 46.5 6s37.166 2 56.499 2s38.166 -0.666992 56.499 -2s34.166 -3.33301 47.499 -6c10 -44 17.333 -97 22 -159s7 -126 7 -192
s-2.33301 -130 -7 -192s-12 -115 -22 -159c-9.33301 -2 -20.666 -3.5 -33.999 -4.5s-27 -1.5 -41 -1.5c-30.667 0 -55.667 2 -75 6z" />
    <glyph glyph-name="Igrave" unicode="&#xcc;" horiz-adv-x="798" 
d="M207 0c-8.66699 -2 -19.8242 -3.5 -33.4912 -4.5s-27.5 -1.5 -41.5 -1.5s-27.833 0.5 -41.5 1.5s-24.834 2.5 -33.501 4.5c-10 44 -17.333 97 -22 159s-7 126 -7 192s2.33301 130 7 192s12 115 22 159c12.667 2.66699 28.167 4.66699 46.5 6s37.166 2 56.499 2
s38.166 -0.666992 56.499 -2s34.166 -3.33301 47.499 -6c18 -11.333 34 -23 48 -35s26.5 -25.5 37.5 -40.5s20.667 -32 29 -51s15.166 -41.167 20.499 -66.5c5.33301 25.333 12.166 47.5 20.499 66.5s18 36 29 51s23.5 28.5 37.5 40.5s30 23.667 48 35
c13.333 2.66699 29.166 4.66699 47.499 6s37.166 2 56.499 2s38.166 -0.666992 56.499 -2s33.833 -3.33301 46.5 -6c10 -44 17.333 -97 22 -159s7 -126 7 -192s-2.33301 -130 -7 -192s-12 -115 -22 -159c-8.66699 -2 -19.834 -3.5 -33.501 -4.5s-27.5 -1.5 -41.5 -1.5
s-27.833 0.5 -41.5 1.5s-24.834 2.5 -33.501 4.5c-8 36 -14 79.5 -18 130.5s-6 103.5 -6 157.5s2 106.5 6 157.5s10 94.5 18 130.5c-22 -30 -39.667 -59 -53 -87s-24.166 -56.333 -32.499 -85s-15 -57.667 -20 -87s-9.83301 -60 -14.5 -92
c3.33301 -14 5.66602 -31 6.99902 -51s2 -40.667 2 -62s-0.666992 -41.833 -2 -61.5s-3.66602 -36.5 -6.99902 -50.5c-8.66699 -2 -19.5 -3.5 -32.5 -4.5s-26.167 -1.5 -39.5 -1.5s-26.5 0.5 -39.5 1.5s-23.833 2.5 -32.5 4.5c-3.33301 14 -5.66602 30.833 -6.99902 50.5
s-2 40.167 -2 61.5s0.666992 42 2 62s3.66602 37 6.99902 51c-4.66699 32 -9.5 62.667 -14.5 92s-11.667 58.333 -20 87s-19.166 57 -32.499 85s-31 57 -53 87c8 -36 14 -79.5 18 -130.5s6 -103.5 6 -157.5s-2 -106.5 -6 -157.5s-10 -94.5 -18 -130.5z" />
    <glyph glyph-name="Igrave" unicode="&#x41c;" horiz-adv-x="798" 
d="M207 0c-8.66699 -2 -19.8242 -3.5 -33.4912 -4.5s-27.5 -1.5 -41.5 -1.5s-27.833 0.5 -41.5 1.5s-24.834 2.5 -33.501 4.5c-10 44 -17.333 97 -22 159s-7 126 -7 192s2.33301 130 7 192s12 115 22 159c12.667 2.66699 28.167 4.66699 46.5 6s37.166 2 56.499 2
s38.166 -0.666992 56.499 -2s34.166 -3.33301 47.499 -6c18 -11.333 34 -23 48 -35s26.5 -25.5 37.5 -40.5s20.667 -32 29 -51s15.166 -41.167 20.499 -66.5c5.33301 25.333 12.166 47.5 20.499 66.5s18 36 29 51s23.5 28.5 37.5 40.5s30 23.667 48 35
c13.333 2.66699 29.166 4.66699 47.499 6s37.166 2 56.499 2s38.166 -0.666992 56.499 -2s33.833 -3.33301 46.5 -6c10 -44 17.333 -97 22 -159s7 -126 7 -192s-2.33301 -130 -7 -192s-12 -115 -22 -159c-8.66699 -2 -19.834 -3.5 -33.501 -4.5s-27.5 -1.5 -41.5 -1.5
s-27.833 0.5 -41.5 1.5s-24.834 2.5 -33.501 4.5c-8 36 -14 79.5 -18 130.5s-6 103.5 -6 157.5s2 106.5 6 157.5s10 94.5 18 130.5c-22 -30 -39.667 -59 -53 -87s-24.166 -56.333 -32.499 -85s-15 -57.667 -20 -87s-9.83301 -60 -14.5 -92
c3.33301 -14 5.66602 -31 6.99902 -51s2 -40.667 2 -62s-0.666992 -41.833 -2 -61.5s-3.66602 -36.5 -6.99902 -50.5c-8.66699 -2 -19.5 -3.5 -32.5 -4.5s-26.167 -1.5 -39.5 -1.5s-26.5 0.5 -39.5 1.5s-23.833 2.5 -32.5 4.5c-3.33301 14 -5.66602 30.833 -6.99902 50.5
s-2 40.167 -2 61.5s0.666992 42 2 62s3.66602 37 6.99902 51c-4.66699 32 -9.5 62.667 -14.5 92s-11.667 58.333 -20 87s-19.166 57 -32.499 85s-31 57 -53 87c8 -36 14 -79.5 18 -130.5s6 -103.5 6 -157.5s-2 -106.5 -6 -157.5s-10 -94.5 -18 -130.5z" />
    <glyph glyph-name="Iacute" unicode="&#xcd;" horiz-adv-x="531" 
d="M57 0c-10 44 -17.333 97 -22 159s-7 126 -7 192s2.33301 130 7 192s12 115 22 159c8.66699 2 19.834 3.5 33.501 4.5s27.5 1.5 41.5 1.5s27.833 -0.5 41.5 -1.5s24.834 -2.5 33.501 -4.5c3.33301 -16 6 -35.333 8 -58s3 -46 3 -70s-1 -47.167 -3 -69.5
s-4.66699 -41.5 -8 -57.5c15.333 3.33301 35 5 59 5c23.333 0 42.666 -1.66699 57.999 -5c-3.33301 16 -5.83301 35.167 -7.5 57.5s-2.5 45.5 -2.5 69.5s0.833008 47.333 2.5 70s4.16699 42 7.5 58c9.33301 2 20.666 3.5 33.999 4.5s27 1.5 41 1.5c30.667 0 55.667 -2 75 -6
c10 -44 17.333 -97 22 -159s7 -126 7 -192s-2.33301 -130 -7 -192s-12 -115 -22 -159c-9.33301 -2 -20.666 -3.5 -33.999 -4.5s-27 -1.5 -41 -1.5c-30.667 0 -55.667 2 -75 6c-4.66699 20 -8.16699 44.167 -10.5 72.5s-3.5 57.5 -3.5 87.5s1.16699 59.333 3.5 88
s5.83301 53 10.5 73c-15.333 -3.33301 -34.666 -5 -57.999 -5c-24 0 -43.667 1.66699 -59 5c4.66699 -20 8 -44.333 10 -73s3 -58 3 -88s-1 -59.167 -3 -87.5s-5.33301 -52.5 -10 -72.5c-8.66699 -2 -19.834 -3.5 -33.501 -4.5s-27.5 -1.5 -41.5 -1.5s-27.833 0.5 -41.5 1.5
s-24.834 2.5 -33.501 4.5z" />
    <glyph glyph-name="Iacute" unicode="&#x41d;" horiz-adv-x="531" 
d="M57 0c-10 44 -17.333 97 -22 159s-7 126 -7 192s2.33301 130 7 192s12 115 22 159c8.66699 2 19.834 3.5 33.501 4.5s27.5 1.5 41.5 1.5s27.833 -0.5 41.5 -1.5s24.834 -2.5 33.501 -4.5c3.33301 -16 6 -35.333 8 -58s3 -46 3 -70s-1 -47.167 -3 -69.5
s-4.66699 -41.5 -8 -57.5c15.333 3.33301 35 5 59 5c23.333 0 42.666 -1.66699 57.999 -5c-3.33301 16 -5.83301 35.167 -7.5 57.5s-2.5 45.5 -2.5 69.5s0.833008 47.333 2.5 70s4.16699 42 7.5 58c9.33301 2 20.666 3.5 33.999 4.5s27 1.5 41 1.5c30.667 0 55.667 -2 75 -6
c10 -44 17.333 -97 22 -159s7 -126 7 -192s-2.33301 -130 -7 -192s-12 -115 -22 -159c-9.33301 -2 -20.666 -3.5 -33.999 -4.5s-27 -1.5 -41 -1.5c-30.667 0 -55.667 2 -75 6c-4.66699 20 -8.16699 44.167 -10.5 72.5s-3.5 57.5 -3.5 87.5s1.16699 59.333 3.5 88
s5.83301 53 10.5 73c-15.333 -3.33301 -34.666 -5 -57.999 -5c-24 0 -43.667 1.66699 -59 5c4.66699 -20 8 -44.333 10 -73s3 -58 3 -88s-1 -59.167 -3 -87.5s-5.33301 -52.5 -10 -72.5c-8.66699 -2 -19.834 -3.5 -33.501 -4.5s-27.5 -1.5 -41.5 -1.5s-27.833 0.5 -41.5 1.5
s-24.834 2.5 -33.501 4.5z" />
    <glyph glyph-name="Icircumflex" unicode="&#xce;" horiz-adv-x="519" 
d="M199 517c4.66699 -20.667 7.99902 -45.6689 9.99902 -75.002s3 -59.666 3 -90.999s-1 -61.666 -3 -90.999s-5.33301 -54.333 -10 -75c1.33301 -22.667 6.83301 -38.667 16.5 -48s24.167 -14 43.5 -14c20.667 0 35.167 5.16699 43.5 15.5s13.5 27.833 15.5 52.5
c-4.66699 20 -8.16699 44.333 -10.5 73s-3.5 58 -3.5 88s1.16699 59.167 3.5 87.5s5.83301 52.5 10.5 72.5c-2 24 -7.33301 41.167 -16 51.5s-23 15.5 -43 15.5s-34.667 -4.83301 -44 -14.5s-14.666 -25.5 -15.999 -47.5zM46.999 226.998c-3.33301 15.333 -6 34 -8 56
s-3 44.667 -3 68s1 46 3 68s4.66699 40.667 8 56c-0.666992 8.66699 -1.16699 17 -1.5 25s-0.5 15.667 -0.5 23c0 68.667 13.667 117.5 41 146.5s72 43.5 134 43.5c6 0 12.167 -0.166992 18.5 -0.5s13.166 -0.833008 20.499 -1.5
c7.33301 0.666992 14.166 1.16699 20.499 1.5s12.5 0.5 18.5 0.5c62 0 106.833 -14.5 134.5 -43.5s41.5 -77.833 41.5 -146.5c0 -7.33301 -0.166992 -15 -0.5 -23s-0.833008 -16.333 -1.5 -25c3.33301 -15.333 5.83301 -34 7.5 -56s2.5 -44.667 2.5 -68
s-0.833008 -46 -2.5 -68s-4.16699 -40.667 -7.5 -56c0.666992 -8.66699 1.16699 -16.834 1.5 -24.501s0.5 -15.167 0.5 -22.5c0 -69.333 -13.833 -118.5 -41.5 -147.5s-72.5 -43.5 -134.5 -43.5c-6 0 -12.167 0.166992 -18.5 0.5s-13.166 0.833008 -20.499 1.5
c-7.33301 -0.666992 -14.166 -1.16699 -20.499 -1.5s-12.5 -0.5 -18.5 -0.5c-61.333 0 -105.833 14.5 -133.5 43.5s-41.5 78.167 -41.5 147.5c0 7.33301 0.166992 14.833 0.5 22.5s0.833008 15.834 1.5 24.501z" />
    <glyph glyph-name="Icircumflex" unicode="&#x41e;" horiz-adv-x="519" 
d="M199 517c4.66699 -20.667 7.99902 -45.6689 9.99902 -75.002s3 -59.666 3 -90.999s-1 -61.666 -3 -90.999s-5.33301 -54.333 -10 -75c1.33301 -22.667 6.83301 -38.667 16.5 -48s24.167 -14 43.5 -14c20.667 0 35.167 5.16699 43.5 15.5s13.5 27.833 15.5 52.5
c-4.66699 20 -8.16699 44.333 -10.5 73s-3.5 58 -3.5 88s1.16699 59.167 3.5 87.5s5.83301 52.5 10.5 72.5c-2 24 -7.33301 41.167 -16 51.5s-23 15.5 -43 15.5s-34.667 -4.83301 -44 -14.5s-14.666 -25.5 -15.999 -47.5zM46.999 226.998c-3.33301 15.333 -6 34 -8 56
s-3 44.667 -3 68s1 46 3 68s4.66699 40.667 8 56c-0.666992 8.66699 -1.16699 17 -1.5 25s-0.5 15.667 -0.5 23c0 68.667 13.667 117.5 41 146.5s72 43.5 134 43.5c6 0 12.167 -0.166992 18.5 -0.5s13.166 -0.833008 20.499 -1.5
c7.33301 0.666992 14.166 1.16699 20.499 1.5s12.5 0.5 18.5 0.5c62 0 106.833 -14.5 134.5 -43.5s41.5 -77.833 41.5 -146.5c0 -7.33301 -0.166992 -15 -0.5 -23s-0.833008 -16.333 -1.5 -25c3.33301 -15.333 5.83301 -34 7.5 -56s2.5 -44.667 2.5 -68
s-0.833008 -46 -2.5 -68s-4.16699 -40.667 -7.5 -56c0.666992 -8.66699 1.16699 -16.834 1.5 -24.501s0.5 -15.167 0.5 -22.5c0 -69.333 -13.833 -118.5 -41.5 -147.5s-72.5 -43.5 -134.5 -43.5c-6 0 -12.167 0.166992 -18.5 0.5s-13.166 0.833008 -20.499 1.5
c-7.33301 -0.666992 -14.166 -1.16699 -20.499 -1.5s-12.5 -0.5 -18.5 -0.5c-61.333 0 -105.833 14.5 -133.5 43.5s-41.5 78.167 -41.5 147.5c0 7.33301 0.166992 14.833 0.5 22.5s0.833008 15.834 1.5 24.501z" />
    <glyph glyph-name="Idieresis" unicode="&#xcf;" horiz-adv-x="531" 
d="M57 0c-10 44 -17.3291 97 -21.9961 159s-7 126 -7 192s2.33301 130 7 192s12 115 22 159c26 6 57.667 10.333 95 13s75.333 4 114 4s76.5 -1.33301 113.5 -4s68.5 -7 94.5 -13c10 -44 17.333 -97 22 -159s7 -126 7 -192s-2.33301 -130 -7 -192s-12 -115 -22 -159
c-9.33301 -2 -20.666 -3.5 -33.999 -4.5s-27 -1.5 -41 -1.5c-30.667 0 -55.667 2 -75 6c-8 36 -14 79.5 -18 130.5s-6 103.5 -6 157.5s2 106.5 6 157.5s10 94.5 18 130.5c-6.66699 -1.33301 -15.334 -2.33301 -26.001 -3s-21.334 -1 -32.001 -1s-21.334 0.333008 -32.001 1
s-19.667 1.66699 -27 3c8 -36 14 -79.5 18 -130.5s6 -103.5 6 -157.5s-2 -106.5 -6 -157.5s-10 -94.5 -18 -130.5c-8.66699 -2 -19.834 -3.5 -33.501 -4.5s-27.5 -1.5 -41.5 -1.5s-27.833 0.5 -41.5 1.5s-24.834 2.5 -33.501 4.5z" />
    <glyph glyph-name="Idieresis" unicode="&#x41f;" horiz-adv-x="531" 
d="M57 0c-10 44 -17.3291 97 -21.9961 159s-7 126 -7 192s2.33301 130 7 192s12 115 22 159c26 6 57.667 10.333 95 13s75.333 4 114 4s76.5 -1.33301 113.5 -4s68.5 -7 94.5 -13c10 -44 17.333 -97 22 -159s7 -126 7 -192s-2.33301 -130 -7 -192s-12 -115 -22 -159
c-9.33301 -2 -20.666 -3.5 -33.999 -4.5s-27 -1.5 -41 -1.5c-30.667 0 -55.667 2 -75 6c-8 36 -14 79.5 -18 130.5s-6 103.5 -6 157.5s2 106.5 6 157.5s10 94.5 18 130.5c-6.66699 -1.33301 -15.334 -2.33301 -26.001 -3s-21.334 -1 -32.001 -1s-21.334 0.333008 -32.001 1
s-19.667 1.66699 -27 3c8 -36 14 -79.5 18 -130.5s6 -103.5 6 -157.5s-2 -106.5 -6 -157.5s-10 -94.5 -18 -130.5c-8.66699 -2 -19.834 -3.5 -33.501 -4.5s-27.5 -1.5 -41.5 -1.5s-27.833 0.5 -41.5 1.5s-24.834 2.5 -33.501 4.5z" />
    <glyph glyph-name="Eth" unicode="&#xd0;" horiz-adv-x="516" 
d="M204 321c9.33301 0 19 -0.501953 29 -1.50195s20.333 -2.16699 31 -3.5c22.667 2 39 12.667 49 32s16.667 52.333 20 99c-3.33301 42.667 -11.333 73.167 -24 91.5s-34.667 28.833 -66 31.5c-13.333 -2.66699 -26.333 -2.66699 -39 0
c3.33301 -15.333 5.83301 -34 7.5 -56s2.5 -44.667 2.5 -68s-0.833008 -46.166 -2.5 -68.499s-4.16699 -41.166 -7.5 -56.499zM57 -0.00195312c-10 44 -17.333 97.002 -22 159.002s-7 126 -7 192s2.33301 130 7 192s12 115 22 159c12 2.66699 26.667 4.66699 44 6
s35.333 2 54 2s36.667 -0.666992 54 -2s32 -3.33301 44 -6c7.33301 0.666992 14.166 1.16699 20.499 1.5s12.833 0.5 19.5 0.5c66.667 0 115.334 -16 146.001 -48s46 -85.333 46 -160c0 -7.33301 -0.166992 -14.833 -0.5 -22.5s-0.833008 -15.834 -1.5 -24.501
c0.666992 -8 1.16699 -15.833 1.5 -23.5s0.5 -14.834 0.5 -21.501c0 -70 -14.833 -123.333 -44.5 -160s-74.5 -55 -134.5 -55h-11.5c-3.66699 0 -7.5 0.333008 -11.5 1c-4.66699 -0.666992 -9 -1.16699 -13 -1.5s-8.33301 -0.5 -13 -0.5c-17.333 0 -35 2.66699 -53 8
c2.66699 -12 4.66699 -26.667 6 -44s2 -35.333 2 -54s-0.666992 -36.667 -2 -54s-3.33301 -32 -6 -44c-9.33301 -2 -20.5 -3.5 -33.5 -4.5s-26.5 -1.5 -40.5 -1.5c-30.667 0 -55 2 -73 6z" />
    <glyph glyph-name="Eth" unicode="&#x420;" horiz-adv-x="516" 
d="M204 321c9.33301 0 19 -0.501953 29 -1.50195s20.333 -2.16699 31 -3.5c22.667 2 39 12.667 49 32s16.667 52.333 20 99c-3.33301 42.667 -11.333 73.167 -24 91.5s-34.667 28.833 -66 31.5c-13.333 -2.66699 -26.333 -2.66699 -39 0
c3.33301 -15.333 5.83301 -34 7.5 -56s2.5 -44.667 2.5 -68s-0.833008 -46.166 -2.5 -68.499s-4.16699 -41.166 -7.5 -56.499zM57 -0.00195312c-10 44 -17.333 97.002 -22 159.002s-7 126 -7 192s2.33301 130 7 192s12 115 22 159c12 2.66699 26.667 4.66699 44 6
s35.333 2 54 2s36.667 -0.666992 54 -2s32 -3.33301 44 -6c7.33301 0.666992 14.166 1.16699 20.499 1.5s12.833 0.5 19.5 0.5c66.667 0 115.334 -16 146.001 -48s46 -85.333 46 -160c0 -7.33301 -0.166992 -14.833 -0.5 -22.5s-0.833008 -15.834 -1.5 -24.501
c0.666992 -8 1.16699 -15.833 1.5 -23.5s0.5 -14.834 0.5 -21.501c0 -70 -14.833 -123.333 -44.5 -160s-74.5 -55 -134.5 -55h-11.5c-3.66699 0 -7.5 0.333008 -11.5 1c-4.66699 -0.666992 -9 -1.16699 -13 -1.5s-8.33301 -0.5 -13 -0.5c-17.333 0 -35 2.66699 -53 8
c2.66699 -12 4.66699 -26.667 6 -44s2 -35.333 2 -54s-0.666992 -36.667 -2 -54s-3.33301 -32 -6 -44c-9.33301 -2 -20.5 -3.5 -33.5 -4.5s-26.5 -1.5 -40.5 -1.5c-30.667 0 -55 2 -73 6z" />
    <glyph glyph-name="Ntilde" unicode="&#xd1;" horiz-adv-x="511" 
d="M472 425c-9.33301 -2 -20.834 -3.50195 -34.501 -4.50195s-27.834 -1.5 -42.501 -1.5s-28.834 0.5 -42.501 1.5s-25.167 2.5 -34.5 4.5c-1.33301 5.33301 -2.33301 11.833 -3 19.5s-1 15.5 -1 23.5s0.333008 16 1 24s1.66699 14.667 3 20c-2 24 -7.33301 41 -16 51
s-23 15 -43 15s-34.667 -4.66699 -44 -14s-14.666 -25 -15.999 -47c4.66699 -20.667 8 -45.667 10 -75s3 -59.666 3 -90.999s-1 -61.666 -3 -90.999s-5.33301 -54.333 -10 -75c1.33301 -22.667 6.83301 -38.667 16.5 -48s24.167 -14 43.5 -14c24 0 39.333 6.16699 46 18.5
s10 28.5 10 48.5c0 9.33301 -0.333008 19 -1 29s-1 20.667 -1 32s0.333008 22.333 1 33s2 19.667 4 27c9.33301 2 20.833 3.5 34.5 4.5s27.834 1.5 42.501 1.5s28.834 -0.5 42.501 -1.5s25.167 -2.5 34.5 -4.5c1.33301 -4.66699 2.33301 -10.834 3 -18.501s1 -15.5 1 -23.5
s-0.333008 -15.833 -1 -23.5s-1.66699 -13.834 -3 -18.501c0.666992 -8.66699 1.16699 -16.834 1.5 -24.501s0.5 -15.167 0.5 -22.5c0 -69.333 -13.833 -118.5 -41.5 -147.5s-72.5 -43.5 -134.5 -43.5c-6 0 -12.167 0.166992 -18.5 0.5s-13.166 0.833008 -20.499 1.5
c-7.33301 -0.666992 -14.166 -1.16699 -20.499 -1.5s-12.5 -0.5 -18.5 -0.5c-61.333 0 -105.833 14.5 -133.5 43.5s-41.5 78.167 -41.5 147.5c0 7.33301 0.166992 14.833 0.5 22.5s0.833008 15.834 1.5 24.501c-3.33301 15.333 -6 34 -8 56s-3 44.667 -3 68s1 46 3 68
s4.66699 40.667 8 56c-0.666992 8.66699 -1.16699 17 -1.5 25s-0.5 15.667 -0.5 23c0 68.667 13.667 117.334 41 146.001s71.666 43 132.999 43c6 0 12.333 -0.166992 19 -0.5s13.667 -0.833008 21 -1.5c7.33301 0.666992 14.166 1.16699 20.499 1.5s12.833 0.5 19.5 0.5
c62 0 106.667 -14.333 134 -43s41 -77.334 41 -146.001c0 -7.33301 -0.166992 -15 -0.5 -23s-0.833008 -16.333 -1.5 -25c1.33301 -3.33301 2 -7.16602 2 -11.499v-13.5v-13.5c0 -4.33301 -0.666992 -8.16602 -2 -11.499z" />
    <glyph glyph-name="Ntilde" unicode="&#x421;" horiz-adv-x="511" 
d="M472 425c-9.33301 -2 -20.834 -3.50195 -34.501 -4.50195s-27.834 -1.5 -42.501 -1.5s-28.834 0.5 -42.501 1.5s-25.167 2.5 -34.5 4.5c-1.33301 5.33301 -2.33301 11.833 -3 19.5s-1 15.5 -1 23.5s0.333008 16 1 24s1.66699 14.667 3 20c-2 24 -7.33301 41 -16 51
s-23 15 -43 15s-34.667 -4.66699 -44 -14s-14.666 -25 -15.999 -47c4.66699 -20.667 8 -45.667 10 -75s3 -59.666 3 -90.999s-1 -61.666 -3 -90.999s-5.33301 -54.333 -10 -75c1.33301 -22.667 6.83301 -38.667 16.5 -48s24.167 -14 43.5 -14c24 0 39.333 6.16699 46 18.5
s10 28.5 10 48.5c0 9.33301 -0.333008 19 -1 29s-1 20.667 -1 32s0.333008 22.333 1 33s2 19.667 4 27c9.33301 2 20.833 3.5 34.5 4.5s27.834 1.5 42.501 1.5s28.834 -0.5 42.501 -1.5s25.167 -2.5 34.5 -4.5c1.33301 -4.66699 2.33301 -10.834 3 -18.501s1 -15.5 1 -23.5
s-0.333008 -15.833 -1 -23.5s-1.66699 -13.834 -3 -18.501c0.666992 -8.66699 1.16699 -16.834 1.5 -24.501s0.5 -15.167 0.5 -22.5c0 -69.333 -13.833 -118.5 -41.5 -147.5s-72.5 -43.5 -134.5 -43.5c-6 0 -12.167 0.166992 -18.5 0.5s-13.166 0.833008 -20.499 1.5
c-7.33301 -0.666992 -14.166 -1.16699 -20.499 -1.5s-12.5 -0.5 -18.5 -0.5c-61.333 0 -105.833 14.5 -133.5 43.5s-41.5 78.167 -41.5 147.5c0 7.33301 0.166992 14.833 0.5 22.5s0.833008 15.834 1.5 24.501c-3.33301 15.333 -6 34 -8 56s-3 44.667 -3 68s1 46 3 68
s4.66699 40.667 8 56c-0.666992 8.66699 -1.16699 17 -1.5 25s-0.5 15.667 -0.5 23c0 68.667 13.667 117.334 41 146.001s71.666 43 132.999 43c6 0 12.333 -0.166992 19 -0.5s13.667 -0.833008 21 -1.5c7.33301 0.666992 14.166 1.16699 20.499 1.5s12.833 0.5 19.5 0.5
c62 0 106.667 -14.333 134 -43s41 -77.334 41 -146.001c0 -7.33301 -0.166992 -15 -0.5 -23s-0.833008 -16.333 -1.5 -25c1.33301 -3.33301 2 -7.16602 2 -11.499v-13.5v-13.5c0 -4.33301 -0.666992 -8.16602 -2 -11.499z" />
    <glyph glyph-name="Ograve" unicode="&#xd2;" horiz-adv-x="401" 
d="M124 574c-6.66699 -1.33301 -14.5 -2.33301 -23.5 -3s-18.5 -1 -28.5 -1s-19.667 0.333008 -29 1s-17.333 1.66699 -24 3c-2 8 -3.33301 17.667 -4 29s-1 23 -1 35s0.333008 23.667 1 35s2 21 4 29c23.333 5.33301 50.833 9.16602 82.5 11.499s64.5 3.5 98.5 3.5
s66.833 -1.16699 98.5 -3.5s59.167 -6.16602 82.5 -11.499c2 -8 3.33301 -17.667 4 -29s1 -23 1 -35s-0.333008 -23.667 -1 -35s-2 -21 -4 -29c-7.33301 -1.33301 -15.5 -2.33301 -24.5 -3s-18.5 -1 -28.5 -1s-19.5 0.333008 -28.5 1s-17.167 1.66699 -24.5 3
c8 -36 14 -79.333 18 -130s6 -103 6 -157s-2 -106.333 -6 -157s-10 -94 -18 -130c-19.333 -4 -44.333 -6 -75 -6c-14 0 -27.833 0.5 -41.5 1.5s-25.167 2.5 -34.5 4.5c-8 36 -14 79.333 -18 130s-6 103 -6 157s2 106.333 6 157s10 94 18 130z" />
    <glyph glyph-name="Ograve" unicode="&#x422;" horiz-adv-x="401" 
d="M124 574c-6.66699 -1.33301 -14.5 -2.33301 -23.5 -3s-18.5 -1 -28.5 -1s-19.667 0.333008 -29 1s-17.333 1.66699 -24 3c-2 8 -3.33301 17.667 -4 29s-1 23 -1 35s0.333008 23.667 1 35s2 21 4 29c23.333 5.33301 50.833 9.16602 82.5 11.499s64.5 3.5 98.5 3.5
s66.833 -1.16699 98.5 -3.5s59.167 -6.16602 82.5 -11.499c2 -8 3.33301 -17.667 4 -29s1 -23 1 -35s-0.333008 -23.667 -1 -35s-2 -21 -4 -29c-7.33301 -1.33301 -15.5 -2.33301 -24.5 -3s-18.5 -1 -28.5 -1s-19.5 0.333008 -28.5 1s-17.167 1.66699 -24.5 3
c8 -36 14 -79.333 18 -130s6 -103 6 -157s-2 -106.333 -6 -157s-10 -94 -18 -130c-19.333 -4 -44.333 -6 -75 -6c-14 0 -27.833 0.5 -41.5 1.5s-25.167 2.5 -34.5 4.5c-8 36 -14 79.333 -18 130s-6 103 -6 157s2 106.333 6 157s10 94 18 130z" />
    <glyph glyph-name="Oacute" unicode="&#xd3;" horiz-adv-x="498" 
d="M39 702c8.66699 2 19.8242 3.49805 33.4912 4.49805s27.5 1.5 41.5 1.5s27.833 -0.5 41.5 -1.5s24.834 -2.5 33.501 -4.5c2 -8 3.33301 -17.5 4 -28.5s1 -22.5 1 -34.5s-0.333008 -23.5 -1 -34.5s-2 -20.5 -4 -28.5l16 -145.5c4.66699 -41 9.33398 -77.333 14.001 -109
s9.33398 -60 14.001 -85s10 -49.5 16 -73.5c5.33301 24 10.5 48.5 15.5 73.5s9.83301 53.333 14.5 85s9.33398 68 14.001 109l16 145.5c-2 8 -3.33301 17.5 -4 28.5s-1 22.5 -1 34.5s0.333008 23.5 1 34.5s2 20.5 4 28.5c8.66699 2 19.834 3.5 33.501 4.5s27.5 1.5 41.5 1.5
s27.833 -0.5 41.5 -1.5s24.834 -2.5 33.501 -4.5c2 -8.66699 3.33301 -19 4 -31s1 -24.333 1 -37s-0.333008 -24.834 -1 -36.501s-2 -21.834 -4 -30.501c3.33301 -28.667 5.83301 -56.167 7.5 -82.5s2.5 -51.5 2.5 -75.5c0 -92 -12.833 -170.833 -38.5 -236.5
s-67.167 -123.167 -124.5 -172.5c-17.333 -4 -37.666 -6.83301 -60.999 -8.5s-47.666 -2.5 -72.999 -2.5s-49.666 0.833008 -72.999 2.5s-43.333 4.5 -60 8.5c-2 8 -3.33301 17.833 -4 29.5s-1 23.834 -1 36.501c0 6 -0.166992 11.5 -0.5 16.5s-0.5 9.83301 -0.5 14.5
c0 12.667 2.5 22.167 7.5 28.5s17.5 9.5 37.5 9.5c16 0 29 -1 39 -3c-28 38.667 -49.333 82 -64 130s-22 105.667 -22 173c0 20 0.666992 40.833 2 62.5s3.33301 44.834 6 69.501c-2 8.66699 -3.33301 18.834 -4 30.501s-1 23.834 -1 36.501s0.333008 25 1 37s2 22.333 4 31
z" />
    <glyph glyph-name="Oacute" unicode="&#x423;" horiz-adv-x="498" 
d="M39 702c8.66699 2 19.8242 3.49805 33.4912 4.49805s27.5 1.5 41.5 1.5s27.833 -0.5 41.5 -1.5s24.834 -2.5 33.501 -4.5c2 -8 3.33301 -17.5 4 -28.5s1 -22.5 1 -34.5s-0.333008 -23.5 -1 -34.5s-2 -20.5 -4 -28.5l16 -145.5c4.66699 -41 9.33398 -77.333 14.001 -109
s9.33398 -60 14.001 -85s10 -49.5 16 -73.5c5.33301 24 10.5 48.5 15.5 73.5s9.83301 53.333 14.5 85s9.33398 68 14.001 109l16 145.5c-2 8 -3.33301 17.5 -4 28.5s-1 22.5 -1 34.5s0.333008 23.5 1 34.5s2 20.5 4 28.5c8.66699 2 19.834 3.5 33.501 4.5s27.5 1.5 41.5 1.5
s27.833 -0.5 41.5 -1.5s24.834 -2.5 33.501 -4.5c2 -8.66699 3.33301 -19 4 -31s1 -24.333 1 -37s-0.333008 -24.834 -1 -36.501s-2 -21.834 -4 -30.501c3.33301 -28.667 5.83301 -56.167 7.5 -82.5s2.5 -51.5 2.5 -75.5c0 -92 -12.833 -170.833 -38.5 -236.5
s-67.167 -123.167 -124.5 -172.5c-17.333 -4 -37.666 -6.83301 -60.999 -8.5s-47.666 -2.5 -72.999 -2.5s-49.666 0.833008 -72.999 2.5s-43.333 4.5 -60 8.5c-2 8 -3.33301 17.833 -4 29.5s-1 23.834 -1 36.501c0 6 -0.166992 11.5 -0.5 16.5s-0.5 9.83301 -0.5 14.5
c0 12.667 2.5 22.167 7.5 28.5s17.5 9.5 37.5 9.5c16 0 29 -1 39 -3c-28 38.667 -49.333 82 -64 130s-22 105.667 -22 173c0 20 0.666992 40.833 2 62.5s3.33301 44.834 6 69.501c-2 8.66699 -3.33301 18.834 -4 30.501s-1 23.834 -1 36.501s0.333008 25 1 37s2 22.333 4 31
z" />
    <glyph glyph-name="Ocircumflex" unicode="&#xd4;" horiz-adv-x="777" 
d="M462 480c2.66699 -14.667 5 -32.5039 7 -53.5039s3 -42.5 3 -64.5s-1 -43.5 -3 -64.5s-4.33301 -38.833 -7 -53.5c9.33301 -2 18.333 -3.83301 27 -5.5s19.667 -3.16699 33 -4.5c18.667 2 34 11.833 46 29.5s19.667 50.834 23 99.501
c-1.33301 22.667 -3.83301 41.334 -7.5 56.001s-9 26.334 -16 35.001s-15.833 14.834 -26.5 18.501s-24 6.16699 -40 7.5c-13.333 -2.66699 -26.333 -2.66699 -39 0zM315 701.996c18 4 42.3311 6 72.998 6c14 0 27.5 -0.5 40.5 -1.5s24.167 -2.5 33.5 -4.5
c1.33301 -5.33301 2.33301 -12 3 -20s1 -16.333 1 -25s-0.5 -15.667 -1.5 -21s-1.5 -9.33301 -1.5 -12c0 -4 1.83301 -6.66699 5.5 -8s11.5 -2 23.5 -2h16c5.33301 0 10 -0.666992 14 -2c5.33301 0.666992 10.333 1 15 1h15c127.333 0 191 -69.667 191 -209
c0 -6.66699 -0.166992 -13.334 -0.5 -20.001s-0.833008 -13.667 -1.5 -21c0.666992 -7.33301 1.16699 -14.5 1.5 -21.5s0.5 -13.833 0.5 -20.5c0 -73.333 -15.667 -127.333 -47 -162s-75 -52 -131 -52h-12c-4 0 -8 0.333008 -12 1
c-3.33301 -0.666992 -6.66602 -1.16699 -9.99902 -1.5s-6.66602 -0.5 -9.99902 -0.5c-20.667 0 -40.334 4.66699 -59.001 14c2 -7.33301 3.33301 -16.5 4 -27.5s1 -21.833 1 -32.5s-0.333008 -21.5 -1 -32.5s-2 -20.167 -4 -27.5c-9.33301 -2 -20.5 -3.5 -33.5 -4.5
s-26.5 -1.5 -40.5 -1.5c-30.667 0 -55 2 -73 6c-2 7.33301 -3.33301 16.5 -4 27.5s-1 21.833 -1 32.5s0.333008 21.5 1 32.5s2 20.167 4 27.5c-18.667 -9.33301 -38.334 -14 -59.001 -14c-3.33301 0 -6.66602 0.166992 -9.99902 0.5s-6.66602 0.833008 -9.99902 1.5
c-4 -0.666992 -8 -1 -12 -1h-12c-56 0 -99.667 17.333 -131 52s-47 88.667 -47 162c0 6.66699 0.166992 13.5 0.5 20.5s0.833008 14.167 1.5 21.5c-0.666992 7.33301 -1.16699 14.333 -1.5 21s-0.5 13.334 -0.5 20.001c0 139.333 63.667 209 191 209h15
c5.33301 0 10.333 -0.333008 15 -1c4 1.33301 8.66699 2 14 2h16h16c5.33301 0 10 -0.666992 14 -2l-2.5 20c-1 8 -1.5 16.333 -1.5 25s0.5 17 1.5 25zM314.998 479.996c-13.333 -2.66699 -26.333 -2.66309 -39 0.00390625c-16 -1.33301 -29.333 -3.83301 -40 -7.5
s-19.5 -9.83398 -26.5 -18.501s-12.333 -20.334 -16 -35.001s-6.16699 -33.334 -7.5 -56.001c3.33301 -48.667 10.833 -81.834 22.5 -99.501s27.167 -27.5 46.5 -29.5c12.667 1.33301 23.5 2.83301 32.5 4.5s18.167 3.5 27.5 5.5c-3.33301 14.667 -5.83301 32.5 -7.5 53.5
s-2.5 42.5 -2.5 64.5s0.833008 43.5 2.5 64.5s4.16699 38.833 7.5 53.5z" />
    <glyph glyph-name="Ocircumflex" unicode="&#x424;" horiz-adv-x="777" 
d="M462 480c2.66699 -14.667 5 -32.5039 7 -53.5039s3 -42.5 3 -64.5s-1 -43.5 -3 -64.5s-4.33301 -38.833 -7 -53.5c9.33301 -2 18.333 -3.83301 27 -5.5s19.667 -3.16699 33 -4.5c18.667 2 34 11.833 46 29.5s19.667 50.834 23 99.501
c-1.33301 22.667 -3.83301 41.334 -7.5 56.001s-9 26.334 -16 35.001s-15.833 14.834 -26.5 18.501s-24 6.16699 -40 7.5c-13.333 -2.66699 -26.333 -2.66699 -39 0zM315 701.996c18 4 42.3311 6 72.998 6c14 0 27.5 -0.5 40.5 -1.5s24.167 -2.5 33.5 -4.5
c1.33301 -5.33301 2.33301 -12 3 -20s1 -16.333 1 -25s-0.5 -15.667 -1.5 -21s-1.5 -9.33301 -1.5 -12c0 -4 1.83301 -6.66699 5.5 -8s11.5 -2 23.5 -2h16c5.33301 0 10 -0.666992 14 -2c5.33301 0.666992 10.333 1 15 1h15c127.333 0 191 -69.667 191 -209
c0 -6.66699 -0.166992 -13.334 -0.5 -20.001s-0.833008 -13.667 -1.5 -21c0.666992 -7.33301 1.16699 -14.5 1.5 -21.5s0.5 -13.833 0.5 -20.5c0 -73.333 -15.667 -127.333 -47 -162s-75 -52 -131 -52h-12c-4 0 -8 0.333008 -12 1
c-3.33301 -0.666992 -6.66602 -1.16699 -9.99902 -1.5s-6.66602 -0.5 -9.99902 -0.5c-20.667 0 -40.334 4.66699 -59.001 14c2 -7.33301 3.33301 -16.5 4 -27.5s1 -21.833 1 -32.5s-0.333008 -21.5 -1 -32.5s-2 -20.167 -4 -27.5c-9.33301 -2 -20.5 -3.5 -33.5 -4.5
s-26.5 -1.5 -40.5 -1.5c-30.667 0 -55 2 -73 6c-2 7.33301 -3.33301 16.5 -4 27.5s-1 21.833 -1 32.5s0.333008 21.5 1 32.5s2 20.167 4 27.5c-18.667 -9.33301 -38.334 -14 -59.001 -14c-3.33301 0 -6.66602 0.166992 -9.99902 0.5s-6.66602 0.833008 -9.99902 1.5
c-4 -0.666992 -8 -1 -12 -1h-12c-56 0 -99.667 17.333 -131 52s-47 88.667 -47 162c0 6.66699 0.166992 13.5 0.5 20.5s0.833008 14.167 1.5 21.5c-0.666992 7.33301 -1.16699 14.333 -1.5 21s-0.5 13.334 -0.5 20.001c0 139.333 63.667 209 191 209h15
c5.33301 0 10.333 -0.333008 15 -1c4 1.33301 8.66699 2 14 2h16h16c5.33301 0 10 -0.666992 14 -2l-2.5 20c-1 8 -1.5 16.333 -1.5 25s0.5 17 1.5 25zM314.998 479.996c-13.333 -2.66699 -26.333 -2.66309 -39 0.00390625c-16 -1.33301 -29.333 -3.83301 -40 -7.5
s-19.5 -9.83398 -26.5 -18.501s-12.333 -20.334 -16 -35.001s-6.16699 -33.334 -7.5 -56.001c3.33301 -48.667 10.833 -81.834 22.5 -99.501s27.167 -27.5 46.5 -29.5c12.667 1.33301 23.5 2.83301 32.5 4.5s18.167 3.5 27.5 5.5c-3.33301 14.667 -5.83301 32.5 -7.5 53.5
s-2.5 42.5 -2.5 64.5s0.833008 43.5 2.5 64.5s4.16699 38.833 7.5 53.5z" />
    <glyph glyph-name="Otilde" unicode="&#xd5;" horiz-adv-x="510" 
d="M42 702c9.33301 2 20.666 3.5 33.999 4.5s27 1.5 41 1.5c30.667 0 55.667 -2 75 -6c1.33301 -6.66699 1.33301 -13.667 0 -21c4 -39.333 8.33301 -73.833 13 -103.5s9.5 -56.667 14.5 -81s10.333 -46.833 16 -67.5s11.834 -41.667 18.501 -63l-18.5 -82.5
c-5.66699 -24.333 -11 -49.166 -16 -74.499s-9.66699 -52.833 -14 -82.5s-8.83301 -64.834 -13.5 -105.501c2.66699 -12 -1 -19.5 -11 -22.5s-21.667 -4.5 -35 -4.5h-29c-30.667 0 -55.667 2 -75 6c-1.33301 6.66699 -1.33301 13.334 0 20.001
c-2 21.333 -3.66699 41.333 -5 60s-2 36.334 -2 53.001c0 59.333 6.5 108.666 19.5 147.999s31.167 75.666 54.5 108.999c-18.667 22.667 -35.167 52.667 -49.5 90s-21.5 83 -21.5 137c0 10 0.333008 20.333 1 31s1.66699 21.667 3 33
c-1.33301 6.66699 -1.33301 13.667 0 21zM468 702c2 -9.33301 3.16602 -19.501 3.49902 -30.501s0.5 -21.5 0.5 -31.5v-23c0 -54 -7.16699 -99.667 -21.5 -137s-30.833 -67.333 -49.5 -90c23.333 -33.333 41.5 -69.666 54.5 -108.999s19.5 -88.666 19.5 -147.999
c0 -16.667 -0.666992 -34.334 -2 -53.001s-3 -38.667 -5 -60c2 -11.333 -1.83301 -18.5 -11.5 -21.5s-21.167 -4.5 -34.5 -4.5h-29c-30.667 0 -55.667 2 -75 6c-1.33301 6.66699 -1.33301 13.667 0 21c-4.66699 40.667 -9.16699 75.834 -13.5 105.501s-9 57.167 -14 82.5
s-10.333 50.166 -16 74.499l-18.5 82.5c6.66699 21.333 12.834 42.333 18.501 63s11 43.167 16 67.5s9.83301 51.333 14.5 81s9 64.167 13 103.5c-2.66699 12 1 19.5 11 22.5s21.667 4.5 35 4.5h29c30.667 0 55.667 -2 75 -6z" />
    <glyph glyph-name="Otilde" unicode="&#x425;" horiz-adv-x="510" 
d="M42 702c9.33301 2 20.666 3.5 33.999 4.5s27 1.5 41 1.5c30.667 0 55.667 -2 75 -6c1.33301 -6.66699 1.33301 -13.667 0 -21c4 -39.333 8.33301 -73.833 13 -103.5s9.5 -56.667 14.5 -81s10.333 -46.833 16 -67.5s11.834 -41.667 18.501 -63l-18.5 -82.5
c-5.66699 -24.333 -11 -49.166 -16 -74.499s-9.66699 -52.833 -14 -82.5s-8.83301 -64.834 -13.5 -105.501c2.66699 -12 -1 -19.5 -11 -22.5s-21.667 -4.5 -35 -4.5h-29c-30.667 0 -55.667 2 -75 6c-1.33301 6.66699 -1.33301 13.334 0 20.001
c-2 21.333 -3.66699 41.333 -5 60s-2 36.334 -2 53.001c0 59.333 6.5 108.666 19.5 147.999s31.167 75.666 54.5 108.999c-18.667 22.667 -35.167 52.667 -49.5 90s-21.5 83 -21.5 137c0 10 0.333008 20.333 1 31s1.66699 21.667 3 33
c-1.33301 6.66699 -1.33301 13.667 0 21zM468 702c2 -9.33301 3.16602 -19.501 3.49902 -30.501s0.5 -21.5 0.5 -31.5v-23c0 -54 -7.16699 -99.667 -21.5 -137s-30.833 -67.333 -49.5 -90c23.333 -33.333 41.5 -69.666 54.5 -108.999s19.5 -88.666 19.5 -147.999
c0 -16.667 -0.666992 -34.334 -2 -53.001s-3 -38.667 -5 -60c2 -11.333 -1.83301 -18.5 -11.5 -21.5s-21.167 -4.5 -34.5 -4.5h-29c-30.667 0 -55.667 2 -75 6c-1.33301 6.66699 -1.33301 13.667 0 21c-4.66699 40.667 -9.16699 75.834 -13.5 105.501s-9 57.167 -14 82.5
s-10.333 50.166 -16 74.499l-18.5 82.5c6.66699 21.333 12.834 42.333 18.501 63s11 43.167 16 67.5s9.83301 51.333 14.5 81s9 64.167 13 103.5c-2.66699 12 1 19.5 11 22.5s21.667 4.5 35 4.5h29c30.667 0 55.667 -2 75 -6z" />
    <glyph glyph-name="Odieresis" unicode="&#xd6;" horiz-adv-x="540" 
d="M327 702c8.66699 2 19.8379 3.49805 33.5049 4.49805s27.5 1.5 41.5 1.5s27.833 -0.5 41.5 -1.5s24.834 -2.5 33.501 -4.5c8 -36 14 -79.167 18 -129.5s6 -102.5 6 -156.5s-2 -106.333 -6 -157s-10 -94 -18 -130c4 0.666992 8.66699 1.16699 14 1.5s11 0.5 17 0.5
s11.833 -0.166992 17.5 -0.5s10.5 -0.833008 14.5 -1.5c3.33301 -15.333 5.83301 -34.166 7.5 -56.499s2.5 -45.166 2.5 -68.499s-0.833008 -46 -2.5 -68s-4.16699 -40.667 -7.5 -56c-8 -2 -17.833 -3.33301 -29.5 -4s-23.834 -1 -36.501 -1s-24.834 0.333008 -36.501 1
s-21.5 2 -29.5 4c-2 7.33301 -3.33301 16.5 -4 27.5s-1 21.833 -1 32.5s0.333008 21.5 1 32.5s2 20.167 4 27.5c-22 -5.33301 -48.333 -9 -79 -11s-62.334 -3 -95.001 -3s-64.334 1 -95.001 3s-57 5.66699 -79 11c-10 44 -17.333 97 -22 159s-7 126 -7 192
s2.33301 130 7 192s12 115 22 159c9.33301 2 20.666 3.5 33.999 4.5s27 1.5 41 1.5c30.667 0 55.667 -2 75 -6c8 -36 14 -79.167 18 -129.5s6 -102.5 6 -156.5s-2 -106.333 -6 -157s-10 -94 -18 -130c15.333 3.33301 34.666 5 57.999 5c24 0 43.667 -1.66699 59 -5
c-8 36 -14 79.333 -18 130s-6 103 -6 157s2 106.167 6 156.5s10 93.5 18 129.5z" />
    <glyph glyph-name="Odieresis" unicode="&#x426;" horiz-adv-x="540" 
d="M327 702c8.66699 2 19.8379 3.49805 33.5049 4.49805s27.5 1.5 41.5 1.5s27.833 -0.5 41.5 -1.5s24.834 -2.5 33.501 -4.5c8 -36 14 -79.167 18 -129.5s6 -102.5 6 -156.5s-2 -106.333 -6 -157s-10 -94 -18 -130c4 0.666992 8.66699 1.16699 14 1.5s11 0.5 17 0.5
s11.833 -0.166992 17.5 -0.5s10.5 -0.833008 14.5 -1.5c3.33301 -15.333 5.83301 -34.166 7.5 -56.499s2.5 -45.166 2.5 -68.499s-0.833008 -46 -2.5 -68s-4.16699 -40.667 -7.5 -56c-8 -2 -17.833 -3.33301 -29.5 -4s-23.834 -1 -36.501 -1s-24.834 0.333008 -36.501 1
s-21.5 2 -29.5 4c-2 7.33301 -3.33301 16.5 -4 27.5s-1 21.833 -1 32.5s0.333008 21.5 1 32.5s2 20.167 4 27.5c-22 -5.33301 -48.333 -9 -79 -11s-62.334 -3 -95.001 -3s-64.334 1 -95.001 3s-57 5.66699 -79 11c-10 44 -17.333 97 -22 159s-7 126 -7 192
s2.33301 130 7 192s12 115 22 159c9.33301 2 20.666 3.5 33.999 4.5s27 1.5 41 1.5c30.667 0 55.667 -2 75 -6c8 -36 14 -79.167 18 -129.5s6 -102.5 6 -156.5s-2 -106.333 -6 -157s-10 -94 -18 -130c15.333 3.33301 34.666 5 57.999 5c24 0 43.667 -1.66699 59 -5
c-8 36 -14 79.333 -18 130s-6 103 -6 157s2 106.167 6 156.5s10 93.5 18 129.5z" />
    <glyph glyph-name="multiply" unicode="&#xd7;" horiz-adv-x="519" 
d="M315 702c18 4 42.334 5.99902 73.001 5.99902c14 0 27.5 -0.5 40.5 -1.5s24.167 -2.5 33.5 -4.5c10 -44 17.333 -97 22 -159s7 -126 7 -192s-2.33301 -130 -7 -192s-12 -115 -22 -159c-9.33301 -2 -20.5 -3.5 -33.5 -4.5s-26.5 -1.5 -40.5 -1.5c-30.667 0 -55 2 -73 6
c-7.33301 33.333 -11 75.333 -11 126c0 24 1 47.167 3 69.5s4.66699 41.5 8 57.5c-18 -5.33301 -35.667 -8 -53 -8c-4.66699 0 -9 0.166992 -13 0.5s-8.33301 0.833008 -13 1.5c-4 -0.666992 -7.83301 -1 -11.5 -1h-11.5c-60 0 -104.833 18.333 -134.5 55
s-44.5 90 -44.5 160c0 7.33301 0.166992 14.666 0.5 21.999s0.833008 15 1.5 23c-2.66699 12 -4.66699 26.667 -6 44s-2 35.333 -2 54s0.666992 36.667 2 54s3.33301 32 6 44c9.33301 2 20.666 3.5 33.999 4.5s27 1.5 41 1.5c30.667 0 55.667 -2 75 -6
c2.66699 -12.667 4.66699 -27.667 6 -45s2 -35.333 2 -54s-0.666992 -36.667 -2 -54s-3.33301 -32.333 -6 -45c3.33301 -46.667 9.83301 -79.667 19.5 -99s26.167 -30 49.5 -32c10.667 1.33301 21.167 2.5 31.5 3.5s19.833 1.5 28.5 1.5c-4.66699 20 -8 44.333 -10 73
s-3 58.334 -3 89.001s1 60.334 3 89.001s5.33301 53 10 73z" />
    <glyph glyph-name="multiply" unicode="&#x427;" horiz-adv-x="519" 
d="M315 702c18 4 42.334 5.99902 73.001 5.99902c14 0 27.5 -0.5 40.5 -1.5s24.167 -2.5 33.5 -4.5c10 -44 17.333 -97 22 -159s7 -126 7 -192s-2.33301 -130 -7 -192s-12 -115 -22 -159c-9.33301 -2 -20.5 -3.5 -33.5 -4.5s-26.5 -1.5 -40.5 -1.5c-30.667 0 -55 2 -73 6
c-7.33301 33.333 -11 75.333 -11 126c0 24 1 47.167 3 69.5s4.66699 41.5 8 57.5c-18 -5.33301 -35.667 -8 -53 -8c-4.66699 0 -9 0.166992 -13 0.5s-8.33301 0.833008 -13 1.5c-4 -0.666992 -7.83301 -1 -11.5 -1h-11.5c-60 0 -104.833 18.333 -134.5 55
s-44.5 90 -44.5 160c0 7.33301 0.166992 14.666 0.5 21.999s0.833008 15 1.5 23c-2.66699 12 -4.66699 26.667 -6 44s-2 35.333 -2 54s0.666992 36.667 2 54s3.33301 32 6 44c9.33301 2 20.666 3.5 33.999 4.5s27 1.5 41 1.5c30.667 0 55.667 -2 75 -6
c2.66699 -12.667 4.66699 -27.667 6 -45s2 -35.333 2 -54s-0.666992 -36.667 -2 -54s-3.33301 -32.333 -6 -45c3.33301 -46.667 9.83301 -79.667 19.5 -99s26.167 -30 49.5 -32c10.667 1.33301 21.167 2.5 31.5 3.5s19.833 1.5 28.5 1.5c-4.66699 20 -8 44.333 -10 73
s-3 58.334 -3 89.001s1 60.334 3 89.001s5.33301 53 10 73z" />
    <glyph glyph-name="Oslash" unicode="&#xd8;" horiz-adv-x="762" 
d="M552 702c9.33301 2 20.668 3.5 34.001 4.5s27 1.5 41 1.5c30.667 0 55.667 -2 75 -6c10 -44 17.333 -97 22 -159s7 -126 7 -192s-2.33301 -130 -7 -192s-12 -115 -22 -159c-40 -9.33301 -88.5 -16 -145.5 -20s-115.5 -6 -175.5 -6s-118.5 2 -175.5 6
s-105.5 10.667 -145.5 20c-10 44 -17.333 97 -22 159s-7 126 -7 192s2.33301 130 7 192s12 115 22 159c9.33301 2 20.666 3.5 33.999 4.5s27 1.5 41 1.5c30.667 0 55.667 -2 75 -6c8 -36 14 -79.167 18 -129.5s6 -102.5 6 -156.5s-2 -106.333 -6 -157s-10 -94 -18 -130
l22.5 2.5c9 1 18.167 1.5 27.5 1.5s18.333 -0.5 27 -1.5l22 -2.5c-8 36 -14 79.333 -18 130s-6 103 -6 157s2 106.167 6 156.5s10 93.5 18 129.5c8.66699 2 19.5 3.5 32.5 4.5s26.167 1.5 39.5 1.5s26.5 -0.5 39.5 -1.5s23.833 -2.5 32.5 -4.5c8 -36 14 -79.167 18 -129.5
s6 -102.5 6 -156.5s-2 -106.333 -6 -157s-10 -94 -18 -130l22 2.5c8.66699 1 17.667 1.5 27 1.5s18.5 -0.5 27.5 -1.5l22.5 -2.5c-8 36 -14 79.333 -18 130s-6 103 -6 157s2 106.167 6 156.5s10 93.5 18 129.5z" />
    <glyph glyph-name="Oslash" unicode="&#x428;" horiz-adv-x="762" 
d="M552 702c9.33301 2 20.668 3.5 34.001 4.5s27 1.5 41 1.5c30.667 0 55.667 -2 75 -6c10 -44 17.333 -97 22 -159s7 -126 7 -192s-2.33301 -130 -7 -192s-12 -115 -22 -159c-40 -9.33301 -88.5 -16 -145.5 -20s-115.5 -6 -175.5 -6s-118.5 2 -175.5 6
s-105.5 10.667 -145.5 20c-10 44 -17.333 97 -22 159s-7 126 -7 192s2.33301 130 7 192s12 115 22 159c9.33301 2 20.666 3.5 33.999 4.5s27 1.5 41 1.5c30.667 0 55.667 -2 75 -6c8 -36 14 -79.167 18 -129.5s6 -102.5 6 -156.5s-2 -106.333 -6 -157s-10 -94 -18 -130
l22.5 2.5c9 1 18.167 1.5 27.5 1.5s18.333 -0.5 27 -1.5l22 -2.5c-8 36 -14 79.333 -18 130s-6 103 -6 157s2 106.167 6 156.5s10 93.5 18 129.5c8.66699 2 19.5 3.5 32.5 4.5s26.167 1.5 39.5 1.5s26.5 -0.5 39.5 -1.5s23.833 -2.5 32.5 -4.5c8 -36 14 -79.167 18 -129.5
s6 -102.5 6 -156.5s-2 -106.333 -6 -157s-10 -94 -18 -130l22 2.5c8.66699 1 17.667 1.5 27 1.5s18.5 -0.5 27.5 -1.5l22.5 -2.5c-8 36 -14 79.333 -18 130s-6 103 -6 157s2 106.167 6 156.5s10 93.5 18 129.5z" />
    <glyph glyph-name="Ugrave" unicode="&#xd9;" horiz-adv-x="765" 
d="M552 702c9.33301 2 20.6699 3.49805 34.0029 4.49805s27 1.5 41 1.5c30.667 0 55.667 -2 75 -6c8 -36 14 -79.167 18 -129.5s6 -102.5 6 -156.5s-2 -106.333 -6 -157s-10 -94 -18 -130c4 0.666992 8.83301 1.16699 14.5 1.5s11.5 0.5 17.5 0.5s11.667 -0.166992 17 -0.5
s10 -0.833008 14 -1.5c3.33301 -15.333 6 -34.166 8 -56.499s3 -45.166 3 -68.499c0 -50 -3.66699 -91.333 -11 -124c-8 -2 -17.833 -3.33301 -29.5 -4s-23.834 -1 -36.501 -1s-24.834 0.333008 -36.501 1s-21.5 2 -29.5 4c-2 7.33301 -3.33301 16.5 -4 27.5
s-1 21.833 -1 32.5s0.333008 21.5 1 32.5s2 20.167 4 27.5c-36 -8 -79.333 -14 -130 -18s-103 -6 -157 -6s-106.167 2 -156.5 6s-93.5 10 -129.5 18c-10 44 -17.333 97 -22 159s-7 126 -7 192s2.33301 130 7 192s12 115 22 159c9.33301 2 20.666 3.5 33.999 4.5
s27 1.5 41 1.5c30.667 0 55.667 -2 75 -6c8 -36 14 -79.167 18 -129.5s6 -102.5 6 -156.5s-2 -106.333 -6 -157s-10 -94 -18 -130l22.5 2.5c9 1 18.167 1.5 27.5 1.5s18.333 -0.5 27 -1.5l22 -2.5c-8 36 -14 79.333 -18 130s-6 103 -6 157s2 106.167 6 156.5
s10 93.5 18 129.5c8.66699 2 19.5 3.5 32.5 4.5s26.167 1.5 39.5 1.5s26.5 -0.5 39.5 -1.5s23.833 -2.5 32.5 -4.5c8 -36 14 -79.167 18 -129.5s6 -102.5 6 -156.5s-2 -106.333 -6 -157s-10 -94 -18 -130l22 2.5c8.66699 1 17.667 1.5 27 1.5s18.5 -0.5 27.5 -1.5l22.5 -2.5
c-8 36 -14 79.333 -18 130s-6 103 -6 157s2 106.167 6 156.5s10 93.5 18 129.5z" />
    </font>
</defs>
</svg>
